<?xml version="1.0" encoding="utf-8" standalone="no"?>
<!DOCTYPE svg PUBLIC "-//W3C//DTD SVG 1.1//EN"
  "http://www.w3.org/Graphics/SVG/1.1/DTD/svg11.dtd">
<!-- Created with matplotlib (https://matplotlib.org/) -->
<svg height="351.59625pt" version="1.1" viewBox="0 0 712.945313 351.59625" width="712.945313pt" xmlns="http://www.w3.org/2000/svg" xmlns:xlink="http://www.w3.org/1999/xlink">
 <defs>
  <style type="text/css">
*{stroke-linecap:butt;stroke-linejoin:round;}
  </style>
 </defs>
 <g id="figure_1">
  <g id="patch_1">
   <path d="M -0 351.59625
L 712.945313 351.59625
L 712.945313 0
L -0 0
z
" style="fill:#ffffff;"/>
  </g>
  <g id="axes_1">
   <g id="patch_2">
    <path d="M 44.845313 159.868125
L 705.745313 159.868125
L 705.745313 22.318125
L 44.845313 22.318125
z
" style="fill:#ffffff;"/>
   </g>
   <g id="matplotlib.axis_1">
    <g id="xtick_1">
     <g id="line2d_1">
      <defs>
       <path d="M 0 0
L 0 3.5
" id="m549eb9a73f" style="stroke:#000000;stroke-width:0.8;"/>
      </defs>
      <g>
       <use style="stroke:#000000;stroke-width:0.8;" x="74.886222" xlink:href="#m549eb9a73f" y="159.868125"/>
      </g>
     </g>
    </g>
    <g id="xtick_2">
     <g id="line2d_2">
      <g>
       <use style="stroke:#000000;stroke-width:0.8;" x="169.503258" xlink:href="#m549eb9a73f" y="159.868125"/>
      </g>
     </g>
    </g>
    <g id="xtick_3">
     <g id="line2d_3">
      <g>
       <use style="stroke:#000000;stroke-width:0.8;" x="264.120295" xlink:href="#m549eb9a73f" y="159.868125"/>
      </g>
     </g>
    </g>
    <g id="xtick_4">
     <g id="line2d_4">
      <g>
       <use style="stroke:#000000;stroke-width:0.8;" x="358.737331" xlink:href="#m549eb9a73f" y="159.868125"/>
      </g>
     </g>
    </g>
    <g id="xtick_5">
     <g id="line2d_5">
      <g>
       <use style="stroke:#000000;stroke-width:0.8;" x="453.354368" xlink:href="#m549eb9a73f" y="159.868125"/>
      </g>
     </g>
    </g>
    <g id="xtick_6">
     <g id="line2d_6">
      <g>
       <use style="stroke:#000000;stroke-width:0.8;" x="547.971404" xlink:href="#m549eb9a73f" y="159.868125"/>
      </g>
     </g>
    </g>
    <g id="xtick_7">
     <g id="line2d_7">
      <g>
       <use style="stroke:#000000;stroke-width:0.8;" x="642.588441" xlink:href="#m549eb9a73f" y="159.868125"/>
      </g>
     </g>
    </g>
   </g>
   <g id="matplotlib.axis_2">
    <g id="ytick_1">
     <g id="line2d_8">
      <defs>
       <path d="M 0 0
L -3.5 0
" id="m0aa03c70ff" style="stroke:#000000;stroke-width:0.8;"/>
      </defs>
      <g>
       <use style="stroke:#000000;stroke-width:0.8;" x="44.845313" xlink:href="#m0aa03c70ff" y="153.875656"/>
      </g>
     </g>
     <g id="text_1">
      <!-- −0.1 -->
      <defs>
       <path d="M 10.59375 35.5
L 73.1875 35.5
L 73.1875 27.203125
L 10.59375 27.203125
z
" id="DejaVuSans-8722"/>
       <path d="M 31.78125 66.40625
Q 24.171875 66.40625 20.328125 58.90625
Q 16.5 51.421875 16.5 36.375
Q 16.5 21.390625 20.328125 13.890625
Q 24.171875 6.390625 31.78125 6.390625
Q 39.453125 6.390625 43.28125 13.890625
Q 47.125 21.390625 47.125 36.375
Q 47.125 51.421875 43.28125 58.90625
Q 39.453125 66.40625 31.78125 66.40625
z
M 31.78125 74.21875
Q 44.046875 74.21875 50.515625 64.515625
Q 56.984375 54.828125 56.984375 36.375
Q 56.984375 17.96875 50.515625 8.265625
Q 44.046875 -1.421875 31.78125 -1.421875
Q 19.53125 -1.421875 13.0625 8.265625
Q 6.59375 17.96875 6.59375 36.375
Q 6.59375 54.828125 13.0625 64.515625
Q 19.53125 74.21875 31.78125 74.21875
z
" id="DejaVuSans-48"/>
       <path d="M 10.6875 12.40625
L 21 12.40625
L 21 0
L 10.6875 0
z
" id="DejaVuSans-46"/>
       <path d="M 12.40625 8.296875
L 28.515625 8.296875
L 28.515625 63.921875
L 10.984375 60.40625
L 10.984375 69.390625
L 28.421875 72.90625
L 38.28125 72.90625
L 38.28125 8.296875
L 54.390625 8.296875
L 54.390625 0
L 12.40625 0
z
" id="DejaVuSans-49"/>
      </defs>
      <g transform="translate(13.5625 157.674875)scale(0.1 -0.1)">
       <use xlink:href="#DejaVuSans-8722"/>
       <use x="83.789062" xlink:href="#DejaVuSans-48"/>
       <use x="147.412109" xlink:href="#DejaVuSans-46"/>
       <use x="179.199219" xlink:href="#DejaVuSans-49"/>
      </g>
     </g>
    </g>
    <g id="ytick_2">
     <g id="line2d_9">
      <g>
       <use style="stroke:#000000;stroke-width:0.8;" x="44.845313" xlink:href="#m0aa03c70ff" y="109.904071"/>
      </g>
     </g>
     <g id="text_2">
      <!-- 0.0 -->
      <g transform="translate(21.942188 113.70329)scale(0.1 -0.1)">
       <use xlink:href="#DejaVuSans-48"/>
       <use x="63.623047" xlink:href="#DejaVuSans-46"/>
       <use x="95.410156" xlink:href="#DejaVuSans-48"/>
      </g>
     </g>
    </g>
    <g id="ytick_3">
     <g id="line2d_10">
      <g>
       <use style="stroke:#000000;stroke-width:0.8;" x="44.845313" xlink:href="#m0aa03c70ff" y="65.932486"/>
      </g>
     </g>
     <g id="text_3">
      <!-- 0.1 -->
      <g transform="translate(21.942188 69.731705)scale(0.1 -0.1)">
       <use xlink:href="#DejaVuSans-48"/>
       <use x="63.623047" xlink:href="#DejaVuSans-46"/>
       <use x="95.410156" xlink:href="#DejaVuSans-49"/>
      </g>
     </g>
    </g>
   </g>
   <g id="line2d_11">
    <path clip-path="url(#p0325607d9c)" d="M 74.886222 112.144695
L 79.617073 115.850044
L 84.347925 120.270636
L 89.078777 120.553258
L 93.809629 122.506544
L 98.540481 126.686542
L 103.271333 125.679352
L 108.002184 123.862024
L 112.733036 126.925723
L 117.463888 122.682637
L 122.19474 120.54375
L 126.925592 125.029707
L 131.656443 126.587517
L 136.387295 125.560933
L 141.118147 123.03825
L 145.848999 124.76645
L 150.579851 128.317453
L 155.310703 129.882877
L 160.041554 132.587775
L 164.772406 131.855476
L 169.503258 131.807516
L 174.23411 134.710044
L 178.964962 134.062905
L 183.695814 132.072379
L 188.426665 134.01549
L 193.157517 138.41018
L 197.888369 134.003155
L 202.619221 138.484467
L 207.350073 135.507409
L 212.080925 137.160215
L 216.811776 133.62551
L 221.542628 134.708203
L 226.27348 133.943883
L 231.004332 130.913298
L 235.735184 133.35637
L 240.466035 136.224619
L 245.196887 140.403927
L 249.927739 144.012387
L 254.658591 146.492351
L 259.389443 143.827324
L 264.120295 147.994471
L 268.851146 146.648508
L 273.581998 144.176934
L 278.31285 144.248324
L 283.043702 146.892178
L 287.774554 145.014213
L 292.505406 141.066467
L 297.236257 138.527279
L 301.967109 136.29065
L 306.697961 138.858801
L 311.428813 143.657725
L 316.159665 146.686856
L 320.890517 149.88415
L 325.621368 150.938877
L 330.35222 151.771226
L 335.083072 149.693043
L 339.813924 146.072291
L 344.544776 147.623287
L 349.275627 148.142575
L 354.006479 148.797655
L 358.737331 151.079348
L 363.468183 151.208225
L 368.199035 153.615852
L 372.929887 151.617794
L 377.660738 151.126066
L 382.39159 148.234369
L 387.122442 147.223025
L 391.853294 144.744875
L 396.584146 146.956341
L 401.314998 145.515004
L 406.045849 141.619747
L 410.776701 142.219628
L 415.507553 141.939656
L 420.238405 138.696344
L 424.969257 139.159443
L 429.700108 139.759065
L 434.43096 137.595287
L 439.161812 140.102705
L 443.892664 136.186034
L 448.623516 136.114667
L 453.354368 131.284063
L 458.085219 129.319763
L 462.816071 129.331128
L 472.277775 122.102635
L 477.008627 121.083216
L 481.739479 116.378449
L 486.47033 114.466864
L 491.201182 110.663785
L 495.932034 104.519304
L 500.662886 99.672991
L 505.393738 94.162503
L 510.12459 89.849871
L 514.855441 84.562274
L 519.586293 80.35365
L 524.317145 76.332547
L 529.047997 73.114161
L 533.778849 71.75802
L 538.5097 66.543846
L 543.240552 62.237309
L 547.971404 61.401927
L 552.702256 61.129621
L 557.433108 56.760399
L 562.16396 54.50786
L 566.894811 53.902679
L 571.625663 51.468299
L 576.356515 51.897591
L 581.087367 50.621463
L 585.818219 54.212877
L 590.549071 54.292107
L 595.279922 54.225641
L 600.010774 56.645
L 604.741626 58.839246
L 609.472478 57.362245
L 614.20333 58.937697
L 618.934182 60.793656
L 623.665033 64.05327
L 628.395885 63.644136
L 633.126737 59.302037
L 642.588441 58.587062
L 647.319292 55.508452
L 652.050144 54.838043
L 656.780996 48.363784
L 661.511848 69.386266
L 666.2427 65.586309
L 670.973552 28.570398
L 675.704403 35.530337
L 675.704403 35.530337
" style="fill:none;stroke:#1f77b4;stroke-linecap:square;stroke-width:1.5;"/>
   </g>
   <g id="line2d_12">
    <path clip-path="url(#p0325607d9c)" d="M 346.940491 159.868125
L 346.940491 22.318125
" style="fill:none;stroke:#008000;stroke-dasharray:5.55,2.4;stroke-dashoffset:0;stroke-width:1.5;"/>
   </g>
   <g id="line2d_13">
    <path clip-path="url(#p0325607d9c)" d="M 419.315712 159.868125
L 419.315712 22.318125
" style="fill:none;stroke:#ff0000;stroke-linecap:square;stroke-width:1.5;"/>
   </g>
   <g id="patch_3">
    <path d="M 44.845313 159.868125
L 44.845313 22.318125
" style="fill:none;stroke:#000000;stroke-linecap:square;stroke-linejoin:miter;stroke-width:0.8;"/>
   </g>
   <g id="patch_4">
    <path d="M 705.745313 159.868125
L 705.745313 22.318125
" style="fill:none;stroke:#000000;stroke-linecap:square;stroke-linejoin:miter;stroke-width:0.8;"/>
   </g>
   <g id="patch_5">
    <path d="M 44.845313 159.868125
L 705.745313 159.868125
" style="fill:none;stroke:#000000;stroke-linecap:square;stroke-linejoin:miter;stroke-width:0.8;"/>
   </g>
   <g id="patch_6">
    <path d="M 44.845313 22.318125
L 705.745313 22.318125
" style="fill:none;stroke:#000000;stroke-linecap:square;stroke-linejoin:miter;stroke-width:0.8;"/>
   </g>
   <g id="text_4">
    <!-- Cumulative (from start) weights for blank space -->
    <defs>
     <path d="M 64.40625 67.28125
L 64.40625 56.890625
Q 59.421875 61.53125 53.78125 63.8125
Q 48.140625 66.109375 41.796875 66.109375
Q 29.296875 66.109375 22.65625 58.46875
Q 16.015625 50.828125 16.015625 36.375
Q 16.015625 21.96875 22.65625 14.328125
Q 29.296875 6.6875 41.796875 6.6875
Q 48.140625 6.6875 53.78125 8.984375
Q 59.421875 11.28125 64.40625 15.921875
L 64.40625 5.609375
Q 59.234375 2.09375 53.4375 0.328125
Q 47.65625 -1.421875 41.21875 -1.421875
Q 24.65625 -1.421875 15.125 8.703125
Q 5.609375 18.84375 5.609375 36.375
Q 5.609375 53.953125 15.125 64.078125
Q 24.65625 74.21875 41.21875 74.21875
Q 47.75 74.21875 53.53125 72.484375
Q 59.328125 70.75 64.40625 67.28125
z
" id="DejaVuSans-67"/>
     <path d="M 8.5 21.578125
L 8.5 54.6875
L 17.484375 54.6875
L 17.484375 21.921875
Q 17.484375 14.15625 20.5 10.265625
Q 23.53125 6.390625 29.59375 6.390625
Q 36.859375 6.390625 41.078125 11.03125
Q 45.3125 15.671875 45.3125 23.6875
L 45.3125 54.6875
L 54.296875 54.6875
L 54.296875 0
L 45.3125 0
L 45.3125 8.40625
Q 42.046875 3.421875 37.71875 1
Q 33.40625 -1.421875 27.6875 -1.421875
Q 18.265625 -1.421875 13.375 4.4375
Q 8.5 10.296875 8.5 21.578125
z
M 31.109375 56
z
" id="DejaVuSans-117"/>
     <path d="M 52 44.1875
Q 55.375 50.25 60.0625 53.125
Q 64.75 56 71.09375 56
Q 79.640625 56 84.28125 50.015625
Q 88.921875 44.046875 88.921875 33.015625
L 88.921875 0
L 79.890625 0
L 79.890625 32.71875
Q 79.890625 40.578125 77.09375 44.375
Q 74.3125 48.1875 68.609375 48.1875
Q 61.625 48.1875 57.5625 43.546875
Q 53.515625 38.921875 53.515625 30.90625
L 53.515625 0
L 44.484375 0
L 44.484375 32.71875
Q 44.484375 40.625 41.703125 44.40625
Q 38.921875 48.1875 33.109375 48.1875
Q 26.21875 48.1875 22.15625 43.53125
Q 18.109375 38.875 18.109375 30.90625
L 18.109375 0
L 9.078125 0
L 9.078125 54.6875
L 18.109375 54.6875
L 18.109375 46.1875
Q 21.1875 51.21875 25.484375 53.609375
Q 29.78125 56 35.6875 56
Q 41.65625 56 45.828125 52.96875
Q 50 49.953125 52 44.1875
z
" id="DejaVuSans-109"/>
     <path d="M 9.421875 75.984375
L 18.40625 75.984375
L 18.40625 0
L 9.421875 0
z
" id="DejaVuSans-108"/>
     <path d="M 34.28125 27.484375
Q 23.390625 27.484375 19.1875 25
Q 14.984375 22.515625 14.984375 16.5
Q 14.984375 11.71875 18.140625 8.90625
Q 21.296875 6.109375 26.703125 6.109375
Q 34.1875 6.109375 38.703125 11.40625
Q 43.21875 16.703125 43.21875 25.484375
L 43.21875 27.484375
z
M 52.203125 31.203125
L 52.203125 0
L 43.21875 0
L 43.21875 8.296875
Q 40.140625 3.328125 35.546875 0.953125
Q 30.953125 -1.421875 24.3125 -1.421875
Q 15.921875 -1.421875 10.953125 3.296875
Q 6 8.015625 6 15.921875
Q 6 25.140625 12.171875 29.828125
Q 18.359375 34.515625 30.609375 34.515625
L 43.21875 34.515625
L 43.21875 35.40625
Q 43.21875 41.609375 39.140625 45
Q 35.0625 48.390625 27.6875 48.390625
Q 23 48.390625 18.546875 47.265625
Q 14.109375 46.140625 10.015625 43.890625
L 10.015625 52.203125
Q 14.9375 54.109375 19.578125 55.046875
Q 24.21875 56 28.609375 56
Q 40.484375 56 46.34375 49.84375
Q 52.203125 43.703125 52.203125 31.203125
z
" id="DejaVuSans-97"/>
     <path d="M 18.3125 70.21875
L 18.3125 54.6875
L 36.8125 54.6875
L 36.8125 47.703125
L 18.3125 47.703125
L 18.3125 18.015625
Q 18.3125 11.328125 20.140625 9.421875
Q 21.96875 7.515625 27.59375 7.515625
L 36.8125 7.515625
L 36.8125 0
L 27.59375 0
Q 17.1875 0 13.234375 3.875
Q 9.28125 7.765625 9.28125 18.015625
L 9.28125 47.703125
L 2.6875 47.703125
L 2.6875 54.6875
L 9.28125 54.6875
L 9.28125 70.21875
z
" id="DejaVuSans-116"/>
     <path d="M 9.421875 54.6875
L 18.40625 54.6875
L 18.40625 0
L 9.421875 0
z
M 9.421875 75.984375
L 18.40625 75.984375
L 18.40625 64.59375
L 9.421875 64.59375
z
" id="DejaVuSans-105"/>
     <path d="M 2.984375 54.6875
L 12.5 54.6875
L 29.59375 8.796875
L 46.6875 54.6875
L 56.203125 54.6875
L 35.6875 0
L 23.484375 0
z
" id="DejaVuSans-118"/>
     <path d="M 56.203125 29.59375
L 56.203125 25.203125
L 14.890625 25.203125
Q 15.484375 15.921875 20.484375 11.0625
Q 25.484375 6.203125 34.421875 6.203125
Q 39.59375 6.203125 44.453125 7.46875
Q 49.3125 8.734375 54.109375 11.28125
L 54.109375 2.78125
Q 49.265625 0.734375 44.1875 -0.34375
Q 39.109375 -1.421875 33.890625 -1.421875
Q 20.796875 -1.421875 13.15625 6.1875
Q 5.515625 13.8125 5.515625 26.8125
Q 5.515625 40.234375 12.765625 48.109375
Q 20.015625 56 32.328125 56
Q 43.359375 56 49.78125 48.890625
Q 56.203125 41.796875 56.203125 29.59375
z
M 47.21875 32.234375
Q 47.125 39.59375 43.09375 43.984375
Q 39.0625 48.390625 32.421875 48.390625
Q 24.90625 48.390625 20.390625 44.140625
Q 15.875 39.890625 15.1875 32.171875
z
" id="DejaVuSans-101"/>
     <path id="DejaVuSans-32"/>
     <path d="M 31 75.875
Q 24.46875 64.65625 21.28125 53.65625
Q 18.109375 42.671875 18.109375 31.390625
Q 18.109375 20.125 21.3125 9.0625
Q 24.515625 -2 31 -13.1875
L 23.1875 -13.1875
Q 15.875 -1.703125 12.234375 9.375
Q 8.59375 20.453125 8.59375 31.390625
Q 8.59375 42.28125 12.203125 53.3125
Q 15.828125 64.359375 23.1875 75.875
z
" id="DejaVuSans-40"/>
     <path d="M 37.109375 75.984375
L 37.109375 68.5
L 28.515625 68.5
Q 23.6875 68.5 21.796875 66.546875
Q 19.921875 64.59375 19.921875 59.515625
L 19.921875 54.6875
L 34.71875 54.6875
L 34.71875 47.703125
L 19.921875 47.703125
L 19.921875 0
L 10.890625 0
L 10.890625 47.703125
L 2.296875 47.703125
L 2.296875 54.6875
L 10.890625 54.6875
L 10.890625 58.5
Q 10.890625 67.625 15.140625 71.796875
Q 19.390625 75.984375 28.609375 75.984375
z
" id="DejaVuSans-102"/>
     <path d="M 41.109375 46.296875
Q 39.59375 47.171875 37.8125 47.578125
Q 36.03125 48 33.890625 48
Q 26.265625 48 22.1875 43.046875
Q 18.109375 38.09375 18.109375 28.8125
L 18.109375 0
L 9.078125 0
L 9.078125 54.6875
L 18.109375 54.6875
L 18.109375 46.1875
Q 20.953125 51.171875 25.484375 53.578125
Q 30.03125 56 36.53125 56
Q 37.453125 56 38.578125 55.875
Q 39.703125 55.765625 41.0625 55.515625
z
" id="DejaVuSans-114"/>
     <path d="M 30.609375 48.390625
Q 23.390625 48.390625 19.1875 42.75
Q 14.984375 37.109375 14.984375 27.296875
Q 14.984375 17.484375 19.15625 11.84375
Q 23.34375 6.203125 30.609375 6.203125
Q 37.796875 6.203125 41.984375 11.859375
Q 46.1875 17.53125 46.1875 27.296875
Q 46.1875 37.015625 41.984375 42.703125
Q 37.796875 48.390625 30.609375 48.390625
z
M 30.609375 56
Q 42.328125 56 49.015625 48.375
Q 55.71875 40.765625 55.71875 27.296875
Q 55.71875 13.875 49.015625 6.21875
Q 42.328125 -1.421875 30.609375 -1.421875
Q 18.84375 -1.421875 12.171875 6.21875
Q 5.515625 13.875 5.515625 27.296875
Q 5.515625 40.765625 12.171875 48.375
Q 18.84375 56 30.609375 56
z
" id="DejaVuSans-111"/>
     <path d="M 44.28125 53.078125
L 44.28125 44.578125
Q 40.484375 46.53125 36.375 47.5
Q 32.28125 48.484375 27.875 48.484375
Q 21.1875 48.484375 17.84375 46.4375
Q 14.5 44.390625 14.5 40.28125
Q 14.5 37.15625 16.890625 35.375
Q 19.28125 33.59375 26.515625 31.984375
L 29.59375 31.296875
Q 39.15625 29.25 43.1875 25.515625
Q 47.21875 21.78125 47.21875 15.09375
Q 47.21875 7.46875 41.1875 3.015625
Q 35.15625 -1.421875 24.609375 -1.421875
Q 20.21875 -1.421875 15.453125 -0.5625
Q 10.6875 0.296875 5.421875 2
L 5.421875 11.28125
Q 10.40625 8.6875 15.234375 7.390625
Q 20.0625 6.109375 24.8125 6.109375
Q 31.15625 6.109375 34.5625 8.28125
Q 37.984375 10.453125 37.984375 14.40625
Q 37.984375 18.0625 35.515625 20.015625
Q 33.0625 21.96875 24.703125 23.78125
L 21.578125 24.515625
Q 13.234375 26.265625 9.515625 29.90625
Q 5.8125 33.546875 5.8125 39.890625
Q 5.8125 47.609375 11.28125 51.796875
Q 16.75 56 26.8125 56
Q 31.78125 56 36.171875 55.265625
Q 40.578125 54.546875 44.28125 53.078125
z
" id="DejaVuSans-115"/>
     <path d="M 8.015625 75.875
L 15.828125 75.875
Q 23.140625 64.359375 26.78125 53.3125
Q 30.421875 42.28125 30.421875 31.390625
Q 30.421875 20.453125 26.78125 9.375
Q 23.140625 -1.703125 15.828125 -13.1875
L 8.015625 -13.1875
Q 14.5 -2 17.703125 9.0625
Q 20.90625 20.125 20.90625 31.390625
Q 20.90625 42.671875 17.703125 53.65625
Q 14.5 64.65625 8.015625 75.875
z
" id="DejaVuSans-41"/>
     <path d="M 4.203125 54.6875
L 13.1875 54.6875
L 24.421875 12.015625
L 35.59375 54.6875
L 46.1875 54.6875
L 57.421875 12.015625
L 68.609375 54.6875
L 77.59375 54.6875
L 63.28125 0
L 52.6875 0
L 40.921875 44.828125
L 29.109375 0
L 18.5 0
z
" id="DejaVuSans-119"/>
     <path d="M 45.40625 27.984375
Q 45.40625 37.75 41.375 43.109375
Q 37.359375 48.484375 30.078125 48.484375
Q 22.859375 48.484375 18.828125 43.109375
Q 14.796875 37.75 14.796875 27.984375
Q 14.796875 18.265625 18.828125 12.890625
Q 22.859375 7.515625 30.078125 7.515625
Q 37.359375 7.515625 41.375 12.890625
Q 45.40625 18.265625 45.40625 27.984375
z
M 54.390625 6.78125
Q 54.390625 -7.171875 48.1875 -13.984375
Q 42 -20.796875 29.203125 -20.796875
Q 24.46875 -20.796875 20.265625 -20.09375
Q 16.0625 -19.390625 12.109375 -17.921875
L 12.109375 -9.1875
Q 16.0625 -11.328125 19.921875 -12.34375
Q 23.78125 -13.375 27.78125 -13.375
Q 36.625 -13.375 41.015625 -8.765625
Q 45.40625 -4.15625 45.40625 5.171875
L 45.40625 9.625
Q 42.625 4.78125 38.28125 2.390625
Q 33.9375 0 27.875 0
Q 17.828125 0 11.671875 7.65625
Q 5.515625 15.328125 5.515625 27.984375
Q 5.515625 40.671875 11.671875 48.328125
Q 17.828125 56 27.875 56
Q 33.9375 56 38.28125 53.609375
Q 42.625 51.21875 45.40625 46.390625
L 45.40625 54.6875
L 54.390625 54.6875
z
" id="DejaVuSans-103"/>
     <path d="M 54.890625 33.015625
L 54.890625 0
L 45.90625 0
L 45.90625 32.71875
Q 45.90625 40.484375 42.875 44.328125
Q 39.84375 48.1875 33.796875 48.1875
Q 26.515625 48.1875 22.3125 43.546875
Q 18.109375 38.921875 18.109375 30.90625
L 18.109375 0
L 9.078125 0
L 9.078125 75.984375
L 18.109375 75.984375
L 18.109375 46.1875
Q 21.34375 51.125 25.703125 53.5625
Q 30.078125 56 35.796875 56
Q 45.21875 56 50.046875 50.171875
Q 54.890625 44.34375 54.890625 33.015625
z
" id="DejaVuSans-104"/>
     <path d="M 48.6875 27.296875
Q 48.6875 37.203125 44.609375 42.84375
Q 40.53125 48.484375 33.40625 48.484375
Q 26.265625 48.484375 22.1875 42.84375
Q 18.109375 37.203125 18.109375 27.296875
Q 18.109375 17.390625 22.1875 11.75
Q 26.265625 6.109375 33.40625 6.109375
Q 40.53125 6.109375 44.609375 11.75
Q 48.6875 17.390625 48.6875 27.296875
z
M 18.109375 46.390625
Q 20.953125 51.265625 25.265625 53.625
Q 29.59375 56 35.59375 56
Q 45.5625 56 51.78125 48.09375
Q 58.015625 40.1875 58.015625 27.296875
Q 58.015625 14.40625 51.78125 6.484375
Q 45.5625 -1.421875 35.59375 -1.421875
Q 29.59375 -1.421875 25.265625 0.953125
Q 20.953125 3.328125 18.109375 8.203125
L 18.109375 0
L 9.078125 0
L 9.078125 75.984375
L 18.109375 75.984375
z
" id="DejaVuSans-98"/>
     <path d="M 54.890625 33.015625
L 54.890625 0
L 45.90625 0
L 45.90625 32.71875
Q 45.90625 40.484375 42.875 44.328125
Q 39.84375 48.1875 33.796875 48.1875
Q 26.515625 48.1875 22.3125 43.546875
Q 18.109375 38.921875 18.109375 30.90625
L 18.109375 0
L 9.078125 0
L 9.078125 54.6875
L 18.109375 54.6875
L 18.109375 46.1875
Q 21.34375 51.125 25.703125 53.5625
Q 30.078125 56 35.796875 56
Q 45.21875 56 50.046875 50.171875
Q 54.890625 44.34375 54.890625 33.015625
z
" id="DejaVuSans-110"/>
     <path d="M 9.078125 75.984375
L 18.109375 75.984375
L 18.109375 31.109375
L 44.921875 54.6875
L 56.390625 54.6875
L 27.390625 29.109375
L 57.625 0
L 45.90625 0
L 18.109375 26.703125
L 18.109375 0
L 9.078125 0
z
" id="DejaVuSans-107"/>
     <path d="M 18.109375 8.203125
L 18.109375 -20.796875
L 9.078125 -20.796875
L 9.078125 54.6875
L 18.109375 54.6875
L 18.109375 46.390625
Q 20.953125 51.265625 25.265625 53.625
Q 29.59375 56 35.59375 56
Q 45.5625 56 51.78125 48.09375
Q 58.015625 40.1875 58.015625 27.296875
Q 58.015625 14.40625 51.78125 6.484375
Q 45.5625 -1.421875 35.59375 -1.421875
Q 29.59375 -1.421875 25.265625 0.953125
Q 20.953125 3.328125 18.109375 8.203125
z
M 48.6875 27.296875
Q 48.6875 37.203125 44.609375 42.84375
Q 40.53125 48.484375 33.40625 48.484375
Q 26.265625 48.484375 22.1875 42.84375
Q 18.109375 37.203125 18.109375 27.296875
Q 18.109375 17.390625 22.1875 11.75
Q 26.265625 6.109375 33.40625 6.109375
Q 40.53125 6.109375 44.609375 11.75
Q 48.6875 17.390625 48.6875 27.296875
z
" id="DejaVuSans-112"/>
     <path d="M 48.78125 52.59375
L 48.78125 44.1875
Q 44.96875 46.296875 41.140625 47.34375
Q 37.3125 48.390625 33.40625 48.390625
Q 24.65625 48.390625 19.8125 42.84375
Q 14.984375 37.3125 14.984375 27.296875
Q 14.984375 17.28125 19.8125 11.734375
Q 24.65625 6.203125 33.40625 6.203125
Q 37.3125 6.203125 41.140625 7.25
Q 44.96875 8.296875 48.78125 10.40625
L 48.78125 2.09375
Q 45.015625 0.34375 40.984375 -0.53125
Q 36.96875 -1.421875 32.421875 -1.421875
Q 20.0625 -1.421875 12.78125 6.34375
Q 5.515625 14.109375 5.515625 27.296875
Q 5.515625 40.671875 12.859375 48.328125
Q 20.21875 56 33.015625 56
Q 37.15625 56 41.109375 55.140625
Q 45.0625 54.296875 48.78125 52.59375
z
" id="DejaVuSans-99"/>
    </defs>
    <g transform="translate(231.357188 16.318125)scale(0.12 -0.12)">
     <use xlink:href="#DejaVuSans-67"/>
     <use x="69.824219" xlink:href="#DejaVuSans-117"/>
     <use x="133.203125" xlink:href="#DejaVuSans-109"/>
     <use x="230.615234" xlink:href="#DejaVuSans-117"/>
     <use x="293.994141" xlink:href="#DejaVuSans-108"/>
     <use x="321.777344" xlink:href="#DejaVuSans-97"/>
     <use x="383.056641" xlink:href="#DejaVuSans-116"/>
     <use x="422.265625" xlink:href="#DejaVuSans-105"/>
     <use x="450.048828" xlink:href="#DejaVuSans-118"/>
     <use x="509.228516" xlink:href="#DejaVuSans-101"/>
     <use x="570.751953" xlink:href="#DejaVuSans-32"/>
     <use x="602.539062" xlink:href="#DejaVuSans-40"/>
     <use x="641.552734" xlink:href="#DejaVuSans-102"/>
     <use x="676.757812" xlink:href="#DejaVuSans-114"/>
     <use x="715.621094" xlink:href="#DejaVuSans-111"/>
     <use x="776.802734" xlink:href="#DejaVuSans-109"/>
     <use x="874.214844" xlink:href="#DejaVuSans-32"/>
     <use x="906.001953" xlink:href="#DejaVuSans-115"/>
     <use x="958.101562" xlink:href="#DejaVuSans-116"/>
     <use x="997.310547" xlink:href="#DejaVuSans-97"/>
     <use x="1058.589844" xlink:href="#DejaVuSans-114"/>
     <use x="1099.703125" xlink:href="#DejaVuSans-116"/>
     <use x="1138.912109" xlink:href="#DejaVuSans-41"/>
     <use x="1177.925781" xlink:href="#DejaVuSans-32"/>
     <use x="1209.712891" xlink:href="#DejaVuSans-119"/>
     <use x="1291.5" xlink:href="#DejaVuSans-101"/>
     <use x="1353.023438" xlink:href="#DejaVuSans-105"/>
     <use x="1380.806641" xlink:href="#DejaVuSans-103"/>
     <use x="1444.283203" xlink:href="#DejaVuSans-104"/>
     <use x="1507.662109" xlink:href="#DejaVuSans-116"/>
     <use x="1546.871094" xlink:href="#DejaVuSans-115"/>
     <use x="1598.970703" xlink:href="#DejaVuSans-32"/>
     <use x="1630.757812" xlink:href="#DejaVuSans-102"/>
     <use x="1665.962891" xlink:href="#DejaVuSans-111"/>
     <use x="1727.144531" xlink:href="#DejaVuSans-114"/>
     <use x="1768.257812" xlink:href="#DejaVuSans-32"/>
     <use x="1800.044922" xlink:href="#DejaVuSans-98"/>
     <use x="1863.521484" xlink:href="#DejaVuSans-108"/>
     <use x="1891.304688" xlink:href="#DejaVuSans-97"/>
     <use x="1952.583984" xlink:href="#DejaVuSans-110"/>
     <use x="2015.962891" xlink:href="#DejaVuSans-107"/>
     <use x="2073.873047" xlink:href="#DejaVuSans-32"/>
     <use x="2105.660156" xlink:href="#DejaVuSans-115"/>
     <use x="2157.759766" xlink:href="#DejaVuSans-112"/>
     <use x="2221.236328" xlink:href="#DejaVuSans-97"/>
     <use x="2282.515625" xlink:href="#DejaVuSans-99"/>
     <use x="2337.496094" xlink:href="#DejaVuSans-101"/>
    </g>
   </g>
   <g id="legend_1">
    <g id="patch_7">
     <path d="M 51.845313 59.674375
L 166.704688 59.674375
Q 168.704688 59.674375 168.704688 57.674375
L 168.704688 29.318125
Q 168.704688 27.318125 166.704688 27.318125
L 51.845313 27.318125
Q 49.845313 27.318125 49.845313 29.318125
L 49.845313 57.674375
Q 49.845313 59.674375 51.845313 59.674375
z
" style="fill:#ffffff;opacity:0.8;stroke:#cccccc;stroke-linejoin:miter;"/>
    </g>
    <g id="line2d_14">
     <path d="M 53.845313 35.416562
L 73.845313 35.416562
" style="fill:none;stroke:#008000;stroke-dasharray:5.55,2.4;stroke-dashoffset:0;stroke-width:1.5;"/>
    </g>
    <g id="line2d_15"/>
    <g id="text_5">
     <!-- arxiv mean start -->
     <defs>
      <path d="M 54.890625 54.6875
L 35.109375 28.078125
L 55.90625 0
L 45.3125 0
L 29.390625 21.484375
L 13.484375 0
L 2.875 0
L 24.125 28.609375
L 4.6875 54.6875
L 15.28125 54.6875
L 29.78125 35.203125
L 44.28125 54.6875
z
" id="DejaVuSans-120"/>
     </defs>
     <g transform="translate(81.845313 38.916562)scale(0.1 -0.1)">
      <use xlink:href="#DejaVuSans-97"/>
      <use x="61.279297" xlink:href="#DejaVuSans-114"/>
      <use x="99.767578" xlink:href="#DejaVuSans-120"/>
      <use x="158.947266" xlink:href="#DejaVuSans-105"/>
      <use x="186.730469" xlink:href="#DejaVuSans-118"/>
      <use x="245.910156" xlink:href="#DejaVuSans-32"/>
      <use x="277.697266" xlink:href="#DejaVuSans-109"/>
      <use x="375.109375" xlink:href="#DejaVuSans-101"/>
      <use x="436.632812" xlink:href="#DejaVuSans-97"/>
      <use x="497.912109" xlink:href="#DejaVuSans-110"/>
      <use x="561.291016" xlink:href="#DejaVuSans-32"/>
      <use x="593.078125" xlink:href="#DejaVuSans-115"/>
      <use x="645.177734" xlink:href="#DejaVuSans-116"/>
      <use x="684.386719" xlink:href="#DejaVuSans-97"/>
      <use x="745.666016" xlink:href="#DejaVuSans-114"/>
      <use x="786.779297" xlink:href="#DejaVuSans-116"/>
     </g>
    </g>
    <g id="line2d_16">
     <path d="M 53.845313 50.094687
L 73.845313 50.094687
" style="fill:none;stroke:#ff0000;stroke-linecap:square;stroke-width:1.5;"/>
    </g>
    <g id="line2d_17"/>
    <g id="text_6">
     <!-- vixra mean start -->
     <g transform="translate(81.845313 53.594687)scale(0.1 -0.1)">
      <use xlink:href="#DejaVuSans-118"/>
      <use x="59.179688" xlink:href="#DejaVuSans-105"/>
      <use x="86.962891" xlink:href="#DejaVuSans-120"/>
      <use x="146.142578" xlink:href="#DejaVuSans-114"/>
      <use x="187.255859" xlink:href="#DejaVuSans-97"/>
      <use x="248.535156" xlink:href="#DejaVuSans-32"/>
      <use x="280.322266" xlink:href="#DejaVuSans-109"/>
      <use x="377.734375" xlink:href="#DejaVuSans-101"/>
      <use x="439.257812" xlink:href="#DejaVuSans-97"/>
      <use x="500.537109" xlink:href="#DejaVuSans-110"/>
      <use x="563.916016" xlink:href="#DejaVuSans-32"/>
      <use x="595.703125" xlink:href="#DejaVuSans-115"/>
      <use x="647.802734" xlink:href="#DejaVuSans-116"/>
      <use x="687.011719" xlink:href="#DejaVuSans-97"/>
      <use x="748.291016" xlink:href="#DejaVuSans-114"/>
      <use x="789.404297" xlink:href="#DejaVuSans-116"/>
     </g>
    </g>
   </g>
  </g>
  <g id="axes_2">
   <g id="patch_8">
    <path d="M 44.845313 327.718125
L 705.745313 327.718125
L 705.745313 190.168125
L 44.845313 190.168125
z
" style="fill:#ffffff;"/>
   </g>
   <g id="matplotlib.axis_3">
    <g id="xtick_8">
     <g id="line2d_18">
      <g>
       <use style="stroke:#000000;stroke-width:0.8;" x="74.886222" xlink:href="#m549eb9a73f" y="327.718125"/>
      </g>
     </g>
     <g id="text_7">
      <!-- 0 -->
      <g transform="translate(71.704972 342.316562)scale(0.1 -0.1)">
       <use xlink:href="#DejaVuSans-48"/>
      </g>
     </g>
    </g>
    <g id="xtick_9">
     <g id="line2d_19">
      <g>
       <use style="stroke:#000000;stroke-width:0.8;" x="169.503258" xlink:href="#m549eb9a73f" y="327.718125"/>
      </g>
     </g>
     <g id="text_8">
      <!-- 20 -->
      <defs>
       <path d="M 19.1875 8.296875
L 53.609375 8.296875
L 53.609375 0
L 7.328125 0
L 7.328125 8.296875
Q 12.9375 14.109375 22.625 23.890625
Q 32.328125 33.6875 34.8125 36.53125
Q 39.546875 41.84375 41.421875 45.53125
Q 43.3125 49.21875 43.3125 52.78125
Q 43.3125 58.59375 39.234375 62.25
Q 35.15625 65.921875 28.609375 65.921875
Q 23.96875 65.921875 18.8125 64.3125
Q 13.671875 62.703125 7.8125 59.421875
L 7.8125 69.390625
Q 13.765625 71.78125 18.9375 73
Q 24.125 74.21875 28.421875 74.21875
Q 39.75 74.21875 46.484375 68.546875
Q 53.21875 62.890625 53.21875 53.421875
Q 53.21875 48.921875 51.53125 44.890625
Q 49.859375 40.875 45.40625 35.40625
Q 44.1875 33.984375 37.640625 27.21875
Q 31.109375 20.453125 19.1875 8.296875
z
" id="DejaVuSans-50"/>
      </defs>
      <g transform="translate(163.140758 342.316562)scale(0.1 -0.1)">
       <use xlink:href="#DejaVuSans-50"/>
       <use x="63.623047" xlink:href="#DejaVuSans-48"/>
      </g>
     </g>
    </g>
    <g id="xtick_10">
     <g id="line2d_20">
      <g>
       <use style="stroke:#000000;stroke-width:0.8;" x="264.120295" xlink:href="#m549eb9a73f" y="327.718125"/>
      </g>
     </g>
     <g id="text_9">
      <!-- 40 -->
      <defs>
       <path d="M 37.796875 64.3125
L 12.890625 25.390625
L 37.796875 25.390625
z
M 35.203125 72.90625
L 47.609375 72.90625
L 47.609375 25.390625
L 58.015625 25.390625
L 58.015625 17.1875
L 47.609375 17.1875
L 47.609375 0
L 37.796875 0
L 37.796875 17.1875
L 4.890625 17.1875
L 4.890625 26.703125
z
" id="DejaVuSans-52"/>
      </defs>
      <g transform="translate(257.757795 342.316562)scale(0.1 -0.1)">
       <use xlink:href="#DejaVuSans-52"/>
       <use x="63.623047" xlink:href="#DejaVuSans-48"/>
      </g>
     </g>
    </g>
    <g id="xtick_11">
     <g id="line2d_21">
      <g>
       <use style="stroke:#000000;stroke-width:0.8;" x="358.737331" xlink:href="#m549eb9a73f" y="327.718125"/>
      </g>
     </g>
     <g id="text_10">
      <!-- 60 -->
      <defs>
       <path d="M 33.015625 40.375
Q 26.375 40.375 22.484375 35.828125
Q 18.609375 31.296875 18.609375 23.390625
Q 18.609375 15.53125 22.484375 10.953125
Q 26.375 6.390625 33.015625 6.390625
Q 39.65625 6.390625 43.53125 10.953125
Q 47.40625 15.53125 47.40625 23.390625
Q 47.40625 31.296875 43.53125 35.828125
Q 39.65625 40.375 33.015625 40.375
z
M 52.59375 71.296875
L 52.59375 62.3125
Q 48.875 64.0625 45.09375 64.984375
Q 41.3125 65.921875 37.59375 65.921875
Q 27.828125 65.921875 22.671875 59.328125
Q 17.53125 52.734375 16.796875 39.40625
Q 19.671875 43.65625 24.015625 45.921875
Q 28.375 48.1875 33.59375 48.1875
Q 44.578125 48.1875 50.953125 41.515625
Q 57.328125 34.859375 57.328125 23.390625
Q 57.328125 12.15625 50.6875 5.359375
Q 44.046875 -1.421875 33.015625 -1.421875
Q 20.359375 -1.421875 13.671875 8.265625
Q 6.984375 17.96875 6.984375 36.375
Q 6.984375 53.65625 15.1875 63.9375
Q 23.390625 74.21875 37.203125 74.21875
Q 40.921875 74.21875 44.703125 73.484375
Q 48.484375 72.75 52.59375 71.296875
z
" id="DejaVuSans-54"/>
      </defs>
      <g transform="translate(352.374831 342.316562)scale(0.1 -0.1)">
       <use xlink:href="#DejaVuSans-54"/>
       <use x="63.623047" xlink:href="#DejaVuSans-48"/>
      </g>
     </g>
    </g>
    <g id="xtick_12">
     <g id="line2d_22">
      <g>
       <use style="stroke:#000000;stroke-width:0.8;" x="453.354368" xlink:href="#m549eb9a73f" y="327.718125"/>
      </g>
     </g>
     <g id="text_11">
      <!-- 80 -->
      <defs>
       <path d="M 31.78125 34.625
Q 24.75 34.625 20.71875 30.859375
Q 16.703125 27.09375 16.703125 20.515625
Q 16.703125 13.921875 20.71875 10.15625
Q 24.75 6.390625 31.78125 6.390625
Q 38.8125 6.390625 42.859375 10.171875
Q 46.921875 13.96875 46.921875 20.515625
Q 46.921875 27.09375 42.890625 30.859375
Q 38.875 34.625 31.78125 34.625
z
M 21.921875 38.8125
Q 15.578125 40.375 12.03125 44.71875
Q 8.5 49.078125 8.5 55.328125
Q 8.5 64.0625 14.71875 69.140625
Q 20.953125 74.21875 31.78125 74.21875
Q 42.671875 74.21875 48.875 69.140625
Q 55.078125 64.0625 55.078125 55.328125
Q 55.078125 49.078125 51.53125 44.71875
Q 48 40.375 41.703125 38.8125
Q 48.828125 37.15625 52.796875 32.3125
Q 56.78125 27.484375 56.78125 20.515625
Q 56.78125 9.90625 50.3125 4.234375
Q 43.84375 -1.421875 31.78125 -1.421875
Q 19.734375 -1.421875 13.25 4.234375
Q 6.78125 9.90625 6.78125 20.515625
Q 6.78125 27.484375 10.78125 32.3125
Q 14.796875 37.15625 21.921875 38.8125
z
M 18.3125 54.390625
Q 18.3125 48.734375 21.84375 45.5625
Q 25.390625 42.390625 31.78125 42.390625
Q 38.140625 42.390625 41.71875 45.5625
Q 45.3125 48.734375 45.3125 54.390625
Q 45.3125 60.0625 41.71875 63.234375
Q 38.140625 66.40625 31.78125 66.40625
Q 25.390625 66.40625 21.84375 63.234375
Q 18.3125 60.0625 18.3125 54.390625
z
" id="DejaVuSans-56"/>
      </defs>
      <g transform="translate(446.991868 342.316562)scale(0.1 -0.1)">
       <use xlink:href="#DejaVuSans-56"/>
       <use x="63.623047" xlink:href="#DejaVuSans-48"/>
      </g>
     </g>
    </g>
    <g id="xtick_13">
     <g id="line2d_23">
      <g>
       <use style="stroke:#000000;stroke-width:0.8;" x="547.971404" xlink:href="#m549eb9a73f" y="327.718125"/>
      </g>
     </g>
     <g id="text_12">
      <!-- 100 -->
      <g transform="translate(538.427654 342.316562)scale(0.1 -0.1)">
       <use xlink:href="#DejaVuSans-49"/>
       <use x="63.623047" xlink:href="#DejaVuSans-48"/>
       <use x="127.246094" xlink:href="#DejaVuSans-48"/>
      </g>
     </g>
    </g>
    <g id="xtick_14">
     <g id="line2d_24">
      <g>
       <use style="stroke:#000000;stroke-width:0.8;" x="642.588441" xlink:href="#m549eb9a73f" y="327.718125"/>
      </g>
     </g>
     <g id="text_13">
      <!-- 120 -->
      <g transform="translate(633.044691 342.316562)scale(0.1 -0.1)">
       <use xlink:href="#DejaVuSans-49"/>
       <use x="63.623047" xlink:href="#DejaVuSans-50"/>
       <use x="127.246094" xlink:href="#DejaVuSans-48"/>
      </g>
     </g>
    </g>
   </g>
   <g id="matplotlib.axis_4">
    <g id="ytick_4">
     <g id="line2d_25">
      <g>
       <use style="stroke:#000000;stroke-width:0.8;" x="44.845313" xlink:href="#m0aa03c70ff" y="318.319774"/>
      </g>
     </g>
     <g id="text_14">
      <!-- −0.10 -->
      <g transform="translate(7.2 322.118993)scale(0.1 -0.1)">
       <use xlink:href="#DejaVuSans-8722"/>
       <use x="83.789062" xlink:href="#DejaVuSans-48"/>
       <use x="147.412109" xlink:href="#DejaVuSans-46"/>
       <use x="179.199219" xlink:href="#DejaVuSans-49"/>
       <use x="242.822266" xlink:href="#DejaVuSans-48"/>
      </g>
     </g>
    </g>
    <g id="ytick_5">
     <g id="line2d_26">
      <g>
       <use style="stroke:#000000;stroke-width:0.8;" x="44.845313" xlink:href="#m0aa03c70ff" y="294.558565"/>
      </g>
     </g>
     <g id="text_15">
      <!-- −0.08 -->
      <g transform="translate(7.2 298.357784)scale(0.1 -0.1)">
       <use xlink:href="#DejaVuSans-8722"/>
       <use x="83.789062" xlink:href="#DejaVuSans-48"/>
       <use x="147.412109" xlink:href="#DejaVuSans-46"/>
       <use x="179.199219" xlink:href="#DejaVuSans-48"/>
       <use x="242.822266" xlink:href="#DejaVuSans-56"/>
      </g>
     </g>
    </g>
    <g id="ytick_6">
     <g id="line2d_27">
      <g>
       <use style="stroke:#000000;stroke-width:0.8;" x="44.845313" xlink:href="#m0aa03c70ff" y="270.797356"/>
      </g>
     </g>
     <g id="text_16">
      <!-- −0.06 -->
      <g transform="translate(7.2 274.596575)scale(0.1 -0.1)">
       <use xlink:href="#DejaVuSans-8722"/>
       <use x="83.789062" xlink:href="#DejaVuSans-48"/>
       <use x="147.412109" xlink:href="#DejaVuSans-46"/>
       <use x="179.199219" xlink:href="#DejaVuSans-48"/>
       <use x="242.822266" xlink:href="#DejaVuSans-54"/>
      </g>
     </g>
    </g>
    <g id="ytick_7">
     <g id="line2d_28">
      <g>
       <use style="stroke:#000000;stroke-width:0.8;" x="44.845313" xlink:href="#m0aa03c70ff" y="247.036147"/>
      </g>
     </g>
     <g id="text_17">
      <!-- −0.04 -->
      <g transform="translate(7.2 250.835366)scale(0.1 -0.1)">
       <use xlink:href="#DejaVuSans-8722"/>
       <use x="83.789062" xlink:href="#DejaVuSans-48"/>
       <use x="147.412109" xlink:href="#DejaVuSans-46"/>
       <use x="179.199219" xlink:href="#DejaVuSans-48"/>
       <use x="242.822266" xlink:href="#DejaVuSans-52"/>
      </g>
     </g>
    </g>
    <g id="ytick_8">
     <g id="line2d_29">
      <g>
       <use style="stroke:#000000;stroke-width:0.8;" x="44.845313" xlink:href="#m0aa03c70ff" y="223.274938"/>
      </g>
     </g>
     <g id="text_18">
      <!-- −0.02 -->
      <g transform="translate(7.2 227.074157)scale(0.1 -0.1)">
       <use xlink:href="#DejaVuSans-8722"/>
       <use x="83.789062" xlink:href="#DejaVuSans-48"/>
       <use x="147.412109" xlink:href="#DejaVuSans-46"/>
       <use x="179.199219" xlink:href="#DejaVuSans-48"/>
       <use x="242.822266" xlink:href="#DejaVuSans-50"/>
      </g>
     </g>
    </g>
    <g id="ytick_9">
     <g id="line2d_30">
      <g>
       <use style="stroke:#000000;stroke-width:0.8;" x="44.845313" xlink:href="#m0aa03c70ff" y="199.51373"/>
      </g>
     </g>
     <g id="text_19">
      <!-- 0.00 -->
      <g transform="translate(15.579688 203.312948)scale(0.1 -0.1)">
       <use xlink:href="#DejaVuSans-48"/>
       <use x="63.623047" xlink:href="#DejaVuSans-46"/>
       <use x="95.410156" xlink:href="#DejaVuSans-48"/>
       <use x="159.033203" xlink:href="#DejaVuSans-48"/>
      </g>
     </g>
    </g>
   </g>
   <g id="line2d_31">
    <path clip-path="url(#pa70b3f6f1a)" d="M 74.886222 308.036638
L 84.347925 306.661503
L 89.078777 307.269715
L 93.809629 306.912591
L 98.540481 305.988381
L 103.271333 306.879123
L 108.002184 306.761944
L 112.733036 306.054318
L 117.463888 305.943051
L 122.19474 306.506111
L 126.925592 306.476634
L 131.656443 306.653696
L 136.387295 306.40567
L 141.118147 308.086288
L 145.848999 309.915075
L 150.579851 311.237631
L 155.310703 310.995067
L 160.041554 309.489696
L 164.772406 312.05516
L 169.503258 312.808257
L 174.23411 314.656492
L 178.964962 315.993866
L 183.695814 316.314281
L 188.426665 316.37673
L 193.157517 316.327603
L 197.888369 317.12202
L 202.619221 317.383465
L 207.350073 319.308719
L 212.080925 319.700284
L 216.811776 319.168808
L 221.542628 318.223832
L 226.27348 319.285315
L 231.004332 318.921729
L 235.735184 320.014432
L 240.466035 321.465852
L 245.196887 319.145793
L 249.927739 317.077806
L 254.658591 317.505575
L 259.389443 317.483047
L 264.120295 317.950304
L 268.851146 314.805378
L 273.581998 317.863371
L 278.31285 317.413835
L 283.043702 316.000443
L 287.774554 315.29696
L 292.505406 315.760888
L 297.236257 316.457007
L 301.967109 318.275685
L 306.697961 321.018981
L 311.428813 318.816314
L 316.159665 320.465198
L 320.890517 319.116193
L 325.621368 318.56581
L 330.35222 317.613371
L 335.083072 315.099991
L 344.544776 310.821396
L 349.275627 307.875183
L 354.006479 302.420466
L 358.737331 302.026811
L 363.468183 299.01329
L 368.199035 296.161542
L 372.929887 292.660458
L 377.660738 293.332411
L 382.39159 293.293614
L 387.122442 291.829518
L 391.853294 290.595559
L 396.584146 290.034757
L 401.314998 289.741747
L 410.776701 292.313461
L 415.507553 290.871043
L 424.969257 288.469902
L 429.700108 287.778723
L 434.43096 285.190855
L 439.161812 282.110865
L 443.892664 277.57542
L 448.623516 277.505225
L 453.354368 275.497066
L 458.085219 274.583912
L 462.816071 271.773463
L 467.546923 271.220693
L 472.277775 268.616666
L 477.008627 267.193395
L 481.739479 263.972096
L 486.47033 263.45434
L 491.201182 260.303263
L 495.932034 256.424802
L 500.662886 254.895513
L 505.393738 252.313863
L 510.12459 247.473551
L 514.855441 245.810627
L 519.586293 242.719361
L 524.317145 237.593402
L 529.047997 237.150762
L 533.778849 232.682959
L 538.5097 228.45913
L 543.240552 225.854928
L 547.971404 223.946568
L 552.702256 223.134496
L 557.433108 220.270799
L 562.16396 217.811131
L 566.894811 213.953074
L 571.625663 211.54173
L 576.356515 210.40477
L 581.087367 206.874366
L 585.818219 204.582841
L 590.549071 202.462087
L 595.279922 201.229703
L 600.010774 198.953192
L 604.741626 198.609213
L 609.472478 196.64303
L 614.20333 196.620209
L 618.934182 197.754835
L 623.665033 197.516545
L 628.395885 196.420398
L 633.126737 198.243674
L 637.857589 197.291173
L 642.588441 197.479879
L 647.319292 198.892996
L 652.050144 198.233791
L 656.780996 200.293928
L 661.511848 199.526951
L 666.2427 199.629293
L 670.973552 201.193254
L 675.704403 196.650338
L 675.704403 196.650338
" style="fill:none;stroke:#1f77b4;stroke-linecap:square;stroke-width:1.5;"/>
   </g>
   <g id="line2d_32">
    <path clip-path="url(#pa70b3f6f1a)" d="M 346.940491 327.718125
L 346.940491 190.168125
" style="fill:none;stroke:#008000;stroke-dasharray:5.55,2.4;stroke-dashoffset:0;stroke-width:1.5;"/>
   </g>
   <g id="line2d_33">
    <path clip-path="url(#pa70b3f6f1a)" d="M 419.315712 327.718125
L 419.315712 190.168125
" style="fill:none;stroke:#ff0000;stroke-linecap:square;stroke-width:1.5;"/>
   </g>
   <g id="patch_9">
    <path d="M 44.845313 327.718125
L 44.845313 190.168125
" style="fill:none;stroke:#000000;stroke-linecap:square;stroke-linejoin:miter;stroke-width:0.8;"/>
   </g>
   <g id="patch_10">
    <path d="M 705.745313 327.718125
L 705.745313 190.168125
" style="fill:none;stroke:#000000;stroke-linecap:square;stroke-linejoin:miter;stroke-width:0.8;"/>
   </g>
   <g id="patch_11">
    <path d="M 44.845313 327.718125
L 705.745313 327.718125
" style="fill:none;stroke:#000000;stroke-linecap:square;stroke-linejoin:miter;stroke-width:0.8;"/>
   </g>
   <g id="patch_12">
    <path d="M 44.845313 190.168125
L 705.745313 190.168125
" style="fill:none;stroke:#000000;stroke-linecap:square;stroke-linejoin:miter;stroke-width:0.8;"/>
   </g>
   <g id="text_20">
    <!-- Cumulative (from end) average weights for non-blank space -->
    <defs>
     <path d="M 45.40625 46.390625
L 45.40625 75.984375
L 54.390625 75.984375
L 54.390625 0
L 45.40625 0
L 45.40625 8.203125
Q 42.578125 3.328125 38.25 0.953125
Q 33.9375 -1.421875 27.875 -1.421875
Q 17.96875 -1.421875 11.734375 6.484375
Q 5.515625 14.40625 5.515625 27.296875
Q 5.515625 40.1875 11.734375 48.09375
Q 17.96875 56 27.875 56
Q 33.9375 56 38.25 53.625
Q 42.578125 51.265625 45.40625 46.390625
z
M 14.796875 27.296875
Q 14.796875 17.390625 18.875 11.75
Q 22.953125 6.109375 30.078125 6.109375
Q 37.203125 6.109375 41.296875 11.75
Q 45.40625 17.390625 45.40625 27.296875
Q 45.40625 37.203125 41.296875 42.84375
Q 37.203125 48.484375 30.078125 48.484375
Q 22.953125 48.484375 18.875 42.84375
Q 14.796875 37.203125 14.796875 27.296875
z
" id="DejaVuSans-100"/>
     <path d="M 4.890625 31.390625
L 31.203125 31.390625
L 31.203125 23.390625
L 4.890625 23.390625
z
" id="DejaVuSans-45"/>
    </defs>
    <g transform="translate(194.115 184.168125)scale(0.12 -0.12)">
     <use xlink:href="#DejaVuSans-67"/>
     <use x="69.824219" xlink:href="#DejaVuSans-117"/>
     <use x="133.203125" xlink:href="#DejaVuSans-109"/>
     <use x="230.615234" xlink:href="#DejaVuSans-117"/>
     <use x="293.994141" xlink:href="#DejaVuSans-108"/>
     <use x="321.777344" xlink:href="#DejaVuSans-97"/>
     <use x="383.056641" xlink:href="#DejaVuSans-116"/>
     <use x="422.265625" xlink:href="#DejaVuSans-105"/>
     <use x="450.048828" xlink:href="#DejaVuSans-118"/>
     <use x="509.228516" xlink:href="#DejaVuSans-101"/>
     <use x="570.751953" xlink:href="#DejaVuSans-32"/>
     <use x="602.539062" xlink:href="#DejaVuSans-40"/>
     <use x="641.552734" xlink:href="#DejaVuSans-102"/>
     <use x="676.757812" xlink:href="#DejaVuSans-114"/>
     <use x="715.621094" xlink:href="#DejaVuSans-111"/>
     <use x="776.802734" xlink:href="#DejaVuSans-109"/>
     <use x="874.214844" xlink:href="#DejaVuSans-32"/>
     <use x="906.001953" xlink:href="#DejaVuSans-101"/>
     <use x="967.525391" xlink:href="#DejaVuSans-110"/>
     <use x="1030.904297" xlink:href="#DejaVuSans-100"/>
     <use x="1094.380859" xlink:href="#DejaVuSans-41"/>
     <use x="1133.394531" xlink:href="#DejaVuSans-32"/>
     <use x="1165.181641" xlink:href="#DejaVuSans-97"/>
     <use x="1226.460938" xlink:href="#DejaVuSans-118"/>
     <use x="1285.640625" xlink:href="#DejaVuSans-101"/>
     <use x="1347.164062" xlink:href="#DejaVuSans-114"/>
     <use x="1388.277344" xlink:href="#DejaVuSans-97"/>
     <use x="1449.556641" xlink:href="#DejaVuSans-103"/>
     <use x="1513.033203" xlink:href="#DejaVuSans-101"/>
     <use x="1574.556641" xlink:href="#DejaVuSans-32"/>
     <use x="1606.34375" xlink:href="#DejaVuSans-119"/>
     <use x="1688.130859" xlink:href="#DejaVuSans-101"/>
     <use x="1749.654297" xlink:href="#DejaVuSans-105"/>
     <use x="1777.4375" xlink:href="#DejaVuSans-103"/>
     <use x="1840.914062" xlink:href="#DejaVuSans-104"/>
     <use x="1904.292969" xlink:href="#DejaVuSans-116"/>
     <use x="1943.501953" xlink:href="#DejaVuSans-115"/>
     <use x="1995.601562" xlink:href="#DejaVuSans-32"/>
     <use x="2027.388672" xlink:href="#DejaVuSans-102"/>
     <use x="2062.59375" xlink:href="#DejaVuSans-111"/>
     <use x="2123.775391" xlink:href="#DejaVuSans-114"/>
     <use x="2164.888672" xlink:href="#DejaVuSans-32"/>
     <use x="2196.675781" xlink:href="#DejaVuSans-110"/>
     <use x="2260.054688" xlink:href="#DejaVuSans-111"/>
     <use x="2321.236328" xlink:href="#DejaVuSans-110"/>
     <use x="2384.615234" xlink:href="#DejaVuSans-45"/>
     <use x="2420.699219" xlink:href="#DejaVuSans-98"/>
     <use x="2484.175781" xlink:href="#DejaVuSans-108"/>
     <use x="2511.958984" xlink:href="#DejaVuSans-97"/>
     <use x="2573.238281" xlink:href="#DejaVuSans-110"/>
     <use x="2636.617188" xlink:href="#DejaVuSans-107"/>
     <use x="2694.527344" xlink:href="#DejaVuSans-32"/>
     <use x="2726.314453" xlink:href="#DejaVuSans-115"/>
     <use x="2778.414062" xlink:href="#DejaVuSans-112"/>
     <use x="2841.890625" xlink:href="#DejaVuSans-97"/>
     <use x="2903.169922" xlink:href="#DejaVuSans-99"/>
     <use x="2958.150391" xlink:href="#DejaVuSans-101"/>
    </g>
   </g>
   <g id="legend_2">
    <g id="patch_13">
     <path d="M 51.845313 227.524375
L 166.704688 227.524375
Q 168.704688 227.524375 168.704688 225.524375
L 168.704688 197.168125
Q 168.704688 195.168125 166.704688 195.168125
L 51.845313 195.168125
Q 49.845313 195.168125 49.845313 197.168125
L 49.845313 225.524375
Q 49.845313 227.524375 51.845313 227.524375
z
" style="fill:#ffffff;opacity:0.8;stroke:#cccccc;stroke-linejoin:miter;"/>
    </g>
    <g id="line2d_34">
     <path d="M 53.845313 203.266562
L 73.845313 203.266562
" style="fill:none;stroke:#008000;stroke-dasharray:5.55,2.4;stroke-dashoffset:0;stroke-width:1.5;"/>
    </g>
    <g id="line2d_35"/>
    <g id="text_21">
     <!-- arxiv mean start -->
     <g transform="translate(81.845313 206.766562)scale(0.1 -0.1)">
      <use xlink:href="#DejaVuSans-97"/>
      <use x="61.279297" xlink:href="#DejaVuSans-114"/>
      <use x="99.767578" xlink:href="#DejaVuSans-120"/>
      <use x="158.947266" xlink:href="#DejaVuSans-105"/>
      <use x="186.730469" xlink:href="#DejaVuSans-118"/>
      <use x="245.910156" xlink:href="#DejaVuSans-32"/>
      <use x="277.697266" xlink:href="#DejaVuSans-109"/>
      <use x="375.109375" xlink:href="#DejaVuSans-101"/>
      <use x="436.632812" xlink:href="#DejaVuSans-97"/>
      <use x="497.912109" xlink:href="#DejaVuSans-110"/>
      <use x="561.291016" xlink:href="#DejaVuSans-32"/>
      <use x="593.078125" xlink:href="#DejaVuSans-115"/>
      <use x="645.177734" xlink:href="#DejaVuSans-116"/>
      <use x="684.386719" xlink:href="#DejaVuSans-97"/>
      <use x="745.666016" xlink:href="#DejaVuSans-114"/>
      <use x="786.779297" xlink:href="#DejaVuSans-116"/>
     </g>
    </g>
    <g id="line2d_36">
     <path d="M 53.845313 217.944687
L 73.845313 217.944687
" style="fill:none;stroke:#ff0000;stroke-linecap:square;stroke-width:1.5;"/>
    </g>
    <g id="line2d_37"/>
    <g id="text_22">
     <!-- vixra mean start -->
     <g transform="translate(81.845313 221.444687)scale(0.1 -0.1)">
      <use xlink:href="#DejaVuSans-118"/>
      <use x="59.179688" xlink:href="#DejaVuSans-105"/>
      <use x="86.962891" xlink:href="#DejaVuSans-120"/>
      <use x="146.142578" xlink:href="#DejaVuSans-114"/>
      <use x="187.255859" xlink:href="#DejaVuSans-97"/>
      <use x="248.535156" xlink:href="#DejaVuSans-32"/>
      <use x="280.322266" xlink:href="#DejaVuSans-109"/>
      <use x="377.734375" xlink:href="#DejaVuSans-101"/>
      <use x="439.257812" xlink:href="#DejaVuSans-97"/>
      <use x="500.537109" xlink:href="#DejaVuSans-110"/>
      <use x="563.916016" xlink:href="#DejaVuSans-32"/>
      <use x="595.703125" xlink:href="#DejaVuSans-115"/>
      <use x="647.802734" xlink:href="#DejaVuSans-116"/>
      <use x="687.011719" xlink:href="#DejaVuSans-97"/>
      <use x="748.291016" xlink:href="#DejaVuSans-114"/>
      <use x="789.404297" xlink:href="#DejaVuSans-116"/>
     </g>
    </g>
   </g>
  </g>
 </g>
 <defs>
  <clipPath id="p0325607d9c">
   <rect height="137.55" width="660.9" x="44.845313" y="22.318125"/>
  </clipPath>
  <clipPath id="pa70b3f6f1a">
   <rect height="137.55" width="660.9" x="44.845313" y="190.168125"/>
  </clipPath>
 </defs>
</svg>
