<?xml version="1.0" encoding="utf-8" standalone="no"?>
<!DOCTYPE svg PUBLIC "-//W3C//DTD SVG 1.1//EN"
  "http://www.w3.org/Graphics/SVG/1.1/DTD/svg11.dtd">
<!-- Created with matplotlib (https://matplotlib.org/) -->
<svg height="351.59625pt" version="1.1" viewBox="0 0 712.820313 351.59625" width="712.820313pt" xmlns="http://www.w3.org/2000/svg" xmlns:xlink="http://www.w3.org/1999/xlink">
 <defs>
  <style type="text/css">
*{stroke-linecap:butt;stroke-linejoin:round;}
  </style>
 </defs>
 <g id="figure_1">
  <g id="patch_1">
   <path d="M 0 351.59625
L 712.820313 351.59625
L 712.820313 0
L 0 0
z
" style="fill:#ffffff;"/>
  </g>
  <g id="axes_1">
   <g id="patch_2">
    <path d="M 44.845313 159.288441
L 705.620313 159.288441
L 705.620313 22.318125
L 44.845313 22.318125
z
" style="fill:#ffffff;"/>
   </g>
   <g id="matplotlib.axis_1">
    <g id="xtick_1">
     <g id="line2d_1">
      <defs>
       <path d="M 0 0
L 0 3.5
" id="m398afc84e7" style="stroke:#000000;stroke-width:0.8;"/>
      </defs>
      <g>
       <use style="stroke:#000000;stroke-width:0.8;" x="74.88054" xlink:href="#m398afc84e7" y="159.288441"/>
      </g>
     </g>
    </g>
    <g id="xtick_2">
     <g id="line2d_2">
      <g>
       <use style="stroke:#000000;stroke-width:0.8;" x="169.479681" xlink:href="#m398afc84e7" y="159.288441"/>
      </g>
     </g>
    </g>
    <g id="xtick_3">
     <g id="line2d_3">
      <g>
       <use style="stroke:#000000;stroke-width:0.8;" x="264.078822" xlink:href="#m398afc84e7" y="159.288441"/>
      </g>
     </g>
    </g>
    <g id="xtick_4">
     <g id="line2d_4">
      <g>
       <use style="stroke:#000000;stroke-width:0.8;" x="358.677963" xlink:href="#m398afc84e7" y="159.288441"/>
      </g>
     </g>
    </g>
    <g id="xtick_5">
     <g id="line2d_5">
      <g>
       <use style="stroke:#000000;stroke-width:0.8;" x="453.277104" xlink:href="#m398afc84e7" y="159.288441"/>
      </g>
     </g>
    </g>
    <g id="xtick_6">
     <g id="line2d_6">
      <g>
       <use style="stroke:#000000;stroke-width:0.8;" x="547.876245" xlink:href="#m398afc84e7" y="159.288441"/>
      </g>
     </g>
    </g>
    <g id="xtick_7">
     <g id="line2d_7">
      <g>
       <use style="stroke:#000000;stroke-width:0.8;" x="642.475386" xlink:href="#m398afc84e7" y="159.288441"/>
      </g>
     </g>
    </g>
   </g>
   <g id="matplotlib.axis_2">
    <g id="ytick_1">
     <g id="line2d_8">
      <defs>
       <path d="M 0 0
L -3.5 0
" id="m036cb17aff" style="stroke:#000000;stroke-width:0.8;"/>
      </defs>
      <g>
       <use style="stroke:#000000;stroke-width:0.8;" x="44.845313" xlink:href="#m036cb17aff" y="157.802132"/>
      </g>
     </g>
     <g id="text_1">
      <!-- −0.10 -->
      <defs>
       <path d="M 10.59375 35.5
L 73.1875 35.5
L 73.1875 27.203125
L 10.59375 27.203125
z
" id="DejaVuSans-8722"/>
       <path d="M 31.78125 66.40625
Q 24.171875 66.40625 20.328125 58.90625
Q 16.5 51.421875 16.5 36.375
Q 16.5 21.390625 20.328125 13.890625
Q 24.171875 6.390625 31.78125 6.390625
Q 39.453125 6.390625 43.28125 13.890625
Q 47.125 21.390625 47.125 36.375
Q 47.125 51.421875 43.28125 58.90625
Q 39.453125 66.40625 31.78125 66.40625
z
M 31.78125 74.21875
Q 44.046875 74.21875 50.515625 64.515625
Q 56.984375 54.828125 56.984375 36.375
Q 56.984375 17.96875 50.515625 8.265625
Q 44.046875 -1.421875 31.78125 -1.421875
Q 19.53125 -1.421875 13.0625 8.265625
Q 6.59375 17.96875 6.59375 36.375
Q 6.59375 54.828125 13.0625 64.515625
Q 19.53125 74.21875 31.78125 74.21875
z
" id="DejaVuSans-48"/>
       <path d="M 10.6875 12.40625
L 21 12.40625
L 21 0
L 10.6875 0
z
" id="DejaVuSans-46"/>
       <path d="M 12.40625 8.296875
L 28.515625 8.296875
L 28.515625 63.921875
L 10.984375 60.40625
L 10.984375 69.390625
L 28.421875 72.90625
L 38.28125 72.90625
L 38.28125 8.296875
L 54.390625 8.296875
L 54.390625 0
L 12.40625 0
z
" id="DejaVuSans-49"/>
      </defs>
      <g transform="translate(7.2 161.601351)scale(0.1 -0.1)">
       <use xlink:href="#DejaVuSans-8722"/>
       <use x="83.789062" xlink:href="#DejaVuSans-48"/>
       <use x="147.412109" xlink:href="#DejaVuSans-46"/>
       <use x="179.199219" xlink:href="#DejaVuSans-49"/>
       <use x="242.822266" xlink:href="#DejaVuSans-48"/>
      </g>
     </g>
    </g>
    <g id="ytick_2">
     <g id="line2d_9">
      <g>
       <use style="stroke:#000000;stroke-width:0.8;" x="44.845313" xlink:href="#m036cb17aff" y="129.77005"/>
      </g>
     </g>
     <g id="text_2">
      <!-- −0.05 -->
      <defs>
       <path d="M 10.796875 72.90625
L 49.515625 72.90625
L 49.515625 64.59375
L 19.828125 64.59375
L 19.828125 46.734375
Q 21.96875 47.46875 24.109375 47.828125
Q 26.265625 48.1875 28.421875 48.1875
Q 40.625 48.1875 47.75 41.5
Q 54.890625 34.8125 54.890625 23.390625
Q 54.890625 11.625 47.5625 5.09375
Q 40.234375 -1.421875 26.90625 -1.421875
Q 22.3125 -1.421875 17.546875 -0.640625
Q 12.796875 0.140625 7.71875 1.703125
L 7.71875 11.625
Q 12.109375 9.234375 16.796875 8.0625
Q 21.484375 6.890625 26.703125 6.890625
Q 35.15625 6.890625 40.078125 11.328125
Q 45.015625 15.765625 45.015625 23.390625
Q 45.015625 31 40.078125 35.4375
Q 35.15625 39.890625 26.703125 39.890625
Q 22.75 39.890625 18.8125 39.015625
Q 14.890625 38.140625 10.796875 36.28125
z
" id="DejaVuSans-53"/>
      </defs>
      <g transform="translate(7.2 133.569269)scale(0.1 -0.1)">
       <use xlink:href="#DejaVuSans-8722"/>
       <use x="83.789062" xlink:href="#DejaVuSans-48"/>
       <use x="147.412109" xlink:href="#DejaVuSans-46"/>
       <use x="179.199219" xlink:href="#DejaVuSans-48"/>
       <use x="242.822266" xlink:href="#DejaVuSans-53"/>
      </g>
     </g>
    </g>
    <g id="ytick_3">
     <g id="line2d_10">
      <g>
       <use style="stroke:#000000;stroke-width:0.8;" x="44.845313" xlink:href="#m036cb17aff" y="101.737968"/>
      </g>
     </g>
     <g id="text_3">
      <!-- 0.00 -->
      <g transform="translate(15.579688 105.537187)scale(0.1 -0.1)">
       <use xlink:href="#DejaVuSans-48"/>
       <use x="63.623047" xlink:href="#DejaVuSans-46"/>
       <use x="95.410156" xlink:href="#DejaVuSans-48"/>
       <use x="159.033203" xlink:href="#DejaVuSans-48"/>
      </g>
     </g>
    </g>
    <g id="ytick_4">
     <g id="line2d_11">
      <g>
       <use style="stroke:#000000;stroke-width:0.8;" x="44.845313" xlink:href="#m036cb17aff" y="73.705886"/>
      </g>
     </g>
     <g id="text_4">
      <!-- 0.05 -->
      <g transform="translate(15.579688 77.505105)scale(0.1 -0.1)">
       <use xlink:href="#DejaVuSans-48"/>
       <use x="63.623047" xlink:href="#DejaVuSans-46"/>
       <use x="95.410156" xlink:href="#DejaVuSans-48"/>
       <use x="159.033203" xlink:href="#DejaVuSans-53"/>
      </g>
     </g>
    </g>
    <g id="ytick_5">
     <g id="line2d_12">
      <g>
       <use style="stroke:#000000;stroke-width:0.8;" x="44.845313" xlink:href="#m036cb17aff" y="45.673804"/>
      </g>
     </g>
     <g id="text_5">
      <!-- 0.10 -->
      <g transform="translate(15.579688 49.473023)scale(0.1 -0.1)">
       <use xlink:href="#DejaVuSans-48"/>
       <use x="63.623047" xlink:href="#DejaVuSans-46"/>
       <use x="95.410156" xlink:href="#DejaVuSans-49"/>
       <use x="159.033203" xlink:href="#DejaVuSans-48"/>
      </g>
     </g>
    </g>
   </g>
   <g id="line2d_13">
    <path clip-path="url(#p02ca5025c1)" d="M 74.88054 105.7179
L 79.610497 111.292025
L 84.340454 114.172015
L 89.070411 109.756506
L 93.800368 104.073349
L 98.530325 102.573606
L 103.260282 103.773884
L 107.990239 107.100718
L 112.720196 110.205316
L 117.450153 114.978186
L 122.18011 115.102129
L 126.910067 119.130118
L 131.640024 116.238101
L 136.369981 115.766631
L 141.099938 112.55944
L 145.829896 111.294441
L 150.559853 112.715053
L 155.28981 108.655197
L 160.019767 109.156417
L 164.749724 111.45206
L 169.479681 116.163935
L 174.209638 120.246068
L 178.939595 120.434585
L 183.669552 125.135965
L 188.399509 123.411345
L 193.129466 118.589678
L 197.859423 113.432114
L 202.58938 110.380217
L 207.319337 115.836688
L 212.049294 117.545434
L 216.779251 115.745535
L 221.509208 116.373455
L 226.239165 112.678412
L 230.969122 117.979474
L 235.69908 122.632087
L 240.429037 127.45352
L 245.158994 131.650698
L 249.888951 134.224873
L 254.618908 133.449857
L 259.348865 136.212401
L 264.078822 132.217093
L 268.808779 138.732547
L 273.538736 135.692932
L 278.268693 139.603365
L 282.99865 141.544574
L 287.728607 144.868936
L 292.458564 148.997036
L 297.188521 148.133344
L 301.918478 153.041744
L 306.648435 151.054073
L 311.378392 152.585241
L 316.108349 148.878444
L 320.838306 151.713884
L 325.568263 151.397999
L 330.298221 149.533414
L 339.758135 144.270654
L 344.488092 140.226656
L 349.218049 138.251085
L 353.948006 142.205689
L 358.677963 144.729567
L 363.40792 148.120007
L 368.137877 146.300309
L 372.867834 142.100397
L 377.597791 140.263343
L 382.327748 137.626123
L 387.057705 139.421247
L 391.787662 143.779819
L 396.517619 144.80326
L 401.247576 144.058916
L 405.977533 144.108482
L 410.70749 147.916039
L 415.437447 150.483037
L 420.167404 150.234625
L 424.897362 153.062517
L 429.627319 151.703934
L 434.357276 148.852947
L 439.087233 150.093982
L 443.81719 148.892082
L 448.547147 148.804969
L 453.277104 146.115017
L 458.007061 142.011867
L 462.737018 144.374764
L 467.466975 140.896003
L 472.196932 139.553227
L 476.926889 136.15612
L 481.656846 133.855504
L 486.386803 132.455393
L 491.11676 130.67714
L 495.846717 126.780955
L 500.576674 123.212452
L 505.306631 119.384398
L 510.036588 117.721778
L 514.766545 114.769222
L 519.496503 109.560177
L 524.22646 106.655648
L 528.956417 97.390629
L 533.686374 95.257085
L 538.416331 90.021801
L 543.146288 86.03119
L 547.876245 83.408745
L 552.606202 79.131881
L 557.336159 72.339995
L 562.066116 66.91495
L 566.796073 65.136576
L 571.52603 63.546603
L 576.255987 60.700762
L 580.985944 55.881384
L 585.715901 55.462078
L 590.445858 56.679525
L 595.175815 55.224626
L 599.905772 59.131252
L 604.635729 60.471042
L 609.365687 58.046771
L 614.095644 57.971599
L 618.825601 63.990074
L 623.555558 70.918739
L 628.285515 73.631951
L 633.015472 70.469623
L 637.745429 71.102998
L 642.475386 70.125352
L 647.205343 65.278815
L 651.9353 64.854004
L 656.665257 58.241056
L 661.395214 89.651909
L 666.125171 81.663537
L 670.855128 28.544048
L 675.585085 31.102258
L 675.585085 31.102258
" style="fill:none;stroke:#1f77b4;stroke-linecap:square;stroke-width:1.5;"/>
   </g>
   <g id="line2d_14">
    <path clip-path="url(#p02ca5025c1)" d="M 346.883354 159.288441
L 346.883354 22.318125
" style="fill:none;stroke:#008000;stroke-dasharray:5.55,2.4;stroke-dashoffset:0;stroke-width:1.5;"/>
   </g>
   <g id="line2d_15">
    <path clip-path="url(#p02ca5025c1)" d="M 419.244887 159.288441
L 419.244887 22.318125
" style="fill:none;stroke:#ff0000;stroke-linecap:square;stroke-width:1.5;"/>
   </g>
   <g id="patch_3">
    <path d="M 44.845313 159.288441
L 44.845313 22.318125
" style="fill:none;stroke:#000000;stroke-linecap:square;stroke-linejoin:miter;stroke-width:0.8;"/>
   </g>
   <g id="patch_4">
    <path d="M 705.620313 159.288441
L 705.620313 22.318125
" style="fill:none;stroke:#000000;stroke-linecap:square;stroke-linejoin:miter;stroke-width:0.8;"/>
   </g>
   <g id="patch_5">
    <path d="M 44.845313 159.288441
L 705.620313 159.288441
" style="fill:none;stroke:#000000;stroke-linecap:square;stroke-linejoin:miter;stroke-width:0.8;"/>
   </g>
   <g id="patch_6">
    <path d="M 44.845313 22.318125
L 705.620313 22.318125
" style="fill:none;stroke:#000000;stroke-linecap:square;stroke-linejoin:miter;stroke-width:0.8;"/>
   </g>
   <g id="text_6">
    <!-- Cumulative (from start) weights for blank space -->
    <defs>
     <path d="M 64.40625 67.28125
L 64.40625 56.890625
Q 59.421875 61.53125 53.78125 63.8125
Q 48.140625 66.109375 41.796875 66.109375
Q 29.296875 66.109375 22.65625 58.46875
Q 16.015625 50.828125 16.015625 36.375
Q 16.015625 21.96875 22.65625 14.328125
Q 29.296875 6.6875 41.796875 6.6875
Q 48.140625 6.6875 53.78125 8.984375
Q 59.421875 11.28125 64.40625 15.921875
L 64.40625 5.609375
Q 59.234375 2.09375 53.4375 0.328125
Q 47.65625 -1.421875 41.21875 -1.421875
Q 24.65625 -1.421875 15.125 8.703125
Q 5.609375 18.84375 5.609375 36.375
Q 5.609375 53.953125 15.125 64.078125
Q 24.65625 74.21875 41.21875 74.21875
Q 47.75 74.21875 53.53125 72.484375
Q 59.328125 70.75 64.40625 67.28125
z
" id="DejaVuSans-67"/>
     <path d="M 8.5 21.578125
L 8.5 54.6875
L 17.484375 54.6875
L 17.484375 21.921875
Q 17.484375 14.15625 20.5 10.265625
Q 23.53125 6.390625 29.59375 6.390625
Q 36.859375 6.390625 41.078125 11.03125
Q 45.3125 15.671875 45.3125 23.6875
L 45.3125 54.6875
L 54.296875 54.6875
L 54.296875 0
L 45.3125 0
L 45.3125 8.40625
Q 42.046875 3.421875 37.71875 1
Q 33.40625 -1.421875 27.6875 -1.421875
Q 18.265625 -1.421875 13.375 4.4375
Q 8.5 10.296875 8.5 21.578125
z
M 31.109375 56
z
" id="DejaVuSans-117"/>
     <path d="M 52 44.1875
Q 55.375 50.25 60.0625 53.125
Q 64.75 56 71.09375 56
Q 79.640625 56 84.28125 50.015625
Q 88.921875 44.046875 88.921875 33.015625
L 88.921875 0
L 79.890625 0
L 79.890625 32.71875
Q 79.890625 40.578125 77.09375 44.375
Q 74.3125 48.1875 68.609375 48.1875
Q 61.625 48.1875 57.5625 43.546875
Q 53.515625 38.921875 53.515625 30.90625
L 53.515625 0
L 44.484375 0
L 44.484375 32.71875
Q 44.484375 40.625 41.703125 44.40625
Q 38.921875 48.1875 33.109375 48.1875
Q 26.21875 48.1875 22.15625 43.53125
Q 18.109375 38.875 18.109375 30.90625
L 18.109375 0
L 9.078125 0
L 9.078125 54.6875
L 18.109375 54.6875
L 18.109375 46.1875
Q 21.1875 51.21875 25.484375 53.609375
Q 29.78125 56 35.6875 56
Q 41.65625 56 45.828125 52.96875
Q 50 49.953125 52 44.1875
z
" id="DejaVuSans-109"/>
     <path d="M 9.421875 75.984375
L 18.40625 75.984375
L 18.40625 0
L 9.421875 0
z
" id="DejaVuSans-108"/>
     <path d="M 34.28125 27.484375
Q 23.390625 27.484375 19.1875 25
Q 14.984375 22.515625 14.984375 16.5
Q 14.984375 11.71875 18.140625 8.90625
Q 21.296875 6.109375 26.703125 6.109375
Q 34.1875 6.109375 38.703125 11.40625
Q 43.21875 16.703125 43.21875 25.484375
L 43.21875 27.484375
z
M 52.203125 31.203125
L 52.203125 0
L 43.21875 0
L 43.21875 8.296875
Q 40.140625 3.328125 35.546875 0.953125
Q 30.953125 -1.421875 24.3125 -1.421875
Q 15.921875 -1.421875 10.953125 3.296875
Q 6 8.015625 6 15.921875
Q 6 25.140625 12.171875 29.828125
Q 18.359375 34.515625 30.609375 34.515625
L 43.21875 34.515625
L 43.21875 35.40625
Q 43.21875 41.609375 39.140625 45
Q 35.0625 48.390625 27.6875 48.390625
Q 23 48.390625 18.546875 47.265625
Q 14.109375 46.140625 10.015625 43.890625
L 10.015625 52.203125
Q 14.9375 54.109375 19.578125 55.046875
Q 24.21875 56 28.609375 56
Q 40.484375 56 46.34375 49.84375
Q 52.203125 43.703125 52.203125 31.203125
z
" id="DejaVuSans-97"/>
     <path d="M 18.3125 70.21875
L 18.3125 54.6875
L 36.8125 54.6875
L 36.8125 47.703125
L 18.3125 47.703125
L 18.3125 18.015625
Q 18.3125 11.328125 20.140625 9.421875
Q 21.96875 7.515625 27.59375 7.515625
L 36.8125 7.515625
L 36.8125 0
L 27.59375 0
Q 17.1875 0 13.234375 3.875
Q 9.28125 7.765625 9.28125 18.015625
L 9.28125 47.703125
L 2.6875 47.703125
L 2.6875 54.6875
L 9.28125 54.6875
L 9.28125 70.21875
z
" id="DejaVuSans-116"/>
     <path d="M 9.421875 54.6875
L 18.40625 54.6875
L 18.40625 0
L 9.421875 0
z
M 9.421875 75.984375
L 18.40625 75.984375
L 18.40625 64.59375
L 9.421875 64.59375
z
" id="DejaVuSans-105"/>
     <path d="M 2.984375 54.6875
L 12.5 54.6875
L 29.59375 8.796875
L 46.6875 54.6875
L 56.203125 54.6875
L 35.6875 0
L 23.484375 0
z
" id="DejaVuSans-118"/>
     <path d="M 56.203125 29.59375
L 56.203125 25.203125
L 14.890625 25.203125
Q 15.484375 15.921875 20.484375 11.0625
Q 25.484375 6.203125 34.421875 6.203125
Q 39.59375 6.203125 44.453125 7.46875
Q 49.3125 8.734375 54.109375 11.28125
L 54.109375 2.78125
Q 49.265625 0.734375 44.1875 -0.34375
Q 39.109375 -1.421875 33.890625 -1.421875
Q 20.796875 -1.421875 13.15625 6.1875
Q 5.515625 13.8125 5.515625 26.8125
Q 5.515625 40.234375 12.765625 48.109375
Q 20.015625 56 32.328125 56
Q 43.359375 56 49.78125 48.890625
Q 56.203125 41.796875 56.203125 29.59375
z
M 47.21875 32.234375
Q 47.125 39.59375 43.09375 43.984375
Q 39.0625 48.390625 32.421875 48.390625
Q 24.90625 48.390625 20.390625 44.140625
Q 15.875 39.890625 15.1875 32.171875
z
" id="DejaVuSans-101"/>
     <path id="DejaVuSans-32"/>
     <path d="M 31 75.875
Q 24.46875 64.65625 21.28125 53.65625
Q 18.109375 42.671875 18.109375 31.390625
Q 18.109375 20.125 21.3125 9.0625
Q 24.515625 -2 31 -13.1875
L 23.1875 -13.1875
Q 15.875 -1.703125 12.234375 9.375
Q 8.59375 20.453125 8.59375 31.390625
Q 8.59375 42.28125 12.203125 53.3125
Q 15.828125 64.359375 23.1875 75.875
z
" id="DejaVuSans-40"/>
     <path d="M 37.109375 75.984375
L 37.109375 68.5
L 28.515625 68.5
Q 23.6875 68.5 21.796875 66.546875
Q 19.921875 64.59375 19.921875 59.515625
L 19.921875 54.6875
L 34.71875 54.6875
L 34.71875 47.703125
L 19.921875 47.703125
L 19.921875 0
L 10.890625 0
L 10.890625 47.703125
L 2.296875 47.703125
L 2.296875 54.6875
L 10.890625 54.6875
L 10.890625 58.5
Q 10.890625 67.625 15.140625 71.796875
Q 19.390625 75.984375 28.609375 75.984375
z
" id="DejaVuSans-102"/>
     <path d="M 41.109375 46.296875
Q 39.59375 47.171875 37.8125 47.578125
Q 36.03125 48 33.890625 48
Q 26.265625 48 22.1875 43.046875
Q 18.109375 38.09375 18.109375 28.8125
L 18.109375 0
L 9.078125 0
L 9.078125 54.6875
L 18.109375 54.6875
L 18.109375 46.1875
Q 20.953125 51.171875 25.484375 53.578125
Q 30.03125 56 36.53125 56
Q 37.453125 56 38.578125 55.875
Q 39.703125 55.765625 41.0625 55.515625
z
" id="DejaVuSans-114"/>
     <path d="M 30.609375 48.390625
Q 23.390625 48.390625 19.1875 42.75
Q 14.984375 37.109375 14.984375 27.296875
Q 14.984375 17.484375 19.15625 11.84375
Q 23.34375 6.203125 30.609375 6.203125
Q 37.796875 6.203125 41.984375 11.859375
Q 46.1875 17.53125 46.1875 27.296875
Q 46.1875 37.015625 41.984375 42.703125
Q 37.796875 48.390625 30.609375 48.390625
z
M 30.609375 56
Q 42.328125 56 49.015625 48.375
Q 55.71875 40.765625 55.71875 27.296875
Q 55.71875 13.875 49.015625 6.21875
Q 42.328125 -1.421875 30.609375 -1.421875
Q 18.84375 -1.421875 12.171875 6.21875
Q 5.515625 13.875 5.515625 27.296875
Q 5.515625 40.765625 12.171875 48.375
Q 18.84375 56 30.609375 56
z
" id="DejaVuSans-111"/>
     <path d="M 44.28125 53.078125
L 44.28125 44.578125
Q 40.484375 46.53125 36.375 47.5
Q 32.28125 48.484375 27.875 48.484375
Q 21.1875 48.484375 17.84375 46.4375
Q 14.5 44.390625 14.5 40.28125
Q 14.5 37.15625 16.890625 35.375
Q 19.28125 33.59375 26.515625 31.984375
L 29.59375 31.296875
Q 39.15625 29.25 43.1875 25.515625
Q 47.21875 21.78125 47.21875 15.09375
Q 47.21875 7.46875 41.1875 3.015625
Q 35.15625 -1.421875 24.609375 -1.421875
Q 20.21875 -1.421875 15.453125 -0.5625
Q 10.6875 0.296875 5.421875 2
L 5.421875 11.28125
Q 10.40625 8.6875 15.234375 7.390625
Q 20.0625 6.109375 24.8125 6.109375
Q 31.15625 6.109375 34.5625 8.28125
Q 37.984375 10.453125 37.984375 14.40625
Q 37.984375 18.0625 35.515625 20.015625
Q 33.0625 21.96875 24.703125 23.78125
L 21.578125 24.515625
Q 13.234375 26.265625 9.515625 29.90625
Q 5.8125 33.546875 5.8125 39.890625
Q 5.8125 47.609375 11.28125 51.796875
Q 16.75 56 26.8125 56
Q 31.78125 56 36.171875 55.265625
Q 40.578125 54.546875 44.28125 53.078125
z
" id="DejaVuSans-115"/>
     <path d="M 8.015625 75.875
L 15.828125 75.875
Q 23.140625 64.359375 26.78125 53.3125
Q 30.421875 42.28125 30.421875 31.390625
Q 30.421875 20.453125 26.78125 9.375
Q 23.140625 -1.703125 15.828125 -13.1875
L 8.015625 -13.1875
Q 14.5 -2 17.703125 9.0625
Q 20.90625 20.125 20.90625 31.390625
Q 20.90625 42.671875 17.703125 53.65625
Q 14.5 64.65625 8.015625 75.875
z
" id="DejaVuSans-41"/>
     <path d="M 4.203125 54.6875
L 13.1875 54.6875
L 24.421875 12.015625
L 35.59375 54.6875
L 46.1875 54.6875
L 57.421875 12.015625
L 68.609375 54.6875
L 77.59375 54.6875
L 63.28125 0
L 52.6875 0
L 40.921875 44.828125
L 29.109375 0
L 18.5 0
z
" id="DejaVuSans-119"/>
     <path d="M 45.40625 27.984375
Q 45.40625 37.75 41.375 43.109375
Q 37.359375 48.484375 30.078125 48.484375
Q 22.859375 48.484375 18.828125 43.109375
Q 14.796875 37.75 14.796875 27.984375
Q 14.796875 18.265625 18.828125 12.890625
Q 22.859375 7.515625 30.078125 7.515625
Q 37.359375 7.515625 41.375 12.890625
Q 45.40625 18.265625 45.40625 27.984375
z
M 54.390625 6.78125
Q 54.390625 -7.171875 48.1875 -13.984375
Q 42 -20.796875 29.203125 -20.796875
Q 24.46875 -20.796875 20.265625 -20.09375
Q 16.0625 -19.390625 12.109375 -17.921875
L 12.109375 -9.1875
Q 16.0625 -11.328125 19.921875 -12.34375
Q 23.78125 -13.375 27.78125 -13.375
Q 36.625 -13.375 41.015625 -8.765625
Q 45.40625 -4.15625 45.40625 5.171875
L 45.40625 9.625
Q 42.625 4.78125 38.28125 2.390625
Q 33.9375 0 27.875 0
Q 17.828125 0 11.671875 7.65625
Q 5.515625 15.328125 5.515625 27.984375
Q 5.515625 40.671875 11.671875 48.328125
Q 17.828125 56 27.875 56
Q 33.9375 56 38.28125 53.609375
Q 42.625 51.21875 45.40625 46.390625
L 45.40625 54.6875
L 54.390625 54.6875
z
" id="DejaVuSans-103"/>
     <path d="M 54.890625 33.015625
L 54.890625 0
L 45.90625 0
L 45.90625 32.71875
Q 45.90625 40.484375 42.875 44.328125
Q 39.84375 48.1875 33.796875 48.1875
Q 26.515625 48.1875 22.3125 43.546875
Q 18.109375 38.921875 18.109375 30.90625
L 18.109375 0
L 9.078125 0
L 9.078125 75.984375
L 18.109375 75.984375
L 18.109375 46.1875
Q 21.34375 51.125 25.703125 53.5625
Q 30.078125 56 35.796875 56
Q 45.21875 56 50.046875 50.171875
Q 54.890625 44.34375 54.890625 33.015625
z
" id="DejaVuSans-104"/>
     <path d="M 48.6875 27.296875
Q 48.6875 37.203125 44.609375 42.84375
Q 40.53125 48.484375 33.40625 48.484375
Q 26.265625 48.484375 22.1875 42.84375
Q 18.109375 37.203125 18.109375 27.296875
Q 18.109375 17.390625 22.1875 11.75
Q 26.265625 6.109375 33.40625 6.109375
Q 40.53125 6.109375 44.609375 11.75
Q 48.6875 17.390625 48.6875 27.296875
z
M 18.109375 46.390625
Q 20.953125 51.265625 25.265625 53.625
Q 29.59375 56 35.59375 56
Q 45.5625 56 51.78125 48.09375
Q 58.015625 40.1875 58.015625 27.296875
Q 58.015625 14.40625 51.78125 6.484375
Q 45.5625 -1.421875 35.59375 -1.421875
Q 29.59375 -1.421875 25.265625 0.953125
Q 20.953125 3.328125 18.109375 8.203125
L 18.109375 0
L 9.078125 0
L 9.078125 75.984375
L 18.109375 75.984375
z
" id="DejaVuSans-98"/>
     <path d="M 54.890625 33.015625
L 54.890625 0
L 45.90625 0
L 45.90625 32.71875
Q 45.90625 40.484375 42.875 44.328125
Q 39.84375 48.1875 33.796875 48.1875
Q 26.515625 48.1875 22.3125 43.546875
Q 18.109375 38.921875 18.109375 30.90625
L 18.109375 0
L 9.078125 0
L 9.078125 54.6875
L 18.109375 54.6875
L 18.109375 46.1875
Q 21.34375 51.125 25.703125 53.5625
Q 30.078125 56 35.796875 56
Q 45.21875 56 50.046875 50.171875
Q 54.890625 44.34375 54.890625 33.015625
z
" id="DejaVuSans-110"/>
     <path d="M 9.078125 75.984375
L 18.109375 75.984375
L 18.109375 31.109375
L 44.921875 54.6875
L 56.390625 54.6875
L 27.390625 29.109375
L 57.625 0
L 45.90625 0
L 18.109375 26.703125
L 18.109375 0
L 9.078125 0
z
" id="DejaVuSans-107"/>
     <path d="M 18.109375 8.203125
L 18.109375 -20.796875
L 9.078125 -20.796875
L 9.078125 54.6875
L 18.109375 54.6875
L 18.109375 46.390625
Q 20.953125 51.265625 25.265625 53.625
Q 29.59375 56 35.59375 56
Q 45.5625 56 51.78125 48.09375
Q 58.015625 40.1875 58.015625 27.296875
Q 58.015625 14.40625 51.78125 6.484375
Q 45.5625 -1.421875 35.59375 -1.421875
Q 29.59375 -1.421875 25.265625 0.953125
Q 20.953125 3.328125 18.109375 8.203125
z
M 48.6875 27.296875
Q 48.6875 37.203125 44.609375 42.84375
Q 40.53125 48.484375 33.40625 48.484375
Q 26.265625 48.484375 22.1875 42.84375
Q 18.109375 37.203125 18.109375 27.296875
Q 18.109375 17.390625 22.1875 11.75
Q 26.265625 6.109375 33.40625 6.109375
Q 40.53125 6.109375 44.609375 11.75
Q 48.6875 17.390625 48.6875 27.296875
z
" id="DejaVuSans-112"/>
     <path d="M 48.78125 52.59375
L 48.78125 44.1875
Q 44.96875 46.296875 41.140625 47.34375
Q 37.3125 48.390625 33.40625 48.390625
Q 24.65625 48.390625 19.8125 42.84375
Q 14.984375 37.3125 14.984375 27.296875
Q 14.984375 17.28125 19.8125 11.734375
Q 24.65625 6.203125 33.40625 6.203125
Q 37.3125 6.203125 41.140625 7.25
Q 44.96875 8.296875 48.78125 10.40625
L 48.78125 2.09375
Q 45.015625 0.34375 40.984375 -0.53125
Q 36.96875 -1.421875 32.421875 -1.421875
Q 20.0625 -1.421875 12.78125 6.34375
Q 5.515625 14.109375 5.515625 27.296875
Q 5.515625 40.671875 12.859375 48.328125
Q 20.21875 56 33.015625 56
Q 37.15625 56 41.109375 55.140625
Q 45.0625 54.296875 48.78125 52.59375
z
" id="DejaVuSans-99"/>
    </defs>
    <g transform="translate(231.294688 16.318125)scale(0.12 -0.12)">
     <use xlink:href="#DejaVuSans-67"/>
     <use x="69.824219" xlink:href="#DejaVuSans-117"/>
     <use x="133.203125" xlink:href="#DejaVuSans-109"/>
     <use x="230.615234" xlink:href="#DejaVuSans-117"/>
     <use x="293.994141" xlink:href="#DejaVuSans-108"/>
     <use x="321.777344" xlink:href="#DejaVuSans-97"/>
     <use x="383.056641" xlink:href="#DejaVuSans-116"/>
     <use x="422.265625" xlink:href="#DejaVuSans-105"/>
     <use x="450.048828" xlink:href="#DejaVuSans-118"/>
     <use x="509.228516" xlink:href="#DejaVuSans-101"/>
     <use x="570.751953" xlink:href="#DejaVuSans-32"/>
     <use x="602.539062" xlink:href="#DejaVuSans-40"/>
     <use x="641.552734" xlink:href="#DejaVuSans-102"/>
     <use x="676.757812" xlink:href="#DejaVuSans-114"/>
     <use x="715.621094" xlink:href="#DejaVuSans-111"/>
     <use x="776.802734" xlink:href="#DejaVuSans-109"/>
     <use x="874.214844" xlink:href="#DejaVuSans-32"/>
     <use x="906.001953" xlink:href="#DejaVuSans-115"/>
     <use x="958.101562" xlink:href="#DejaVuSans-116"/>
     <use x="997.310547" xlink:href="#DejaVuSans-97"/>
     <use x="1058.589844" xlink:href="#DejaVuSans-114"/>
     <use x="1099.703125" xlink:href="#DejaVuSans-116"/>
     <use x="1138.912109" xlink:href="#DejaVuSans-41"/>
     <use x="1177.925781" xlink:href="#DejaVuSans-32"/>
     <use x="1209.712891" xlink:href="#DejaVuSans-119"/>
     <use x="1291.5" xlink:href="#DejaVuSans-101"/>
     <use x="1353.023438" xlink:href="#DejaVuSans-105"/>
     <use x="1380.806641" xlink:href="#DejaVuSans-103"/>
     <use x="1444.283203" xlink:href="#DejaVuSans-104"/>
     <use x="1507.662109" xlink:href="#DejaVuSans-116"/>
     <use x="1546.871094" xlink:href="#DejaVuSans-115"/>
     <use x="1598.970703" xlink:href="#DejaVuSans-32"/>
     <use x="1630.757812" xlink:href="#DejaVuSans-102"/>
     <use x="1665.962891" xlink:href="#DejaVuSans-111"/>
     <use x="1727.144531" xlink:href="#DejaVuSans-114"/>
     <use x="1768.257812" xlink:href="#DejaVuSans-32"/>
     <use x="1800.044922" xlink:href="#DejaVuSans-98"/>
     <use x="1863.521484" xlink:href="#DejaVuSans-108"/>
     <use x="1891.304688" xlink:href="#DejaVuSans-97"/>
     <use x="1952.583984" xlink:href="#DejaVuSans-110"/>
     <use x="2015.962891" xlink:href="#DejaVuSans-107"/>
     <use x="2073.873047" xlink:href="#DejaVuSans-32"/>
     <use x="2105.660156" xlink:href="#DejaVuSans-115"/>
     <use x="2157.759766" xlink:href="#DejaVuSans-112"/>
     <use x="2221.236328" xlink:href="#DejaVuSans-97"/>
     <use x="2282.515625" xlink:href="#DejaVuSans-99"/>
     <use x="2337.496094" xlink:href="#DejaVuSans-101"/>
    </g>
   </g>
   <g id="legend_1">
    <g id="patch_7">
     <path d="M 51.845313 59.674375
L 166.704688 59.674375
Q 168.704688 59.674375 168.704688 57.674375
L 168.704688 29.318125
Q 168.704688 27.318125 166.704688 27.318125
L 51.845313 27.318125
Q 49.845313 27.318125 49.845313 29.318125
L 49.845313 57.674375
Q 49.845313 59.674375 51.845313 59.674375
z
" style="fill:#ffffff;opacity:0.8;stroke:#cccccc;stroke-linejoin:miter;"/>
    </g>
    <g id="line2d_16">
     <path d="M 53.845313 35.416562
L 73.845313 35.416562
" style="fill:none;stroke:#008000;stroke-dasharray:5.55,2.4;stroke-dashoffset:0;stroke-width:1.5;"/>
    </g>
    <g id="line2d_17"/>
    <g id="text_7">
     <!-- arxiv mean start -->
     <defs>
      <path d="M 54.890625 54.6875
L 35.109375 28.078125
L 55.90625 0
L 45.3125 0
L 29.390625 21.484375
L 13.484375 0
L 2.875 0
L 24.125 28.609375
L 4.6875 54.6875
L 15.28125 54.6875
L 29.78125 35.203125
L 44.28125 54.6875
z
" id="DejaVuSans-120"/>
     </defs>
     <g transform="translate(81.845313 38.916562)scale(0.1 -0.1)">
      <use xlink:href="#DejaVuSans-97"/>
      <use x="61.279297" xlink:href="#DejaVuSans-114"/>
      <use x="99.767578" xlink:href="#DejaVuSans-120"/>
      <use x="158.947266" xlink:href="#DejaVuSans-105"/>
      <use x="186.730469" xlink:href="#DejaVuSans-118"/>
      <use x="245.910156" xlink:href="#DejaVuSans-32"/>
      <use x="277.697266" xlink:href="#DejaVuSans-109"/>
      <use x="375.109375" xlink:href="#DejaVuSans-101"/>
      <use x="436.632812" xlink:href="#DejaVuSans-97"/>
      <use x="497.912109" xlink:href="#DejaVuSans-110"/>
      <use x="561.291016" xlink:href="#DejaVuSans-32"/>
      <use x="593.078125" xlink:href="#DejaVuSans-115"/>
      <use x="645.177734" xlink:href="#DejaVuSans-116"/>
      <use x="684.386719" xlink:href="#DejaVuSans-97"/>
      <use x="745.666016" xlink:href="#DejaVuSans-114"/>
      <use x="786.779297" xlink:href="#DejaVuSans-116"/>
     </g>
    </g>
    <g id="line2d_18">
     <path d="M 53.845313 50.094687
L 73.845313 50.094687
" style="fill:none;stroke:#ff0000;stroke-linecap:square;stroke-width:1.5;"/>
    </g>
    <g id="line2d_19"/>
    <g id="text_8">
     <!-- vixra mean start -->
     <g transform="translate(81.845313 53.594687)scale(0.1 -0.1)">
      <use xlink:href="#DejaVuSans-118"/>
      <use x="59.179688" xlink:href="#DejaVuSans-105"/>
      <use x="86.962891" xlink:href="#DejaVuSans-120"/>
      <use x="146.142578" xlink:href="#DejaVuSans-114"/>
      <use x="187.255859" xlink:href="#DejaVuSans-97"/>
      <use x="248.535156" xlink:href="#DejaVuSans-32"/>
      <use x="280.322266" xlink:href="#DejaVuSans-109"/>
      <use x="377.734375" xlink:href="#DejaVuSans-101"/>
      <use x="439.257812" xlink:href="#DejaVuSans-97"/>
      <use x="500.537109" xlink:href="#DejaVuSans-110"/>
      <use x="563.916016" xlink:href="#DejaVuSans-32"/>
      <use x="595.703125" xlink:href="#DejaVuSans-115"/>
      <use x="647.802734" xlink:href="#DejaVuSans-116"/>
      <use x="687.011719" xlink:href="#DejaVuSans-97"/>
      <use x="748.291016" xlink:href="#DejaVuSans-114"/>
      <use x="789.404297" xlink:href="#DejaVuSans-116"/>
     </g>
    </g>
   </g>
  </g>
  <g id="axes_2">
   <g id="patch_8">
    <path d="M 44.845313 327.718125
L 705.620313 327.718125
L 705.620313 190.747809
L 44.845313 190.747809
z
" style="fill:#ffffff;"/>
   </g>
   <g id="matplotlib.axis_3">
    <g id="xtick_8">
     <g id="line2d_20">
      <g>
       <use style="stroke:#000000;stroke-width:0.8;" x="74.88054" xlink:href="#m398afc84e7" y="327.718125"/>
      </g>
     </g>
     <g id="text_9">
      <!-- 0 -->
      <g transform="translate(71.69929 342.316562)scale(0.1 -0.1)">
       <use xlink:href="#DejaVuSans-48"/>
      </g>
     </g>
    </g>
    <g id="xtick_9">
     <g id="line2d_21">
      <g>
       <use style="stroke:#000000;stroke-width:0.8;" x="169.479681" xlink:href="#m398afc84e7" y="327.718125"/>
      </g>
     </g>
     <g id="text_10">
      <!-- 20 -->
      <defs>
       <path d="M 19.1875 8.296875
L 53.609375 8.296875
L 53.609375 0
L 7.328125 0
L 7.328125 8.296875
Q 12.9375 14.109375 22.625 23.890625
Q 32.328125 33.6875 34.8125 36.53125
Q 39.546875 41.84375 41.421875 45.53125
Q 43.3125 49.21875 43.3125 52.78125
Q 43.3125 58.59375 39.234375 62.25
Q 35.15625 65.921875 28.609375 65.921875
Q 23.96875 65.921875 18.8125 64.3125
Q 13.671875 62.703125 7.8125 59.421875
L 7.8125 69.390625
Q 13.765625 71.78125 18.9375 73
Q 24.125 74.21875 28.421875 74.21875
Q 39.75 74.21875 46.484375 68.546875
Q 53.21875 62.890625 53.21875 53.421875
Q 53.21875 48.921875 51.53125 44.890625
Q 49.859375 40.875 45.40625 35.40625
Q 44.1875 33.984375 37.640625 27.21875
Q 31.109375 20.453125 19.1875 8.296875
z
" id="DejaVuSans-50"/>
      </defs>
      <g transform="translate(163.117181 342.316562)scale(0.1 -0.1)">
       <use xlink:href="#DejaVuSans-50"/>
       <use x="63.623047" xlink:href="#DejaVuSans-48"/>
      </g>
     </g>
    </g>
    <g id="xtick_10">
     <g id="line2d_22">
      <g>
       <use style="stroke:#000000;stroke-width:0.8;" x="264.078822" xlink:href="#m398afc84e7" y="327.718125"/>
      </g>
     </g>
     <g id="text_11">
      <!-- 40 -->
      <defs>
       <path d="M 37.796875 64.3125
L 12.890625 25.390625
L 37.796875 25.390625
z
M 35.203125 72.90625
L 47.609375 72.90625
L 47.609375 25.390625
L 58.015625 25.390625
L 58.015625 17.1875
L 47.609375 17.1875
L 47.609375 0
L 37.796875 0
L 37.796875 17.1875
L 4.890625 17.1875
L 4.890625 26.703125
z
" id="DejaVuSans-52"/>
      </defs>
      <g transform="translate(257.716322 342.316562)scale(0.1 -0.1)">
       <use xlink:href="#DejaVuSans-52"/>
       <use x="63.623047" xlink:href="#DejaVuSans-48"/>
      </g>
     </g>
    </g>
    <g id="xtick_11">
     <g id="line2d_23">
      <g>
       <use style="stroke:#000000;stroke-width:0.8;" x="358.677963" xlink:href="#m398afc84e7" y="327.718125"/>
      </g>
     </g>
     <g id="text_12">
      <!-- 60 -->
      <defs>
       <path d="M 33.015625 40.375
Q 26.375 40.375 22.484375 35.828125
Q 18.609375 31.296875 18.609375 23.390625
Q 18.609375 15.53125 22.484375 10.953125
Q 26.375 6.390625 33.015625 6.390625
Q 39.65625 6.390625 43.53125 10.953125
Q 47.40625 15.53125 47.40625 23.390625
Q 47.40625 31.296875 43.53125 35.828125
Q 39.65625 40.375 33.015625 40.375
z
M 52.59375 71.296875
L 52.59375 62.3125
Q 48.875 64.0625 45.09375 64.984375
Q 41.3125 65.921875 37.59375 65.921875
Q 27.828125 65.921875 22.671875 59.328125
Q 17.53125 52.734375 16.796875 39.40625
Q 19.671875 43.65625 24.015625 45.921875
Q 28.375 48.1875 33.59375 48.1875
Q 44.578125 48.1875 50.953125 41.515625
Q 57.328125 34.859375 57.328125 23.390625
Q 57.328125 12.15625 50.6875 5.359375
Q 44.046875 -1.421875 33.015625 -1.421875
Q 20.359375 -1.421875 13.671875 8.265625
Q 6.984375 17.96875 6.984375 36.375
Q 6.984375 53.65625 15.1875 63.9375
Q 23.390625 74.21875 37.203125 74.21875
Q 40.921875 74.21875 44.703125 73.484375
Q 48.484375 72.75 52.59375 71.296875
z
" id="DejaVuSans-54"/>
      </defs>
      <g transform="translate(352.315463 342.316562)scale(0.1 -0.1)">
       <use xlink:href="#DejaVuSans-54"/>
       <use x="63.623047" xlink:href="#DejaVuSans-48"/>
      </g>
     </g>
    </g>
    <g id="xtick_12">
     <g id="line2d_24">
      <g>
       <use style="stroke:#000000;stroke-width:0.8;" x="453.277104" xlink:href="#m398afc84e7" y="327.718125"/>
      </g>
     </g>
     <g id="text_13">
      <!-- 80 -->
      <defs>
       <path d="M 31.78125 34.625
Q 24.75 34.625 20.71875 30.859375
Q 16.703125 27.09375 16.703125 20.515625
Q 16.703125 13.921875 20.71875 10.15625
Q 24.75 6.390625 31.78125 6.390625
Q 38.8125 6.390625 42.859375 10.171875
Q 46.921875 13.96875 46.921875 20.515625
Q 46.921875 27.09375 42.890625 30.859375
Q 38.875 34.625 31.78125 34.625
z
M 21.921875 38.8125
Q 15.578125 40.375 12.03125 44.71875
Q 8.5 49.078125 8.5 55.328125
Q 8.5 64.0625 14.71875 69.140625
Q 20.953125 74.21875 31.78125 74.21875
Q 42.671875 74.21875 48.875 69.140625
Q 55.078125 64.0625 55.078125 55.328125
Q 55.078125 49.078125 51.53125 44.71875
Q 48 40.375 41.703125 38.8125
Q 48.828125 37.15625 52.796875 32.3125
Q 56.78125 27.484375 56.78125 20.515625
Q 56.78125 9.90625 50.3125 4.234375
Q 43.84375 -1.421875 31.78125 -1.421875
Q 19.734375 -1.421875 13.25 4.234375
Q 6.78125 9.90625 6.78125 20.515625
Q 6.78125 27.484375 10.78125 32.3125
Q 14.796875 37.15625 21.921875 38.8125
z
M 18.3125 54.390625
Q 18.3125 48.734375 21.84375 45.5625
Q 25.390625 42.390625 31.78125 42.390625
Q 38.140625 42.390625 41.71875 45.5625
Q 45.3125 48.734375 45.3125 54.390625
Q 45.3125 60.0625 41.71875 63.234375
Q 38.140625 66.40625 31.78125 66.40625
Q 25.390625 66.40625 21.84375 63.234375
Q 18.3125 60.0625 18.3125 54.390625
z
" id="DejaVuSans-56"/>
      </defs>
      <g transform="translate(446.914604 342.316562)scale(0.1 -0.1)">
       <use xlink:href="#DejaVuSans-56"/>
       <use x="63.623047" xlink:href="#DejaVuSans-48"/>
      </g>
     </g>
    </g>
    <g id="xtick_13">
     <g id="line2d_25">
      <g>
       <use style="stroke:#000000;stroke-width:0.8;" x="547.876245" xlink:href="#m398afc84e7" y="327.718125"/>
      </g>
     </g>
     <g id="text_14">
      <!-- 100 -->
      <g transform="translate(538.332495 342.316562)scale(0.1 -0.1)">
       <use xlink:href="#DejaVuSans-49"/>
       <use x="63.623047" xlink:href="#DejaVuSans-48"/>
       <use x="127.246094" xlink:href="#DejaVuSans-48"/>
      </g>
     </g>
    </g>
    <g id="xtick_14">
     <g id="line2d_26">
      <g>
       <use style="stroke:#000000;stroke-width:0.8;" x="642.475386" xlink:href="#m398afc84e7" y="327.718125"/>
      </g>
     </g>
     <g id="text_15">
      <!-- 120 -->
      <g transform="translate(632.931636 342.316562)scale(0.1 -0.1)">
       <use xlink:href="#DejaVuSans-49"/>
       <use x="63.623047" xlink:href="#DejaVuSans-50"/>
       <use x="127.246094" xlink:href="#DejaVuSans-48"/>
      </g>
     </g>
    </g>
   </g>
   <g id="matplotlib.axis_4">
    <g id="ytick_6">
     <g id="line2d_27">
      <g>
       <use style="stroke:#000000;stroke-width:0.8;" x="44.845313" xlink:href="#m036cb17aff" y="314.734864"/>
      </g>
     </g>
     <g id="text_16">
      <!-- −0.20 -->
      <g transform="translate(7.2 318.534083)scale(0.1 -0.1)">
       <use xlink:href="#DejaVuSans-8722"/>
       <use x="83.789062" xlink:href="#DejaVuSans-48"/>
       <use x="147.412109" xlink:href="#DejaVuSans-46"/>
       <use x="179.199219" xlink:href="#DejaVuSans-50"/>
       <use x="242.822266" xlink:href="#DejaVuSans-48"/>
      </g>
     </g>
    </g>
    <g id="ytick_7">
     <g id="line2d_28">
      <g>
       <use style="stroke:#000000;stroke-width:0.8;" x="44.845313" xlink:href="#m036cb17aff" y="286.074921"/>
      </g>
     </g>
     <g id="text_17">
      <!-- −0.15 -->
      <g transform="translate(7.2 289.874139)scale(0.1 -0.1)">
       <use xlink:href="#DejaVuSans-8722"/>
       <use x="83.789062" xlink:href="#DejaVuSans-48"/>
       <use x="147.412109" xlink:href="#DejaVuSans-46"/>
       <use x="179.199219" xlink:href="#DejaVuSans-49"/>
       <use x="242.822266" xlink:href="#DejaVuSans-53"/>
      </g>
     </g>
    </g>
    <g id="ytick_8">
     <g id="line2d_29">
      <g>
       <use style="stroke:#000000;stroke-width:0.8;" x="44.845313" xlink:href="#m036cb17aff" y="257.414977"/>
      </g>
     </g>
     <g id="text_18">
      <!-- −0.10 -->
      <g transform="translate(7.2 261.214196)scale(0.1 -0.1)">
       <use xlink:href="#DejaVuSans-8722"/>
       <use x="83.789062" xlink:href="#DejaVuSans-48"/>
       <use x="147.412109" xlink:href="#DejaVuSans-46"/>
       <use x="179.199219" xlink:href="#DejaVuSans-49"/>
       <use x="242.822266" xlink:href="#DejaVuSans-48"/>
      </g>
     </g>
    </g>
    <g id="ytick_9">
     <g id="line2d_30">
      <g>
       <use style="stroke:#000000;stroke-width:0.8;" x="44.845313" xlink:href="#m036cb17aff" y="228.755034"/>
      </g>
     </g>
     <g id="text_19">
      <!-- −0.05 -->
      <g transform="translate(7.2 232.554252)scale(0.1 -0.1)">
       <use xlink:href="#DejaVuSans-8722"/>
       <use x="83.789062" xlink:href="#DejaVuSans-48"/>
       <use x="147.412109" xlink:href="#DejaVuSans-46"/>
       <use x="179.199219" xlink:href="#DejaVuSans-48"/>
       <use x="242.822266" xlink:href="#DejaVuSans-53"/>
      </g>
     </g>
    </g>
    <g id="ytick_10">
     <g id="line2d_31">
      <g>
       <use style="stroke:#000000;stroke-width:0.8;" x="44.845313" xlink:href="#m036cb17aff" y="200.09509"/>
      </g>
     </g>
     <g id="text_20">
      <!-- 0.00 -->
      <g transform="translate(15.579688 203.894309)scale(0.1 -0.1)">
       <use xlink:href="#DejaVuSans-48"/>
       <use x="63.623047" xlink:href="#DejaVuSans-46"/>
       <use x="95.410156" xlink:href="#DejaVuSans-48"/>
       <use x="159.033203" xlink:href="#DejaVuSans-48"/>
      </g>
     </g>
    </g>
   </g>
   <g id="line2d_32">
    <path clip-path="url(#p1f06046898)" d="M 74.88054 319.358672
L 79.610497 318.809345
L 84.340454 318.393126
L 89.070411 318.577781
L 93.800368 318.420612
L 98.530325 318.416008
L 103.260282 318.735069
L 107.990239 319.250991
L 122.18011 319.185436
L 126.910067 318.85153
L 131.640024 319.064491
L 136.369981 319.115825
L 145.829896 318.080897
L 155.28981 318.350573
L 160.019767 318.241483
L 164.749724 319.215792
L 169.479681 319.107821
L 178.939595 320.575418
L 183.669552 321.159747
L 188.399509 320.822971
L 193.129466 320.815925
L 202.58938 321.400801
L 207.319337 321.492202
L 212.049294 321.438656
L 216.779251 320.95637
L 221.509208 320.603024
L 226.239165 319.941592
L 230.969122 319.615595
L 240.429037 319.492583
L 245.158994 317.907987
L 249.888951 317.217463
L 254.618908 316.671552
L 259.348865 317.220726
L 264.078822 317.017493
L 268.808779 317.697742
L 273.538736 318.4927
L 278.268693 317.675628
L 282.99865 315.54168
L 287.728607 314.213435
L 292.458564 312.628796
L 297.188521 311.684826
L 306.648435 312.032654
L 311.378392 312.311896
L 316.108349 313.053864
L 325.568263 313.09312
L 330.298221 313.019468
L 335.028178 312.53321
L 344.488092 309.74913
L 349.218049 309.157549
L 358.677963 304.574306
L 372.867834 300.75342
L 377.597791 300.362568
L 382.327748 299.729425
L 387.057705 297.723657
L 391.787662 296.867628
L 401.247576 292.705634
L 405.977533 291.657964
L 410.70749 289.451397
L 415.437447 287.066777
L 429.627319 282.223135
L 434.357276 280.179562
L 443.81719 274.881581
L 448.547147 272.845875
L 458.007061 268.144254
L 462.737018 266.508709
L 472.196932 263.697352
L 476.926889 259.892143
L 481.656846 257.419996
L 486.386803 255.255811
L 491.11676 252.022918
L 495.846717 248.611055
L 500.576674 246.010451
L 510.036588 237.904358
L 514.766545 235.650064
L 519.496503 231.750486
L 524.22646 228.393533
L 538.416331 223.029707
L 547.876245 220.951358
L 552.606202 221.273614
L 557.336159 219.11226
L 562.066116 217.56569
L 566.796073 215.694793
L 571.52603 213.444289
L 576.255987 212.005687
L 580.985944 210.382894
L 595.175815 206.952802
L 599.905772 205.817383
L 604.635729 205.93549
L 609.365687 205.47988
L 614.095644 204.028492
L 618.825601 204.480882
L 623.555558 203.79847
L 628.285515 202.242961
L 633.015472 202.677862
L 637.745429 201.100531
L 642.475386 200.90552
L 647.205343 201.398079
L 651.9353 200.751369
L 656.665257 200.401494
L 661.395214 198.147011
L 670.855128 200.000762
L 675.585085 196.973733
L 675.585085 196.973733
" style="fill:none;stroke:#1f77b4;stroke-linecap:square;stroke-width:1.5;"/>
   </g>
   <g id="line2d_33">
    <path clip-path="url(#p1f06046898)" d="M 346.883354 327.718125
L 346.883354 190.747809
" style="fill:none;stroke:#008000;stroke-dasharray:5.55,2.4;stroke-dashoffset:0;stroke-width:1.5;"/>
   </g>
   <g id="line2d_34">
    <path clip-path="url(#p1f06046898)" d="M 419.244887 327.718125
L 419.244887 190.747809
" style="fill:none;stroke:#ff0000;stroke-linecap:square;stroke-width:1.5;"/>
   </g>
   <g id="patch_9">
    <path d="M 44.845313 327.718125
L 44.845313 190.747809
" style="fill:none;stroke:#000000;stroke-linecap:square;stroke-linejoin:miter;stroke-width:0.8;"/>
   </g>
   <g id="patch_10">
    <path d="M 705.620313 327.718125
L 705.620313 190.747809
" style="fill:none;stroke:#000000;stroke-linecap:square;stroke-linejoin:miter;stroke-width:0.8;"/>
   </g>
   <g id="patch_11">
    <path d="M 44.845313 327.718125
L 705.620313 327.718125
" style="fill:none;stroke:#000000;stroke-linecap:square;stroke-linejoin:miter;stroke-width:0.8;"/>
   </g>
   <g id="patch_12">
    <path d="M 44.845313 190.747809
L 705.620313 190.747809
" style="fill:none;stroke:#000000;stroke-linecap:square;stroke-linejoin:miter;stroke-width:0.8;"/>
   </g>
   <g id="text_21">
    <!-- Cumulative (from end) average weights for non-blank space -->
    <defs>
     <path d="M 45.40625 46.390625
L 45.40625 75.984375
L 54.390625 75.984375
L 54.390625 0
L 45.40625 0
L 45.40625 8.203125
Q 42.578125 3.328125 38.25 0.953125
Q 33.9375 -1.421875 27.875 -1.421875
Q 17.96875 -1.421875 11.734375 6.484375
Q 5.515625 14.40625 5.515625 27.296875
Q 5.515625 40.1875 11.734375 48.09375
Q 17.96875 56 27.875 56
Q 33.9375 56 38.25 53.625
Q 42.578125 51.265625 45.40625 46.390625
z
M 14.796875 27.296875
Q 14.796875 17.390625 18.875 11.75
Q 22.953125 6.109375 30.078125 6.109375
Q 37.203125 6.109375 41.296875 11.75
Q 45.40625 17.390625 45.40625 27.296875
Q 45.40625 37.203125 41.296875 42.84375
Q 37.203125 48.484375 30.078125 48.484375
Q 22.953125 48.484375 18.875 42.84375
Q 14.796875 37.203125 14.796875 27.296875
z
" id="DejaVuSans-100"/>
     <path d="M 4.890625 31.390625
L 31.203125 31.390625
L 31.203125 23.390625
L 4.890625 23.390625
z
" id="DejaVuSans-45"/>
    </defs>
    <g transform="translate(194.0525 184.747809)scale(0.12 -0.12)">
     <use xlink:href="#DejaVuSans-67"/>
     <use x="69.824219" xlink:href="#DejaVuSans-117"/>
     <use x="133.203125" xlink:href="#DejaVuSans-109"/>
     <use x="230.615234" xlink:href="#DejaVuSans-117"/>
     <use x="293.994141" xlink:href="#DejaVuSans-108"/>
     <use x="321.777344" xlink:href="#DejaVuSans-97"/>
     <use x="383.056641" xlink:href="#DejaVuSans-116"/>
     <use x="422.265625" xlink:href="#DejaVuSans-105"/>
     <use x="450.048828" xlink:href="#DejaVuSans-118"/>
     <use x="509.228516" xlink:href="#DejaVuSans-101"/>
     <use x="570.751953" xlink:href="#DejaVuSans-32"/>
     <use x="602.539062" xlink:href="#DejaVuSans-40"/>
     <use x="641.552734" xlink:href="#DejaVuSans-102"/>
     <use x="676.757812" xlink:href="#DejaVuSans-114"/>
     <use x="715.621094" xlink:href="#DejaVuSans-111"/>
     <use x="776.802734" xlink:href="#DejaVuSans-109"/>
     <use x="874.214844" xlink:href="#DejaVuSans-32"/>
     <use x="906.001953" xlink:href="#DejaVuSans-101"/>
     <use x="967.525391" xlink:href="#DejaVuSans-110"/>
     <use x="1030.904297" xlink:href="#DejaVuSans-100"/>
     <use x="1094.380859" xlink:href="#DejaVuSans-41"/>
     <use x="1133.394531" xlink:href="#DejaVuSans-32"/>
     <use x="1165.181641" xlink:href="#DejaVuSans-97"/>
     <use x="1226.460938" xlink:href="#DejaVuSans-118"/>
     <use x="1285.640625" xlink:href="#DejaVuSans-101"/>
     <use x="1347.164062" xlink:href="#DejaVuSans-114"/>
     <use x="1388.277344" xlink:href="#DejaVuSans-97"/>
     <use x="1449.556641" xlink:href="#DejaVuSans-103"/>
     <use x="1513.033203" xlink:href="#DejaVuSans-101"/>
     <use x="1574.556641" xlink:href="#DejaVuSans-32"/>
     <use x="1606.34375" xlink:href="#DejaVuSans-119"/>
     <use x="1688.130859" xlink:href="#DejaVuSans-101"/>
     <use x="1749.654297" xlink:href="#DejaVuSans-105"/>
     <use x="1777.4375" xlink:href="#DejaVuSans-103"/>
     <use x="1840.914062" xlink:href="#DejaVuSans-104"/>
     <use x="1904.292969" xlink:href="#DejaVuSans-116"/>
     <use x="1943.501953" xlink:href="#DejaVuSans-115"/>
     <use x="1995.601562" xlink:href="#DejaVuSans-32"/>
     <use x="2027.388672" xlink:href="#DejaVuSans-102"/>
     <use x="2062.59375" xlink:href="#DejaVuSans-111"/>
     <use x="2123.775391" xlink:href="#DejaVuSans-114"/>
     <use x="2164.888672" xlink:href="#DejaVuSans-32"/>
     <use x="2196.675781" xlink:href="#DejaVuSans-110"/>
     <use x="2260.054688" xlink:href="#DejaVuSans-111"/>
     <use x="2321.236328" xlink:href="#DejaVuSans-110"/>
     <use x="2384.615234" xlink:href="#DejaVuSans-45"/>
     <use x="2420.699219" xlink:href="#DejaVuSans-98"/>
     <use x="2484.175781" xlink:href="#DejaVuSans-108"/>
     <use x="2511.958984" xlink:href="#DejaVuSans-97"/>
     <use x="2573.238281" xlink:href="#DejaVuSans-110"/>
     <use x="2636.617188" xlink:href="#DejaVuSans-107"/>
     <use x="2694.527344" xlink:href="#DejaVuSans-32"/>
     <use x="2726.314453" xlink:href="#DejaVuSans-115"/>
     <use x="2778.414062" xlink:href="#DejaVuSans-112"/>
     <use x="2841.890625" xlink:href="#DejaVuSans-97"/>
     <use x="2903.169922" xlink:href="#DejaVuSans-99"/>
     <use x="2958.150391" xlink:href="#DejaVuSans-101"/>
    </g>
   </g>
   <g id="legend_2">
    <g id="patch_13">
     <path d="M 51.845313 228.104059
L 166.704688 228.104059
Q 168.704688 228.104059 168.704688 226.104059
L 168.704688 197.747809
Q 168.704688 195.747809 166.704688 195.747809
L 51.845313 195.747809
Q 49.845313 195.747809 49.845313 197.747809
L 49.845313 226.104059
Q 49.845313 228.104059 51.845313 228.104059
z
" style="fill:#ffffff;opacity:0.8;stroke:#cccccc;stroke-linejoin:miter;"/>
    </g>
    <g id="line2d_35">
     <path d="M 53.845313 203.846247
L 73.845313 203.846247
" style="fill:none;stroke:#008000;stroke-dasharray:5.55,2.4;stroke-dashoffset:0;stroke-width:1.5;"/>
    </g>
    <g id="line2d_36"/>
    <g id="text_22">
     <!-- arxiv mean start -->
     <g transform="translate(81.845313 207.346247)scale(0.1 -0.1)">
      <use xlink:href="#DejaVuSans-97"/>
      <use x="61.279297" xlink:href="#DejaVuSans-114"/>
      <use x="99.767578" xlink:href="#DejaVuSans-120"/>
      <use x="158.947266" xlink:href="#DejaVuSans-105"/>
      <use x="186.730469" xlink:href="#DejaVuSans-118"/>
      <use x="245.910156" xlink:href="#DejaVuSans-32"/>
      <use x="277.697266" xlink:href="#DejaVuSans-109"/>
      <use x="375.109375" xlink:href="#DejaVuSans-101"/>
      <use x="436.632812" xlink:href="#DejaVuSans-97"/>
      <use x="497.912109" xlink:href="#DejaVuSans-110"/>
      <use x="561.291016" xlink:href="#DejaVuSans-32"/>
      <use x="593.078125" xlink:href="#DejaVuSans-115"/>
      <use x="645.177734" xlink:href="#DejaVuSans-116"/>
      <use x="684.386719" xlink:href="#DejaVuSans-97"/>
      <use x="745.666016" xlink:href="#DejaVuSans-114"/>
      <use x="786.779297" xlink:href="#DejaVuSans-116"/>
     </g>
    </g>
    <g id="line2d_37">
     <path d="M 53.845313 218.524372
L 73.845313 218.524372
" style="fill:none;stroke:#ff0000;stroke-linecap:square;stroke-width:1.5;"/>
    </g>
    <g id="line2d_38"/>
    <g id="text_23">
     <!-- vixra mean start -->
     <g transform="translate(81.845313 222.024372)scale(0.1 -0.1)">
      <use xlink:href="#DejaVuSans-118"/>
      <use x="59.179688" xlink:href="#DejaVuSans-105"/>
      <use x="86.962891" xlink:href="#DejaVuSans-120"/>
      <use x="146.142578" xlink:href="#DejaVuSans-114"/>
      <use x="187.255859" xlink:href="#DejaVuSans-97"/>
      <use x="248.535156" xlink:href="#DejaVuSans-32"/>
      <use x="280.322266" xlink:href="#DejaVuSans-109"/>
      <use x="377.734375" xlink:href="#DejaVuSans-101"/>
      <use x="439.257812" xlink:href="#DejaVuSans-97"/>
      <use x="500.537109" xlink:href="#DejaVuSans-110"/>
      <use x="563.916016" xlink:href="#DejaVuSans-32"/>
      <use x="595.703125" xlink:href="#DejaVuSans-115"/>
      <use x="647.802734" xlink:href="#DejaVuSans-116"/>
      <use x="687.011719" xlink:href="#DejaVuSans-97"/>
      <use x="748.291016" xlink:href="#DejaVuSans-114"/>
      <use x="789.404297" xlink:href="#DejaVuSans-116"/>
     </g>
    </g>
   </g>
  </g>
 </g>
 <defs>
  <clipPath id="p02ca5025c1">
   <rect height="136.970316" width="660.775" x="44.845313" y="22.318125"/>
  </clipPath>
  <clipPath id="p1f06046898">
   <rect height="136.970316" width="660.775" x="44.845313" y="190.747809"/>
  </clipPath>
 </defs>
</svg>
