<?xml version="1.0" encoding="utf-8" standalone="no"?>
<!DOCTYPE svg PUBLIC "-//W3C//DTD SVG 1.1//EN"
  "http://www.w3.org/Graphics/SVG/1.1/DTD/svg11.dtd">
<!-- Created with matplotlib (https://matplotlib.org/) -->
<svg height="470.797187pt" version="1.1" viewBox="0 0 707.361719 470.797187" width="707.361719pt" xmlns="http://www.w3.org/2000/svg" xmlns:xlink="http://www.w3.org/1999/xlink">
 <defs>
  <style type="text/css">
*{stroke-linecap:butt;stroke-linejoin:round;}
  </style>
 </defs>
 <g id="figure_1">
  <g id="patch_1">
   <path d="M 0 470.797187
L 707.361719 470.797187
L 707.361719 0
L 0 0
z
" style="fill:#ffffff;"/>
  </g>
  <g id="axes_1">
   <g id="patch_2">
    <path d="M 142.161719 442.08
L 700.161719 442.08
L 700.161719 7.2
L 142.161719 7.2
z
" style="fill:#ffffff;"/>
   </g>
   <g id="patch_3">
    <path clip-path="url(#pabb28b4840)" d="M 142.161719 431.208
L 152.791461 431.208
L 152.791461 409.464
L 142.161719 409.464
z
" style="fill:#1f77b4;"/>
   </g>
   <g id="patch_4">
    <path clip-path="url(#pabb28b4840)" d="M 142.161719 387.72
L 162.371352 387.72
L 162.371352 365.976
L 142.161719 365.976
z
" style="fill:#1f77b4;"/>
   </g>
   <g id="patch_5">
    <path clip-path="url(#pabb28b4840)" d="M 142.161719 344.232
L 165.717753 344.232
L 165.717753 322.488
L 142.161719 322.488
z
" style="fill:#1f77b4;"/>
   </g>
   <g id="patch_6">
    <path clip-path="url(#pabb28b4840)" d="M 142.161719 300.744
L 174.116561 300.744
L 174.116561 279
L 142.161719 279
z
" style="fill:#1f77b4;"/>
   </g>
   <g id="patch_7">
    <path clip-path="url(#pabb28b4840)" d="M 142.161719 257.256
L 194.194963 257.256
L 194.194963 235.512
L 142.161719 235.512
z
" style="fill:#1f77b4;"/>
   </g>
   <g id="patch_8">
    <path clip-path="url(#pabb28b4840)" d="M 142.161719 213.768
L 205.2184 213.768
L 205.2184 192.024
L 142.161719 192.024
z
" style="fill:#1f77b4;"/>
   </g>
   <g id="patch_9">
    <path clip-path="url(#pabb28b4840)" d="M 142.161719 170.28
L 209.02411 170.28
L 209.02411 148.536
L 142.161719 148.536
z
" style="fill:#1f77b4;"/>
   </g>
   <g id="patch_10">
    <path clip-path="url(#pabb28b4840)" d="M 142.161719 126.792
L 216.963609 126.792
L 216.963609 105.048
L 142.161719 105.048
z
" style="fill:#1f77b4;"/>
   </g>
   <g id="patch_11">
    <path clip-path="url(#pabb28b4840)" d="M 142.161719 83.304
L 347.21076 83.304
L 347.21076 61.56
L 142.161719 61.56
z
" style="fill:#1f77b4;"/>
   </g>
   <g id="patch_12">
    <path clip-path="url(#pabb28b4840)" d="M 142.161719 39.816
L 652.586195 39.816
L 652.586195 18.072
L 142.161719 18.072
z
" style="fill:#1f77b4;"/>
   </g>
   <g id="matplotlib.axis_1">
    <g id="xtick_1">
     <g id="line2d_1">
      <defs>
       <path d="M 0 0
L 0 3.5
" id="mcb45551e49" style="stroke:#000000;stroke-width:0.8;"/>
      </defs>
      <g>
       <use style="stroke:#000000;stroke-width:0.8;" x="142.161719" xlink:href="#mcb45551e49" y="442.08"/>
      </g>
     </g>
     <g id="text_1">
      <!-- 0.00 -->
      <defs>
       <path d="M 31.78125 66.40625
Q 24.171875 66.40625 20.328125 58.90625
Q 16.5 51.421875 16.5 36.375
Q 16.5 21.390625 20.328125 13.890625
Q 24.171875 6.390625 31.78125 6.390625
Q 39.453125 6.390625 43.28125 13.890625
Q 47.125 21.390625 47.125 36.375
Q 47.125 51.421875 43.28125 58.90625
Q 39.453125 66.40625 31.78125 66.40625
z
M 31.78125 74.21875
Q 44.046875 74.21875 50.515625 64.515625
Q 56.984375 54.828125 56.984375 36.375
Q 56.984375 17.96875 50.515625 8.265625
Q 44.046875 -1.421875 31.78125 -1.421875
Q 19.53125 -1.421875 13.0625 8.265625
Q 6.59375 17.96875 6.59375 36.375
Q 6.59375 54.828125 13.0625 64.515625
Q 19.53125 74.21875 31.78125 74.21875
z
" id="DejaVuSans-48"/>
       <path d="M 10.6875 12.40625
L 21 12.40625
L 21 0
L 10.6875 0
z
" id="DejaVuSans-46"/>
      </defs>
      <g transform="translate(125.4625 460.477656)scale(0.15 -0.15)">
       <use xlink:href="#DejaVuSans-48"/>
       <use x="63.623047" xlink:href="#DejaVuSans-46"/>
       <use x="95.410156" xlink:href="#DejaVuSans-48"/>
       <use x="159.033203" xlink:href="#DejaVuSans-48"/>
      </g>
     </g>
    </g>
    <g id="xtick_2">
     <g id="line2d_2">
      <g>
       <use style="stroke:#000000;stroke-width:0.8;" x="240.978953" xlink:href="#mcb45551e49" y="442.08"/>
      </g>
     </g>
     <g id="text_2">
      <!-- 0.02 -->
      <defs>
       <path d="M 19.1875 8.296875
L 53.609375 8.296875
L 53.609375 0
L 7.328125 0
L 7.328125 8.296875
Q 12.9375 14.109375 22.625 23.890625
Q 32.328125 33.6875 34.8125 36.53125
Q 39.546875 41.84375 41.421875 45.53125
Q 43.3125 49.21875 43.3125 52.78125
Q 43.3125 58.59375 39.234375 62.25
Q 35.15625 65.921875 28.609375 65.921875
Q 23.96875 65.921875 18.8125 64.3125
Q 13.671875 62.703125 7.8125 59.421875
L 7.8125 69.390625
Q 13.765625 71.78125 18.9375 73
Q 24.125 74.21875 28.421875 74.21875
Q 39.75 74.21875 46.484375 68.546875
Q 53.21875 62.890625 53.21875 53.421875
Q 53.21875 48.921875 51.53125 44.890625
Q 49.859375 40.875 45.40625 35.40625
Q 44.1875 33.984375 37.640625 27.21875
Q 31.109375 20.453125 19.1875 8.296875
z
" id="DejaVuSans-50"/>
      </defs>
      <g transform="translate(224.279734 460.477656)scale(0.15 -0.15)">
       <use xlink:href="#DejaVuSans-48"/>
       <use x="63.623047" xlink:href="#DejaVuSans-46"/>
       <use x="95.410156" xlink:href="#DejaVuSans-48"/>
       <use x="159.033203" xlink:href="#DejaVuSans-50"/>
      </g>
     </g>
    </g>
    <g id="xtick_3">
     <g id="line2d_3">
      <g>
       <use style="stroke:#000000;stroke-width:0.8;" x="339.796186" xlink:href="#mcb45551e49" y="442.08"/>
      </g>
     </g>
     <g id="text_3">
      <!-- 0.04 -->
      <defs>
       <path d="M 37.796875 64.3125
L 12.890625 25.390625
L 37.796875 25.390625
z
M 35.203125 72.90625
L 47.609375 72.90625
L 47.609375 25.390625
L 58.015625 25.390625
L 58.015625 17.1875
L 47.609375 17.1875
L 47.609375 0
L 37.796875 0
L 37.796875 17.1875
L 4.890625 17.1875
L 4.890625 26.703125
z
" id="DejaVuSans-52"/>
      </defs>
      <g transform="translate(323.096968 460.477656)scale(0.15 -0.15)">
       <use xlink:href="#DejaVuSans-48"/>
       <use x="63.623047" xlink:href="#DejaVuSans-46"/>
       <use x="95.410156" xlink:href="#DejaVuSans-48"/>
       <use x="159.033203" xlink:href="#DejaVuSans-52"/>
      </g>
     </g>
    </g>
    <g id="xtick_4">
     <g id="line2d_4">
      <g>
       <use style="stroke:#000000;stroke-width:0.8;" x="438.61342" xlink:href="#mcb45551e49" y="442.08"/>
      </g>
     </g>
     <g id="text_4">
      <!-- 0.06 -->
      <defs>
       <path d="M 33.015625 40.375
Q 26.375 40.375 22.484375 35.828125
Q 18.609375 31.296875 18.609375 23.390625
Q 18.609375 15.53125 22.484375 10.953125
Q 26.375 6.390625 33.015625 6.390625
Q 39.65625 6.390625 43.53125 10.953125
Q 47.40625 15.53125 47.40625 23.390625
Q 47.40625 31.296875 43.53125 35.828125
Q 39.65625 40.375 33.015625 40.375
z
M 52.59375 71.296875
L 52.59375 62.3125
Q 48.875 64.0625 45.09375 64.984375
Q 41.3125 65.921875 37.59375 65.921875
Q 27.828125 65.921875 22.671875 59.328125
Q 17.53125 52.734375 16.796875 39.40625
Q 19.671875 43.65625 24.015625 45.921875
Q 28.375 48.1875 33.59375 48.1875
Q 44.578125 48.1875 50.953125 41.515625
Q 57.328125 34.859375 57.328125 23.390625
Q 57.328125 12.15625 50.6875 5.359375
Q 44.046875 -1.421875 33.015625 -1.421875
Q 20.359375 -1.421875 13.671875 8.265625
Q 6.984375 17.96875 6.984375 36.375
Q 6.984375 53.65625 15.1875 63.9375
Q 23.390625 74.21875 37.203125 74.21875
Q 40.921875 74.21875 44.703125 73.484375
Q 48.484375 72.75 52.59375 71.296875
z
" id="DejaVuSans-54"/>
      </defs>
      <g transform="translate(421.914201 460.477656)scale(0.15 -0.15)">
       <use xlink:href="#DejaVuSans-48"/>
       <use x="63.623047" xlink:href="#DejaVuSans-46"/>
       <use x="95.410156" xlink:href="#DejaVuSans-48"/>
       <use x="159.033203" xlink:href="#DejaVuSans-54"/>
      </g>
     </g>
    </g>
    <g id="xtick_5">
     <g id="line2d_5">
      <g>
       <use style="stroke:#000000;stroke-width:0.8;" x="537.430654" xlink:href="#mcb45551e49" y="442.08"/>
      </g>
     </g>
     <g id="text_5">
      <!-- 0.08 -->
      <defs>
       <path d="M 31.78125 34.625
Q 24.75 34.625 20.71875 30.859375
Q 16.703125 27.09375 16.703125 20.515625
Q 16.703125 13.921875 20.71875 10.15625
Q 24.75 6.390625 31.78125 6.390625
Q 38.8125 6.390625 42.859375 10.171875
Q 46.921875 13.96875 46.921875 20.515625
Q 46.921875 27.09375 42.890625 30.859375
Q 38.875 34.625 31.78125 34.625
z
M 21.921875 38.8125
Q 15.578125 40.375 12.03125 44.71875
Q 8.5 49.078125 8.5 55.328125
Q 8.5 64.0625 14.71875 69.140625
Q 20.953125 74.21875 31.78125 74.21875
Q 42.671875 74.21875 48.875 69.140625
Q 55.078125 64.0625 55.078125 55.328125
Q 55.078125 49.078125 51.53125 44.71875
Q 48 40.375 41.703125 38.8125
Q 48.828125 37.15625 52.796875 32.3125
Q 56.78125 27.484375 56.78125 20.515625
Q 56.78125 9.90625 50.3125 4.234375
Q 43.84375 -1.421875 31.78125 -1.421875
Q 19.734375 -1.421875 13.25 4.234375
Q 6.78125 9.90625 6.78125 20.515625
Q 6.78125 27.484375 10.78125 32.3125
Q 14.796875 37.15625 21.921875 38.8125
z
M 18.3125 54.390625
Q 18.3125 48.734375 21.84375 45.5625
Q 25.390625 42.390625 31.78125 42.390625
Q 38.140625 42.390625 41.71875 45.5625
Q 45.3125 48.734375 45.3125 54.390625
Q 45.3125 60.0625 41.71875 63.234375
Q 38.140625 66.40625 31.78125 66.40625
Q 25.390625 66.40625 21.84375 63.234375
Q 18.3125 60.0625 18.3125 54.390625
z
" id="DejaVuSans-56"/>
      </defs>
      <g transform="translate(520.731435 460.477656)scale(0.15 -0.15)">
       <use xlink:href="#DejaVuSans-48"/>
       <use x="63.623047" xlink:href="#DejaVuSans-46"/>
       <use x="95.410156" xlink:href="#DejaVuSans-48"/>
       <use x="159.033203" xlink:href="#DejaVuSans-56"/>
      </g>
     </g>
    </g>
    <g id="xtick_6">
     <g id="line2d_6">
      <g>
       <use style="stroke:#000000;stroke-width:0.8;" x="636.247888" xlink:href="#mcb45551e49" y="442.08"/>
      </g>
     </g>
     <g id="text_6">
      <!-- 0.10 -->
      <defs>
       <path d="M 12.40625 8.296875
L 28.515625 8.296875
L 28.515625 63.921875
L 10.984375 60.40625
L 10.984375 69.390625
L 28.421875 72.90625
L 38.28125 72.90625
L 38.28125 8.296875
L 54.390625 8.296875
L 54.390625 0
L 12.40625 0
z
" id="DejaVuSans-49"/>
      </defs>
      <g transform="translate(619.548669 460.477656)scale(0.15 -0.15)">
       <use xlink:href="#DejaVuSans-48"/>
       <use x="63.623047" xlink:href="#DejaVuSans-46"/>
       <use x="95.410156" xlink:href="#DejaVuSans-49"/>
       <use x="159.033203" xlink:href="#DejaVuSans-48"/>
      </g>
     </g>
    </g>
   </g>
   <g id="matplotlib.axis_2">
    <g id="ytick_1">
     <g id="line2d_7">
      <defs>
       <path d="M 0 0
L -3.5 0
" id="m8bca09c325" style="stroke:#000000;stroke-width:0.8;"/>
      </defs>
      <g>
       <use style="stroke:#000000;stroke-width:0.8;" x="142.161719" xlink:href="#m8bca09c325" y="420.336"/>
      </g>
     </g>
     <g id="text_7">
      <!-- ?_percent -->
      <defs>
       <path d="M 19.09375 12.40625
L 29 12.40625
L 29 0
L 19.09375 0
z
M 28.71875 19.578125
L 19.390625 19.578125
L 19.390625 27.09375
Q 19.390625 32.03125 20.75 35.203125
Q 22.125 38.375 26.515625 42.578125
L 30.90625 46.921875
Q 33.6875 49.515625 34.9375 51.8125
Q 36.1875 54.109375 36.1875 56.5
Q 36.1875 60.84375 32.984375 63.53125
Q 29.78125 66.21875 24.515625 66.21875
Q 20.65625 66.21875 16.28125 64.5
Q 11.921875 62.796875 7.171875 59.515625
L 7.171875 68.703125
Q 11.765625 71.484375 16.46875 72.84375
Q 21.1875 74.21875 26.21875 74.21875
Q 35.203125 74.21875 40.640625 69.484375
Q 46.09375 64.75 46.09375 56.984375
Q 46.09375 53.265625 44.328125 49.921875
Q 42.578125 46.578125 38.1875 42.390625
L 33.890625 38.1875
Q 31.59375 35.890625 30.640625 34.59375
Q 29.6875 33.296875 29.296875 32.078125
Q 29 31.0625 28.859375 29.59375
Q 28.71875 28.125 28.71875 25.59375
z
" id="DejaVuSans-63"/>
       <path d="M 50.984375 -16.609375
L 50.984375 -23.578125
L -0.984375 -23.578125
L -0.984375 -16.609375
z
" id="DejaVuSans-95"/>
       <path d="M 18.109375 8.203125
L 18.109375 -20.796875
L 9.078125 -20.796875
L 9.078125 54.6875
L 18.109375 54.6875
L 18.109375 46.390625
Q 20.953125 51.265625 25.265625 53.625
Q 29.59375 56 35.59375 56
Q 45.5625 56 51.78125 48.09375
Q 58.015625 40.1875 58.015625 27.296875
Q 58.015625 14.40625 51.78125 6.484375
Q 45.5625 -1.421875 35.59375 -1.421875
Q 29.59375 -1.421875 25.265625 0.953125
Q 20.953125 3.328125 18.109375 8.203125
z
M 48.6875 27.296875
Q 48.6875 37.203125 44.609375 42.84375
Q 40.53125 48.484375 33.40625 48.484375
Q 26.265625 48.484375 22.1875 42.84375
Q 18.109375 37.203125 18.109375 27.296875
Q 18.109375 17.390625 22.1875 11.75
Q 26.265625 6.109375 33.40625 6.109375
Q 40.53125 6.109375 44.609375 11.75
Q 48.6875 17.390625 48.6875 27.296875
z
" id="DejaVuSans-112"/>
       <path d="M 56.203125 29.59375
L 56.203125 25.203125
L 14.890625 25.203125
Q 15.484375 15.921875 20.484375 11.0625
Q 25.484375 6.203125 34.421875 6.203125
Q 39.59375 6.203125 44.453125 7.46875
Q 49.3125 8.734375 54.109375 11.28125
L 54.109375 2.78125
Q 49.265625 0.734375 44.1875 -0.34375
Q 39.109375 -1.421875 33.890625 -1.421875
Q 20.796875 -1.421875 13.15625 6.1875
Q 5.515625 13.8125 5.515625 26.8125
Q 5.515625 40.234375 12.765625 48.109375
Q 20.015625 56 32.328125 56
Q 43.359375 56 49.78125 48.890625
Q 56.203125 41.796875 56.203125 29.59375
z
M 47.21875 32.234375
Q 47.125 39.59375 43.09375 43.984375
Q 39.0625 48.390625 32.421875 48.390625
Q 24.90625 48.390625 20.390625 44.140625
Q 15.875 39.890625 15.1875 32.171875
z
" id="DejaVuSans-101"/>
       <path d="M 41.109375 46.296875
Q 39.59375 47.171875 37.8125 47.578125
Q 36.03125 48 33.890625 48
Q 26.265625 48 22.1875 43.046875
Q 18.109375 38.09375 18.109375 28.8125
L 18.109375 0
L 9.078125 0
L 9.078125 54.6875
L 18.109375 54.6875
L 18.109375 46.1875
Q 20.953125 51.171875 25.484375 53.578125
Q 30.03125 56 36.53125 56
Q 37.453125 56 38.578125 55.875
Q 39.703125 55.765625 41.0625 55.515625
z
" id="DejaVuSans-114"/>
       <path d="M 48.78125 52.59375
L 48.78125 44.1875
Q 44.96875 46.296875 41.140625 47.34375
Q 37.3125 48.390625 33.40625 48.390625
Q 24.65625 48.390625 19.8125 42.84375
Q 14.984375 37.3125 14.984375 27.296875
Q 14.984375 17.28125 19.8125 11.734375
Q 24.65625 6.203125 33.40625 6.203125
Q 37.3125 6.203125 41.140625 7.25
Q 44.96875 8.296875 48.78125 10.40625
L 48.78125 2.09375
Q 45.015625 0.34375 40.984375 -0.53125
Q 36.96875 -1.421875 32.421875 -1.421875
Q 20.0625 -1.421875 12.78125 6.34375
Q 5.515625 14.109375 5.515625 27.296875
Q 5.515625 40.671875 12.859375 48.328125
Q 20.21875 56 33.015625 56
Q 37.15625 56 41.109375 55.140625
Q 45.0625 54.296875 48.78125 52.59375
z
" id="DejaVuSans-99"/>
       <path d="M 54.890625 33.015625
L 54.890625 0
L 45.90625 0
L 45.90625 32.71875
Q 45.90625 40.484375 42.875 44.328125
Q 39.84375 48.1875 33.796875 48.1875
Q 26.515625 48.1875 22.3125 43.546875
Q 18.109375 38.921875 18.109375 30.90625
L 18.109375 0
L 9.078125 0
L 9.078125 54.6875
L 18.109375 54.6875
L 18.109375 46.1875
Q 21.34375 51.125 25.703125 53.5625
Q 30.078125 56 35.796875 56
Q 45.21875 56 50.046875 50.171875
Q 54.890625 44.34375 54.890625 33.015625
z
" id="DejaVuSans-110"/>
       <path d="M 18.3125 70.21875
L 18.3125 54.6875
L 36.8125 54.6875
L 36.8125 47.703125
L 18.3125 47.703125
L 18.3125 18.015625
Q 18.3125 11.328125 20.140625 9.421875
Q 21.96875 7.515625 27.59375 7.515625
L 36.8125 7.515625
L 36.8125 0
L 27.59375 0
Q 17.1875 0 13.234375 3.875
Q 9.28125 7.765625 9.28125 18.015625
L 9.28125 47.703125
L 2.6875 47.703125
L 2.6875 54.6875
L 9.28125 54.6875
L 9.28125 70.21875
z
" id="DejaVuSans-116"/>
      </defs>
      <g transform="translate(62.254687 425.902406)scale(0.15 -0.15)">
       <use xlink:href="#DejaVuSans-63"/>
       <use x="53.076172" xlink:href="#DejaVuSans-95"/>
       <use x="103.076172" xlink:href="#DejaVuSans-112"/>
       <use x="166.552734" xlink:href="#DejaVuSans-101"/>
       <use x="228.076172" xlink:href="#DejaVuSans-114"/>
       <use x="266.939453" xlink:href="#DejaVuSans-99"/>
       <use x="321.919922" xlink:href="#DejaVuSans-101"/>
       <use x="383.443359" xlink:href="#DejaVuSans-110"/>
       <use x="446.822266" xlink:href="#DejaVuSans-116"/>
      </g>
     </g>
    </g>
    <g id="ytick_2">
     <g id="line2d_8">
      <g>
       <use style="stroke:#000000;stroke-width:0.8;" x="142.161719" xlink:href="#m8bca09c325" y="376.848"/>
      </g>
     </g>
     <g id="text_8">
      <!-- \_percent -->
      <defs>
       <path d="M 8.296875 72.90625
L 33.6875 -9.28125
L 25.390625 -9.28125
L 0 72.90625
z
" id="DejaVuSans-92"/>
      </defs>
      <g transform="translate(65.163281 382.338234)scale(0.15 -0.15)">
       <use xlink:href="#DejaVuSans-92"/>
       <use x="33.691406" xlink:href="#DejaVuSans-95"/>
       <use x="83.691406" xlink:href="#DejaVuSans-112"/>
       <use x="147.167969" xlink:href="#DejaVuSans-101"/>
       <use x="208.691406" xlink:href="#DejaVuSans-114"/>
       <use x="247.554688" xlink:href="#DejaVuSans-99"/>
       <use x="302.535156" xlink:href="#DejaVuSans-101"/>
       <use x="364.058594" xlink:href="#DejaVuSans-110"/>
       <use x="427.4375" xlink:href="#DejaVuSans-116"/>
      </g>
     </g>
    </g>
    <g id="ytick_3">
     <g id="line2d_9">
      <g>
       <use style="stroke:#000000;stroke-width:0.8;" x="142.161719" xlink:href="#m8bca09c325" y="333.36"/>
      </g>
     </g>
     <g id="text_9">
      <!-- $_percent -->
      <defs>
       <path d="M 33.796875 -14.703125
L 28.90625 -14.703125
L 28.859375 0
Q 23.734375 0.09375 18.609375 1.1875
Q 13.484375 2.296875 8.296875 4.5
L 8.296875 13.28125
Q 13.28125 10.15625 18.375 8.5625
Q 23.484375 6.984375 28.90625 6.9375
L 28.90625 29.203125
Q 18.109375 30.953125 13.203125 35.15625
Q 8.296875 39.359375 8.296875 46.6875
Q 8.296875 54.640625 13.625 59.21875
Q 18.953125 63.8125 28.90625 64.5
L 28.90625 75.984375
L 33.796875 75.984375
L 33.796875 64.65625
Q 38.328125 64.453125 42.578125 63.6875
Q 46.828125 62.9375 50.875 61.625
L 50.875 53.078125
Q 46.828125 55.125 42.546875 56.25
Q 38.28125 57.375 33.796875 57.5625
L 33.796875 36.71875
Q 44.875 35.015625 50.09375 30.609375
Q 55.328125 26.21875 55.328125 18.609375
Q 55.328125 10.359375 49.78125 5.59375
Q 44.234375 0.828125 33.796875 0.09375
z
M 28.90625 37.59375
L 28.90625 57.625
Q 23.25 56.984375 20.265625 54.390625
Q 17.28125 51.8125 17.28125 47.515625
Q 17.28125 43.3125 20.03125 40.96875
Q 22.796875 38.625 28.90625 37.59375
z
M 33.796875 28.21875
L 33.796875 7.078125
Q 39.984375 7.90625 43.140625 10.59375
Q 46.296875 13.28125 46.296875 17.671875
Q 46.296875 21.96875 43.28125 24.5
Q 40.28125 27.046875 33.796875 28.21875
z
" id="DejaVuSans-36"/>
      </defs>
      <g transform="translate(60.672656 339.058828)scale(0.15 -0.15)">
       <use xlink:href="#DejaVuSans-36"/>
       <use x="63.623047" xlink:href="#DejaVuSans-95"/>
       <use x="113.623047" xlink:href="#DejaVuSans-112"/>
       <use x="177.099609" xlink:href="#DejaVuSans-101"/>
       <use x="238.623047" xlink:href="#DejaVuSans-114"/>
       <use x="277.486328" xlink:href="#DejaVuSans-99"/>
       <use x="332.466797" xlink:href="#DejaVuSans-101"/>
       <use x="393.990234" xlink:href="#DejaVuSans-110"/>
       <use x="457.369141" xlink:href="#DejaVuSans-116"/>
      </g>
     </g>
    </g>
    <g id="ytick_4">
     <g id="line2d_10">
      <g>
       <use style="stroke:#000000;stroke-width:0.8;" x="142.161719" xlink:href="#m8bca09c325" y="289.872"/>
      </g>
     </g>
     <g id="text_10">
      <!-- ,_percent -->
      <defs>
       <path d="M 11.71875 12.40625
L 22.015625 12.40625
L 22.015625 4
L 14.015625 -11.625
L 7.71875 -11.625
L 11.71875 4
z
" id="DejaVuSans-44"/>
      </defs>
      <g transform="translate(65.449219 295.362234)scale(0.15 -0.15)">
       <use xlink:href="#DejaVuSans-44"/>
       <use x="31.787109" xlink:href="#DejaVuSans-95"/>
       <use x="81.787109" xlink:href="#DejaVuSans-112"/>
       <use x="145.263672" xlink:href="#DejaVuSans-101"/>
       <use x="206.787109" xlink:href="#DejaVuSans-114"/>
       <use x="245.650391" xlink:href="#DejaVuSans-99"/>
       <use x="300.630859" xlink:href="#DejaVuSans-101"/>
       <use x="362.154297" xlink:href="#DejaVuSans-110"/>
       <use x="425.533203" xlink:href="#DejaVuSans-116"/>
      </g>
     </g>
    </g>
    <g id="ytick_5">
     <g id="line2d_11">
      <g>
       <use style="stroke:#000000;stroke-width:0.8;" x="142.161719" xlink:href="#m8bca09c325" y="246.384"/>
      </g>
     </g>
     <g id="text_11">
      <!-- ends_with_) -->
      <defs>
       <path d="M 45.40625 46.390625
L 45.40625 75.984375
L 54.390625 75.984375
L 54.390625 0
L 45.40625 0
L 45.40625 8.203125
Q 42.578125 3.328125 38.25 0.953125
Q 33.9375 -1.421875 27.875 -1.421875
Q 17.96875 -1.421875 11.734375 6.484375
Q 5.515625 14.40625 5.515625 27.296875
Q 5.515625 40.1875 11.734375 48.09375
Q 17.96875 56 27.875 56
Q 33.9375 56 38.25 53.625
Q 42.578125 51.265625 45.40625 46.390625
z
M 14.796875 27.296875
Q 14.796875 17.390625 18.875 11.75
Q 22.953125 6.109375 30.078125 6.109375
Q 37.203125 6.109375 41.296875 11.75
Q 45.40625 17.390625 45.40625 27.296875
Q 45.40625 37.203125 41.296875 42.84375
Q 37.203125 48.484375 30.078125 48.484375
Q 22.953125 48.484375 18.875 42.84375
Q 14.796875 37.203125 14.796875 27.296875
z
" id="DejaVuSans-100"/>
       <path d="M 44.28125 53.078125
L 44.28125 44.578125
Q 40.484375 46.53125 36.375 47.5
Q 32.28125 48.484375 27.875 48.484375
Q 21.1875 48.484375 17.84375 46.4375
Q 14.5 44.390625 14.5 40.28125
Q 14.5 37.15625 16.890625 35.375
Q 19.28125 33.59375 26.515625 31.984375
L 29.59375 31.296875
Q 39.15625 29.25 43.1875 25.515625
Q 47.21875 21.78125 47.21875 15.09375
Q 47.21875 7.46875 41.1875 3.015625
Q 35.15625 -1.421875 24.609375 -1.421875
Q 20.21875 -1.421875 15.453125 -0.5625
Q 10.6875 0.296875 5.421875 2
L 5.421875 11.28125
Q 10.40625 8.6875 15.234375 7.390625
Q 20.0625 6.109375 24.8125 6.109375
Q 31.15625 6.109375 34.5625 8.28125
Q 37.984375 10.453125 37.984375 14.40625
Q 37.984375 18.0625 35.515625 20.015625
Q 33.0625 21.96875 24.703125 23.78125
L 21.578125 24.515625
Q 13.234375 26.265625 9.515625 29.90625
Q 5.8125 33.546875 5.8125 39.890625
Q 5.8125 47.609375 11.28125 51.796875
Q 16.75 56 26.8125 56
Q 31.78125 56 36.171875 55.265625
Q 40.578125 54.546875 44.28125 53.078125
z
" id="DejaVuSans-115"/>
       <path d="M 4.203125 54.6875
L 13.1875 54.6875
L 24.421875 12.015625
L 35.59375 54.6875
L 46.1875 54.6875
L 57.421875 12.015625
L 68.609375 54.6875
L 77.59375 54.6875
L 63.28125 0
L 52.6875 0
L 40.921875 44.828125
L 29.109375 0
L 18.5 0
z
" id="DejaVuSans-119"/>
       <path d="M 9.421875 54.6875
L 18.40625 54.6875
L 18.40625 0
L 9.421875 0
z
M 9.421875 75.984375
L 18.40625 75.984375
L 18.40625 64.59375
L 9.421875 64.59375
z
" id="DejaVuSans-105"/>
       <path d="M 54.890625 33.015625
L 54.890625 0
L 45.90625 0
L 45.90625 32.71875
Q 45.90625 40.484375 42.875 44.328125
Q 39.84375 48.1875 33.796875 48.1875
Q 26.515625 48.1875 22.3125 43.546875
Q 18.109375 38.921875 18.109375 30.90625
L 18.109375 0
L 9.078125 0
L 9.078125 75.984375
L 18.109375 75.984375
L 18.109375 46.1875
Q 21.34375 51.125 25.703125 53.5625
Q 30.078125 56 35.796875 56
Q 45.21875 56 50.046875 50.171875
Q 54.890625 44.34375 54.890625 33.015625
z
" id="DejaVuSans-104"/>
       <path d="M 8.015625 75.875
L 15.828125 75.875
Q 23.140625 64.359375 26.78125 53.3125
Q 30.421875 42.28125 30.421875 31.390625
Q 30.421875 20.453125 26.78125 9.375
Q 23.140625 -1.703125 15.828125 -13.1875
L 8.015625 -13.1875
Q 14.5 -2 17.703125 9.0625
Q 20.90625 20.125 20.90625 31.390625
Q 20.90625 42.671875 17.703125 53.65625
Q 14.5 64.65625 8.015625 75.875
z
" id="DejaVuSans-41"/>
      </defs>
      <g transform="translate(46.415625 252.082828)scale(0.15 -0.15)">
       <use xlink:href="#DejaVuSans-101"/>
       <use x="61.523438" xlink:href="#DejaVuSans-110"/>
       <use x="124.902344" xlink:href="#DejaVuSans-100"/>
       <use x="188.378906" xlink:href="#DejaVuSans-115"/>
       <use x="240.478516" xlink:href="#DejaVuSans-95"/>
       <use x="290.478516" xlink:href="#DejaVuSans-119"/>
       <use x="372.265625" xlink:href="#DejaVuSans-105"/>
       <use x="400.048828" xlink:href="#DejaVuSans-116"/>
       <use x="439.257812" xlink:href="#DejaVuSans-104"/>
       <use x="502.636719" xlink:href="#DejaVuSans-95"/>
       <use x="552.636719" xlink:href="#DejaVuSans-41"/>
      </g>
     </g>
    </g>
    <g id="ytick_6">
     <g id="line2d_12">
      <g>
       <use style="stroke:#000000;stroke-width:0.8;" x="142.161719" xlink:href="#m8bca09c325" y="202.896"/>
      </g>
     </g>
     <g id="text_12">
      <!-- -_percent -->
      <defs>
       <path d="M 4.890625 31.390625
L 31.203125 31.390625
L 31.203125 23.390625
L 4.890625 23.390625
z
" id="DejaVuSans-45"/>
      </defs>
      <g transform="translate(64.804687 208.386234)scale(0.15 -0.15)">
       <use xlink:href="#DejaVuSans-45"/>
       <use x="36.083984" xlink:href="#DejaVuSans-95"/>
       <use x="86.083984" xlink:href="#DejaVuSans-112"/>
       <use x="149.560547" xlink:href="#DejaVuSans-101"/>
       <use x="211.083984" xlink:href="#DejaVuSans-114"/>
       <use x="249.947266" xlink:href="#DejaVuSans-99"/>
       <use x="304.927734" xlink:href="#DejaVuSans-101"/>
       <use x="366.451172" xlink:href="#DejaVuSans-110"/>
       <use x="429.830078" xlink:href="#DejaVuSans-116"/>
      </g>
     </g>
    </g>
    <g id="ytick_7">
     <g id="line2d_13">
      <g>
       <use style="stroke:#000000;stroke-width:0.8;" x="142.161719" xlink:href="#m8bca09c325" y="159.408"/>
      </g>
     </g>
     <g id="text_13">
      <!-- '_percent -->
      <defs>
       <path d="M 17.921875 72.90625
L 17.921875 45.796875
L 9.625 45.796875
L 9.625 72.90625
z
" id="DejaVuSans-39"/>
      </defs>
      <g transform="translate(66.09375 164.898234)scale(0.15 -0.15)">
       <use xlink:href="#DejaVuSans-39"/>
       <use x="27.490234" xlink:href="#DejaVuSans-95"/>
       <use x="77.490234" xlink:href="#DejaVuSans-112"/>
       <use x="140.966797" xlink:href="#DejaVuSans-101"/>
       <use x="202.490234" xlink:href="#DejaVuSans-114"/>
       <use x="241.353516" xlink:href="#DejaVuSans-99"/>
       <use x="296.333984" xlink:href="#DejaVuSans-101"/>
       <use x="357.857422" xlink:href="#DejaVuSans-110"/>
       <use x="421.236328" xlink:href="#DejaVuSans-116"/>
      </g>
     </g>
    </g>
    <g id="ytick_8">
     <g id="line2d_14">
      <g>
       <use style="stroke:#000000;stroke-width:0.8;" x="142.161719" xlink:href="#m8bca09c325" y="115.92"/>
      </g>
     </g>
     <g id="text_14">
      <!-- ._percent -->
      <g transform="translate(65.449219 121.410234)scale(0.15 -0.15)">
       <use xlink:href="#DejaVuSans-46"/>
       <use x="31.787109" xlink:href="#DejaVuSans-95"/>
       <use x="81.787109" xlink:href="#DejaVuSans-112"/>
       <use x="145.263672" xlink:href="#DejaVuSans-101"/>
       <use x="206.787109" xlink:href="#DejaVuSans-114"/>
       <use x="245.650391" xlink:href="#DejaVuSans-99"/>
       <use x="300.630859" xlink:href="#DejaVuSans-101"/>
       <use x="362.154297" xlink:href="#DejaVuSans-110"/>
       <use x="425.533203" xlink:href="#DejaVuSans-116"/>
      </g>
     </g>
    </g>
    <g id="ytick_9">
     <g id="line2d_15">
      <g>
       <use style="stroke:#000000;stroke-width:0.8;" x="142.161719" xlink:href="#m8bca09c325" y="72.432"/>
      </g>
     </g>
     <g id="text_15">
      <!-- mean_word_rank -->
      <defs>
       <path d="M 52 44.1875
Q 55.375 50.25 60.0625 53.125
Q 64.75 56 71.09375 56
Q 79.640625 56 84.28125 50.015625
Q 88.921875 44.046875 88.921875 33.015625
L 88.921875 0
L 79.890625 0
L 79.890625 32.71875
Q 79.890625 40.578125 77.09375 44.375
Q 74.3125 48.1875 68.609375 48.1875
Q 61.625 48.1875 57.5625 43.546875
Q 53.515625 38.921875 53.515625 30.90625
L 53.515625 0
L 44.484375 0
L 44.484375 32.71875
Q 44.484375 40.625 41.703125 44.40625
Q 38.921875 48.1875 33.109375 48.1875
Q 26.21875 48.1875 22.15625 43.53125
Q 18.109375 38.875 18.109375 30.90625
L 18.109375 0
L 9.078125 0
L 9.078125 54.6875
L 18.109375 54.6875
L 18.109375 46.1875
Q 21.1875 51.21875 25.484375 53.609375
Q 29.78125 56 35.6875 56
Q 41.65625 56 45.828125 52.96875
Q 50 49.953125 52 44.1875
z
" id="DejaVuSans-109"/>
       <path d="M 34.28125 27.484375
Q 23.390625 27.484375 19.1875 25
Q 14.984375 22.515625 14.984375 16.5
Q 14.984375 11.71875 18.140625 8.90625
Q 21.296875 6.109375 26.703125 6.109375
Q 34.1875 6.109375 38.703125 11.40625
Q 43.21875 16.703125 43.21875 25.484375
L 43.21875 27.484375
z
M 52.203125 31.203125
L 52.203125 0
L 43.21875 0
L 43.21875 8.296875
Q 40.140625 3.328125 35.546875 0.953125
Q 30.953125 -1.421875 24.3125 -1.421875
Q 15.921875 -1.421875 10.953125 3.296875
Q 6 8.015625 6 15.921875
Q 6 25.140625 12.171875 29.828125
Q 18.359375 34.515625 30.609375 34.515625
L 43.21875 34.515625
L 43.21875 35.40625
Q 43.21875 41.609375 39.140625 45
Q 35.0625 48.390625 27.6875 48.390625
Q 23 48.390625 18.546875 47.265625
Q 14.109375 46.140625 10.015625 43.890625
L 10.015625 52.203125
Q 14.9375 54.109375 19.578125 55.046875
Q 24.21875 56 28.609375 56
Q 40.484375 56 46.34375 49.84375
Q 52.203125 43.703125 52.203125 31.203125
z
" id="DejaVuSans-97"/>
       <path d="M 30.609375 48.390625
Q 23.390625 48.390625 19.1875 42.75
Q 14.984375 37.109375 14.984375 27.296875
Q 14.984375 17.484375 19.15625 11.84375
Q 23.34375 6.203125 30.609375 6.203125
Q 37.796875 6.203125 41.984375 11.859375
Q 46.1875 17.53125 46.1875 27.296875
Q 46.1875 37.015625 41.984375 42.703125
Q 37.796875 48.390625 30.609375 48.390625
z
M 30.609375 56
Q 42.328125 56 49.015625 48.375
Q 55.71875 40.765625 55.71875 27.296875
Q 55.71875 13.875 49.015625 6.21875
Q 42.328125 -1.421875 30.609375 -1.421875
Q 18.84375 -1.421875 12.171875 6.21875
Q 5.515625 13.875 5.515625 27.296875
Q 5.515625 40.765625 12.171875 48.375
Q 18.84375 56 30.609375 56
z
" id="DejaVuSans-111"/>
       <path d="M 9.078125 75.984375
L 18.109375 75.984375
L 18.109375 31.109375
L 44.921875 54.6875
L 56.390625 54.6875
L 27.390625 29.109375
L 57.625 0
L 45.90625 0
L 18.109375 26.703125
L 18.109375 0
L 9.078125 0
z
" id="DejaVuSans-107"/>
      </defs>
      <g transform="translate(7.2 78.130828)scale(0.15 -0.15)">
       <use xlink:href="#DejaVuSans-109"/>
       <use x="97.412109" xlink:href="#DejaVuSans-101"/>
       <use x="158.935547" xlink:href="#DejaVuSans-97"/>
       <use x="220.214844" xlink:href="#DejaVuSans-110"/>
       <use x="283.59375" xlink:href="#DejaVuSans-95"/>
       <use x="333.59375" xlink:href="#DejaVuSans-119"/>
       <use x="415.380859" xlink:href="#DejaVuSans-111"/>
       <use x="476.5625" xlink:href="#DejaVuSans-114"/>
       <use x="515.925781" xlink:href="#DejaVuSans-100"/>
       <use x="579.402344" xlink:href="#DejaVuSans-95"/>
       <use x="629.402344" xlink:href="#DejaVuSans-114"/>
       <use x="670.515625" xlink:href="#DejaVuSans-97"/>
       <use x="731.794922" xlink:href="#DejaVuSans-110"/>
       <use x="795.173828" xlink:href="#DejaVuSans-107"/>
      </g>
     </g>
    </g>
    <g id="ytick_10">
     <g id="line2d_16">
      <g>
       <use style="stroke:#000000;stroke-width:0.8;" x="142.161719" xlink:href="#m8bca09c325" y="28.944"/>
      </g>
     </g>
     <g id="text_16">
      <!-- char_len -->
      <defs>
       <path d="M 9.421875 75.984375
L 18.40625 75.984375
L 18.40625 0
L 9.421875 0
z
" id="DejaVuSans-108"/>
      </defs>
      <g transform="translate(71.646094 34.642828)scale(0.15 -0.15)">
       <use xlink:href="#DejaVuSans-99"/>
       <use x="54.980469" xlink:href="#DejaVuSans-104"/>
       <use x="118.359375" xlink:href="#DejaVuSans-97"/>
       <use x="179.638672" xlink:href="#DejaVuSans-114"/>
       <use x="220.751953" xlink:href="#DejaVuSans-95"/>
       <use x="270.751953" xlink:href="#DejaVuSans-108"/>
       <use x="298.535156" xlink:href="#DejaVuSans-101"/>
       <use x="360.058594" xlink:href="#DejaVuSans-110"/>
      </g>
     </g>
    </g>
   </g>
   <g id="LineCollection_1">
    <path clip-path="url(#pabb28b4840)" d="M 149.128718 420.336
L 156.454204 420.336
" style="fill:none;stroke:#000000;stroke-width:1.5;"/>
    <path clip-path="url(#pabb28b4840)" d="M 158.525131 376.848
L 166.217574 376.848
" style="fill:none;stroke:#000000;stroke-width:1.5;"/>
    <path clip-path="url(#pabb28b4840)" d="M 161.594392 333.36
L 169.841113 333.36
" style="fill:none;stroke:#000000;stroke-width:1.5;"/>
    <path clip-path="url(#pabb28b4840)" d="M 166.112254 289.872
L 182.120869 289.872
" style="fill:none;stroke:#000000;stroke-width:1.5;"/>
    <path clip-path="url(#pabb28b4840)" d="M 189.472001 246.384
L 198.917926 246.384
" style="fill:none;stroke:#000000;stroke-width:1.5;"/>
    <path clip-path="url(#pabb28b4840)" d="M 191.344288 202.896
L 219.092512 202.896
" style="fill:none;stroke:#000000;stroke-width:1.5;"/>
    <path clip-path="url(#pabb28b4840)" d="M 201.522942 159.408
L 216.525278 159.408
" style="fill:none;stroke:#000000;stroke-width:1.5;"/>
    <path clip-path="url(#pabb28b4840)" d="M 205.451841 115.92
L 228.475377 115.92
" style="fill:none;stroke:#000000;stroke-width:1.5;"/>
    <path clip-path="url(#pabb28b4840)" d="M 331.674244 72.432
L 362.747276 72.432
" style="fill:none;stroke:#000000;stroke-width:1.5;"/>
    <path clip-path="url(#pabb28b4840)" d="M 631.582101 28.944
L 673.59029 28.944
" style="fill:none;stroke:#000000;stroke-width:1.5;"/>
   </g>
   <g id="patch_13">
    <path d="M 142.161719 442.08
L 142.161719 7.2
" style="fill:none;stroke:#000000;stroke-linecap:square;stroke-linejoin:miter;stroke-width:0.8;"/>
   </g>
   <g id="patch_14">
    <path d="M 700.161719 442.08
L 700.161719 7.2
" style="fill:none;stroke:#000000;stroke-linecap:square;stroke-linejoin:miter;stroke-width:0.8;"/>
   </g>
   <g id="patch_15">
    <path d="M 142.161719 442.08
L 700.161719 442.08
" style="fill:none;stroke:#000000;stroke-linecap:square;stroke-linejoin:miter;stroke-width:0.8;"/>
   </g>
   <g id="patch_16">
    <path d="M 142.161719 7.2
L 700.161719 7.2
" style="fill:none;stroke:#000000;stroke-linecap:square;stroke-linejoin:miter;stroke-width:0.8;"/>
   </g>
   <g id="legend_1">
    <g id="patch_17">
     <path d="M 596.966406 437.08
L 693.161719 437.08
Q 695.161719 437.08 695.161719 435.08
L 695.161719 421.12375
Q 695.161719 419.12375 693.161719 419.12375
L 596.966406 419.12375
Q 594.966406 419.12375 594.966406 421.12375
L 594.966406 435.08
Q 594.966406 437.08 596.966406 437.08
z
" style="fill:#ffffff;opacity:0.8;stroke:#cccccc;stroke-linejoin:miter;"/>
    </g>
    <g id="patch_18">
     <path d="M 598.966406 430.722187
L 618.966406 430.722187
L 618.966406 423.722187
L 598.966406 423.722187
z
" style="fill:#1f77b4;"/>
    </g>
    <g id="text_17">
     <!-- perm_import -->
     <g transform="translate(626.966406 430.722187)scale(0.1 -0.1)">
      <use xlink:href="#DejaVuSans-112"/>
      <use x="63.476562" xlink:href="#DejaVuSans-101"/>
      <use x="125" xlink:href="#DejaVuSans-114"/>
      <use x="164.363281" xlink:href="#DejaVuSans-109"/>
      <use x="261.775391" xlink:href="#DejaVuSans-95"/>
      <use x="311.775391" xlink:href="#DejaVuSans-105"/>
      <use x="339.558594" xlink:href="#DejaVuSans-109"/>
      <use x="436.970703" xlink:href="#DejaVuSans-112"/>
      <use x="500.447266" xlink:href="#DejaVuSans-111"/>
      <use x="561.628906" xlink:href="#DejaVuSans-114"/>
      <use x="602.742188" xlink:href="#DejaVuSans-116"/>
     </g>
    </g>
   </g>
  </g>
 </g>
 <defs>
  <clipPath id="pabb28b4840">
   <rect height="434.88" width="558" x="142.161719" y="7.2"/>
  </clipPath>
 </defs>
</svg>
