<svg xmlns="http://www.w3.org/2000/svg" xmlns:xlink="http://www.w3.org/1999/xlink" height="593.0" viewBox="0.0 0.0 681.0 592.5" width="681.0">
<g class="graph" id="graph0" transform="scale(1.0 1.0) rotate(0) translate(4 588.5)">
<title>G</title>
<polygon fill="#ffffff" points="-4,4 -4,-588.5 677,-588.5 677,4 -4,4" stroke="transparent" />
<text fill="#444443" font-family="Arial" font-size="14.00" text-anchor="middle" x="336.5" y="-569.3">Title: galileons on cosmological backgrounds</text>
<text fill="#444443" font-family="Arial" font-size="14.00" text-anchor="middle" x="336.5" y="-554.3"> Source: arxiv</text>
<text fill="#444443" font-family="Arial" font-size="14.00" text-anchor="middle" x="336.5" y="-539.3"> Tree: 192</text>
<text fill="#444443" font-family="Arial" font-size="14.00" text-anchor="middle" x="336.5" y="-524.3"> Prediction: vixra</text>
<g class="cluster" id="clust1">
<title>cluster_legend</title>
</g>
<g class="cluster" id="clust2">
<title>cluster_instance</title>
</g>

<g class="node" id="node1">
<title>node59</title>
<polygon fill="none" points="357,-258 201,-258 201,-196 357,-196 357,-258" stroke="#d67c03" stroke-dasharray="5,2" stroke-width=".5" />
<svg height="54px" preserveAspectRatio="xMinYMin meet" version="1.1" viewBox="0 0 197.498451 72.353586" width="148px" x="205" y="-254">
 <defs>
  <style type="text/css">
*{stroke-linecap:butt;stroke-linejoin:round;}
  </style>
 </defs>
 <g id="figure_1">
  <g id="patch_1">
   <path d="M 0 72.353586  L 197.498451 72.353586  L 197.498451 0  L 0 0  z " style="fill:#ffffff;" />
  </g>
  <g id="axes_1">
   <g id="patch_2">
    <path d="M 12.09 41.663586  L 196.23 41.663586  L 196.23 3.039375  L 12.09 3.039375  z " style="fill:#ffffff;" />
   </g>
   <g id="patch_3">
    <path clip-path="url(#pa59956793d)" d="M 12.35109 41.663586  L 21.559898 41.663586  L 21.559898 3.039375  L 12.35109 3.039375  z " style="fill:#fefebb;stroke:#444443;stroke-linejoin:miter;stroke-width:0.5;" />
   </g>
   <g id="patch_4">
    <path clip-path="url(#pa59956793d)" d="M 21.559898 41.663586  L 30.768707 41.663586  L 30.768707 3.039375  L 21.559898 3.039375  z " style="fill:#fefebb;stroke:#444443;stroke-linejoin:miter;stroke-width:0.5;" />
   </g>
   <g id="patch_5">
    <path clip-path="url(#pa59956793d)" d="M 30.768707 41.663586  L 39.977515 41.663586  L 39.977515 3.039375  L 30.768707 3.039375  z " style="fill:#fefebb;stroke:#444443;stroke-linejoin:miter;stroke-width:0.5;" />
   </g>
   <g id="patch_6">
    <path clip-path="url(#pa59956793d)" d="M 39.977515 41.663586  L 49.186324 41.663586  L 49.186324 22.35148  L 39.977515 22.35148  z " style="fill:#fefebb;stroke:#444443;stroke-linejoin:miter;stroke-width:0.5;" />
   </g>
   <g id="patch_7">
    <path clip-path="url(#pa59956793d)" d="M 49.186324 41.663586  L 58.395132 41.663586  L 58.395132 22.35148  L 49.186324 22.35148  z " style="fill:#fefebb;stroke:#444443;stroke-linejoin:miter;stroke-width:0.5;" />
   </g>
   <g id="patch_8">
    <path clip-path="url(#pa59956793d)" d="M 58.395132 41.663586  L 67.603941 41.663586  L 67.603941 3.039375  L 58.395132 3.039375  z " style="fill:#fefebb;stroke:#444443;stroke-linejoin:miter;stroke-width:0.5;" />
   </g>
   <g id="patch_9">
    <path clip-path="url(#pa59956793d)" d="M 67.603941 41.663586  L 76.812749 41.663586  L 76.812749 41.663586  L 67.603941 41.663586  z " style="fill:#fefebb;stroke:#444443;stroke-linejoin:miter;stroke-width:0.5;" />
   </g>
   <g id="patch_10">
    <path clip-path="url(#pa59956793d)" d="M 76.812749 41.663586  L 86.021558 41.663586  L 86.021558 3.039375  L 76.812749 3.039375  z " style="fill:#fefebb;stroke:#444443;stroke-linejoin:miter;stroke-width:0.5;" />
   </g>
   <g id="patch_11">
    <path clip-path="url(#pa59956793d)" d="M 86.021558 41.663586  L 95.230366 41.663586  L 95.230366 3.039375  L 86.021558 3.039375  z " style="fill:#fefebb;stroke:#444443;stroke-linejoin:miter;stroke-width:0.5;" />
   </g>
   <g id="patch_12">
    <path clip-path="url(#pa59956793d)" d="M 95.230366 41.663586  L 104.439175 41.663586  L 104.439175 22.35148  L 95.230366 22.35148  z " style="fill:#fefebb;stroke:#444443;stroke-linejoin:miter;stroke-width:0.5;" />
   </g>
   <g id="patch_13">
    <path clip-path="url(#pa59956793d)" d="M 104.439175 41.663586  L 113.647983 41.663586  L 113.647983 41.663586  L 104.439175 41.663586  z " style="fill:#fefebb;stroke:#444443;stroke-linejoin:miter;stroke-width:0.5;" />
   </g>
   <g id="patch_14">
    <path clip-path="url(#pa59956793d)" d="M 113.647983 41.663586  L 122.856791 41.663586  L 122.856791 22.35148  L 113.647983 22.35148  z " style="fill:#fefebb;stroke:#444443;stroke-linejoin:miter;stroke-width:0.5;" />
   </g>
   <g id="patch_15">
    <path clip-path="url(#pa59956793d)" d="M 122.856791 41.663586  L 132.0656 41.663586  L 132.0656 41.663586  L 122.856791 41.663586  z " style="fill:#fefebb;stroke:#444443;stroke-linejoin:miter;stroke-width:0.5;" />
   </g>
   <g id="patch_16">
    <path clip-path="url(#pa59956793d)" d="M 132.0656 41.663586  L 141.274408 41.663586  L 141.274408 41.663586  L 132.0656 41.663586  z " style="fill:#fefebb;stroke:#444443;stroke-linejoin:miter;stroke-width:0.5;" />
   </g>
   <g id="patch_17">
    <path clip-path="url(#pa59956793d)" d="M 141.274408 41.663586  L 150.483217 41.663586  L 150.483217 22.35148  L 141.274408 22.35148  z " style="fill:#fefebb;stroke:#444443;stroke-linejoin:miter;stroke-width:0.5;" />
   </g>
   <g id="patch_18">
    <path clip-path="url(#pa59956793d)" d="M 150.483217 41.663586  L 159.692025 41.663586  L 159.692025 41.663586  L 150.483217 41.663586  z " style="fill:#fefebb;stroke:#444443;stroke-linejoin:miter;stroke-width:0.5;" />
   </g>
   <g id="patch_19">
    <path clip-path="url(#pa59956793d)" d="M 159.692025 41.663586  L 168.900834 41.663586  L 168.900834 41.663586  L 159.692025 41.663586  z " style="fill:#fefebb;stroke:#444443;stroke-linejoin:miter;stroke-width:0.5;" />
   </g>
   <g id="patch_20">
    <path clip-path="url(#pa59956793d)" d="M 168.900834 41.663586  L 178.109642 41.663586  L 178.109642 41.663586  L 168.900834 41.663586  z " style="fill:#fefebb;stroke:#444443;stroke-linejoin:miter;stroke-width:0.5;" />
   </g>
   <g id="patch_21">
    <path clip-path="url(#pa59956793d)" d="M 178.109642 41.663586  L 187.318451 41.663586  L 187.318451 3.039375  L 178.109642 3.039375  z " style="fill:#fefebb;stroke:#444443;stroke-linejoin:miter;stroke-width:0.5;" />
   </g>
   <g id="patch_22">
    <path clip-path="url(#pa59956793d)" d="M 12.35109 3.039375  L 21.559898 3.039375  L 21.559898 3.039375  L 12.35109 3.039375  z " style="fill:#a1dab4;stroke:#444443;stroke-linejoin:miter;stroke-width:0.5;" />
   </g>
   <g id="patch_23">
    <path clip-path="url(#pa59956793d)" d="M 21.559898 3.039375  L 30.768707 3.039375  L 30.768707 3.039375  L 21.559898 3.039375  z " style="fill:#a1dab4;stroke:#444443;stroke-linejoin:miter;stroke-width:0.5;" />
   </g>
   <g id="patch_24">
    <path clip-path="url(#pa59956793d)" d="M 30.768707 3.039375  L 39.977515 3.039375  L 39.977515 3.039375  L 30.768707 3.039375  z " style="fill:#a1dab4;stroke:#444443;stroke-linejoin:miter;stroke-width:0.5;" />
   </g>
   <g id="patch_25">
    <path clip-path="url(#pa59956793d)" d="M 39.977515 22.35148  L 49.186324 22.35148  L 49.186324 22.35148  L 39.977515 22.35148  z " style="fill:#a1dab4;stroke:#444443;stroke-linejoin:miter;stroke-width:0.5;" />
   </g>
   <g id="patch_26">
    <path clip-path="url(#pa59956793d)" d="M 49.186324 22.35148  L 58.395132 22.35148  L 58.395132 22.35148  L 49.186324 22.35148  z " style="fill:#a1dab4;stroke:#444443;stroke-linejoin:miter;stroke-width:0.5;" />
   </g>
   <g id="patch_27">
    <path clip-path="url(#pa59956793d)" d="M 58.395132 3.039375  L 67.603941 3.039375  L 67.603941 3.039375  L 58.395132 3.039375  z " style="fill:#a1dab4;stroke:#444443;stroke-linejoin:miter;stroke-width:0.5;" />
   </g>
   <g id="patch_28">
    <path clip-path="url(#pa59956793d)" d="M 67.603941 41.663586  L 76.812749 41.663586  L 76.812749 41.663586  L 67.603941 41.663586  z " style="fill:#a1dab4;stroke:#444443;stroke-linejoin:miter;stroke-width:0.5;" />
   </g>
   <g id="patch_29">
    <path clip-path="url(#pa59956793d)" d="M 76.812749 3.039375  L 86.021558 3.039375  L 86.021558 3.039375  L 76.812749 3.039375  z " style="fill:#a1dab4;stroke:#444443;stroke-linejoin:miter;stroke-width:0.5;" />
   </g>
   <g id="patch_30">
    <path clip-path="url(#pa59956793d)" d="M 86.021558 3.039375  L 95.230366 3.039375  L 95.230366 3.039375  L 86.021558 3.039375  z " style="fill:#a1dab4;stroke:#444443;stroke-linejoin:miter;stroke-width:0.5;" />
   </g>
   <g id="patch_31">
    <path clip-path="url(#pa59956793d)" d="M 95.230366 22.35148  L 104.439175 22.35148  L 104.439175 22.35148  L 95.230366 22.35148  z " style="fill:#a1dab4;stroke:#444443;stroke-linejoin:miter;stroke-width:0.5;" />
   </g>
   <g id="patch_32">
    <path clip-path="url(#pa59956793d)" d="M 104.439175 41.663586  L 113.647983 41.663586  L 113.647983 41.663586  L 104.439175 41.663586  z " style="fill:#a1dab4;stroke:#444443;stroke-linejoin:miter;stroke-width:0.5;" />
   </g>
   <g id="patch_33">
    <path clip-path="url(#pa59956793d)" d="M 113.647983 22.35148  L 122.856791 22.35148  L 122.856791 22.35148  L 113.647983 22.35148  z " style="fill:#a1dab4;stroke:#444443;stroke-linejoin:miter;stroke-width:0.5;" />
   </g>
   <g id="patch_34">
    <path clip-path="url(#pa59956793d)" d="M 122.856791 41.663586  L 132.0656 41.663586  L 132.0656 41.663586  L 122.856791 41.663586  z " style="fill:#a1dab4;stroke:#444443;stroke-linejoin:miter;stroke-width:0.5;" />
   </g>
   <g id="patch_35">
    <path clip-path="url(#pa59956793d)" d="M 132.0656 41.663586  L 141.274408 41.663586  L 141.274408 41.663586  L 132.0656 41.663586  z " style="fill:#a1dab4;stroke:#444443;stroke-linejoin:miter;stroke-width:0.5;" />
   </g>
   <g id="patch_36">
    <path clip-path="url(#pa59956793d)" d="M 141.274408 22.35148  L 150.483217 22.35148  L 150.483217 22.35148  L 141.274408 22.35148  z " style="fill:#a1dab4;stroke:#444443;stroke-linejoin:miter;stroke-width:0.5;" />
   </g>
   <g id="patch_37">
    <path clip-path="url(#pa59956793d)" d="M 150.483217 41.663586  L 159.692025 41.663586  L 159.692025 41.663586  L 150.483217 41.663586  z " style="fill:#a1dab4;stroke:#444443;stroke-linejoin:miter;stroke-width:0.5;" />
   </g>
   <g id="patch_38">
    <path clip-path="url(#pa59956793d)" d="M 159.692025 41.663586  L 168.900834 41.663586  L 168.900834 41.663586  L 159.692025 41.663586  z " style="fill:#a1dab4;stroke:#444443;stroke-linejoin:miter;stroke-width:0.5;" />
   </g>
   <g id="patch_39">
    <path clip-path="url(#pa59956793d)" d="M 168.900834 41.663586  L 178.109642 41.663586  L 178.109642 41.663586  L 168.900834 41.663586  z " style="fill:#a1dab4;stroke:#444443;stroke-linejoin:miter;stroke-width:0.5;" />
   </g>
   <g id="patch_40">
    <path clip-path="url(#pa59956793d)" d="M 178.109642 3.039375  L 187.318451 3.039375  L 187.318451 3.039375  L 178.109642 3.039375  z " style="fill:#a1dab4;stroke:#444443;stroke-linejoin:miter;stroke-width:0.5;" />
   </g>
   <g id="patch_41">
    <path d="M 172.326309 42.478986  L 169.011789 49.817586  L 175.640829 49.817586  z " style="fill:#444443;" />
   </g>
   <g id="patch_42">
    <path d="M 179.274403 42.478986  L 175.959883 49.817586  L 182.588923 49.817586  z " style="fill:#d67c03;" />
   </g>
   <g id="matplotlib.axis_1">
    <g id="xtick_1">
     <g id="line2d_1">
      <defs>
       <path d="M 0 0  L 0 3.5  " id="m91a570e865" style="stroke:#000000;stroke-width:0.3;" />
      </defs>
      <g>
       <use style="stroke:#000000;stroke-width:0.3;" x="12.35109" y="41.663586" xlink:href="#m91a570e865" />
      </g>
     </g>
     <g id="text_1">

      <defs>
       <path d="M 12.40625 8.296875  L 28.515625 8.296875  L 28.515625 63.921875  L 10.984375 60.40625  L 10.984375 69.390625  L 28.421875 72.90625  L 38.28125 72.90625  L 38.28125 8.296875  L 54.390625 8.296875  L 54.390625 0  L 12.40625 0  z " id="DejaVuSans-49" />
       <path d="M 40.578125 39.3125  Q 47.65625 37.796875 51.625 33  Q 55.609375 28.21875 55.609375 21.1875  Q 55.609375 10.40625 48.1875 4.484375  Q 40.765625 -1.421875 27.09375 -1.421875  Q 22.515625 -1.421875 17.65625 -0.515625  Q 12.796875 0.390625 7.625 2.203125  L 7.625 11.71875  Q 11.71875 9.328125 16.59375 8.109375  Q 21.484375 6.890625 26.8125 6.890625  Q 36.078125 6.890625 40.9375 10.546875  Q 45.796875 14.203125 45.796875 21.1875  Q 45.796875 27.640625 41.28125 31.265625  Q 36.765625 34.90625 28.71875 34.90625  L 20.21875 34.90625  L 20.21875 43.015625  L 29.109375 43.015625  Q 36.375 43.015625 40.234375 45.921875  Q 44.09375 48.828125 44.09375 54.296875  Q 44.09375 59.90625 40.109375 62.90625  Q 36.140625 65.921875 28.71875 65.921875  Q 24.65625 65.921875 20.015625 65.03125  Q 15.375 64.15625 9.8125 62.3125  L 9.8125 71.09375  Q 15.4375 72.65625 20.34375 73.4375  Q 25.25 74.21875 29.59375 74.21875  Q 40.828125 74.21875 47.359375 69.109375  Q 53.90625 64.015625 53.90625 55.328125  Q 53.90625 49.265625 50.4375 45.09375  Q 46.96875 40.921875 40.578125 39.3125  z " id="DejaVuSans-51" />
      </defs>
      <g style="fill:#444443;" transform="translate(4.71609 54.742336)scale(0.08 -0.08)">
       <use xlink:href="#DejaVuSans-49" />
       <use x="63.623047" xlink:href="#DejaVuSans-51" />
       <use x="127.246094" xlink:href="#DejaVuSans-49" />
      </g>
     </g>
    </g>
    <g id="xtick_2">
     <g id="line2d_2">
      <g>
       <use style="stroke:#000000;stroke-width:0.3;" x="187.318451" y="41.663586" xlink:href="#m91a570e865" />
      </g>
     </g>
     <g id="text_2">

      <defs>
       <path d="M 8.203125 72.90625  L 55.078125 72.90625  L 55.078125 68.703125  L 28.609375 0  L 18.3125 0  L 43.21875 64.59375  L 8.203125 64.59375  z " id="DejaVuSans-55" />
       <path d="M 33.015625 40.375  Q 26.375 40.375 22.484375 35.828125  Q 18.609375 31.296875 18.609375 23.390625  Q 18.609375 15.53125 22.484375 10.953125  Q 26.375 6.390625 33.015625 6.390625  Q 39.65625 6.390625 43.53125 10.953125  Q 47.40625 15.53125 47.40625 23.390625  Q 47.40625 31.296875 43.53125 35.828125  Q 39.65625 40.375 33.015625 40.375  z M 52.59375 71.296875  L 52.59375 62.3125  Q 48.875 64.0625 45.09375 64.984375  Q 41.3125 65.921875 37.59375 65.921875  Q 27.828125 65.921875 22.671875 59.328125  Q 17.53125 52.734375 16.796875 39.40625  Q 19.671875 43.65625 24.015625 45.921875  Q 28.375 48.1875 33.59375 48.1875  Q 44.578125 48.1875 50.953125 41.515625  Q 57.328125 34.859375 57.328125 23.390625  Q 57.328125 12.15625 50.6875 5.359375  Q 44.046875 -1.421875 33.015625 -1.421875  Q 20.359375 -1.421875 13.671875 8.265625  Q 6.984375 17.96875 6.984375 36.375  Q 6.984375 53.65625 15.1875 63.9375  Q 23.390625 74.21875 37.203125 74.21875  Q 40.921875 74.21875 44.703125 73.484375  Q 48.484375 72.75 52.59375 71.296875  z " id="DejaVuSans-54" />
       <path d="M 31.78125 34.625  Q 24.75 34.625 20.71875 30.859375  Q 16.703125 27.09375 16.703125 20.515625  Q 16.703125 13.921875 20.71875 10.15625  Q 24.75 6.390625 31.78125 6.390625  Q 38.8125 6.390625 42.859375 10.171875  Q 46.921875 13.96875 46.921875 20.515625  Q 46.921875 27.09375 42.890625 30.859375  Q 38.875 34.625 31.78125 34.625  z M 21.921875 38.8125  Q 15.578125 40.375 12.03125 44.71875  Q 8.5 49.078125 8.5 55.328125  Q 8.5 64.0625 14.71875 69.140625  Q 20.953125 74.21875 31.78125 74.21875  Q 42.671875 74.21875 48.875 69.140625  Q 55.078125 64.0625 55.078125 55.328125  Q 55.078125 49.078125 51.53125 44.71875  Q 48 40.375 41.703125 38.8125  Q 48.828125 37.15625 52.796875 32.3125  Q 56.78125 27.484375 56.78125 20.515625  Q 56.78125 9.90625 50.3125 4.234375  Q 43.84375 -1.421875 31.78125 -1.421875  Q 19.734375 -1.421875 13.25 4.234375  Q 6.78125 9.90625 6.78125 20.515625  Q 6.78125 27.484375 10.78125 32.3125  Q 14.796875 37.15625 21.921875 38.8125  z M 18.3125 54.390625  Q 18.3125 48.734375 21.84375 45.5625  Q 25.390625 42.390625 31.78125 42.390625  Q 38.140625 42.390625 41.71875 45.5625  Q 45.3125 48.734375 45.3125 54.390625  Q 45.3125 60.0625 41.71875 63.234375  Q 38.140625 66.40625 31.78125 66.40625  Q 25.390625 66.40625 21.84375 63.234375  Q 18.3125 60.0625 18.3125 54.390625  z " id="DejaVuSans-56" />
      </defs>
      <g style="fill:#444443;" transform="translate(177.138451 54.742336)scale(0.08 -0.08)">
       <use xlink:href="#DejaVuSans-55" />
       <use x="63.623047" xlink:href="#DejaVuSans-49" />
       <use x="127.246094" xlink:href="#DejaVuSans-54" />
       <use x="190.869141" xlink:href="#DejaVuSans-56" />
      </g>
     </g>
    </g>
    <g id="text_3">

     <defs>
      <path d="M 52 44.1875  Q 55.375 50.25 60.0625 53.125  Q 64.75 56 71.09375 56  Q 79.640625 56 84.28125 50.015625  Q 88.921875 44.046875 88.921875 33.015625  L 88.921875 0  L 79.890625 0  L 79.890625 32.71875  Q 79.890625 40.578125 77.09375 44.375  Q 74.3125 48.1875 68.609375 48.1875  Q 61.625 48.1875 57.5625 43.546875  Q 53.515625 38.921875 53.515625 30.90625  L 53.515625 0  L 44.484375 0  L 44.484375 32.71875  Q 44.484375 40.625 41.703125 44.40625  Q 38.921875 48.1875 33.109375 48.1875  Q 26.21875 48.1875 22.15625 43.53125  Q 18.109375 38.875 18.109375 30.90625  L 18.109375 0  L 9.078125 0  L 9.078125 54.6875  L 18.109375 54.6875  L 18.109375 46.1875  Q 21.1875 51.21875 25.484375 53.609375  Q 29.78125 56 35.6875 56  Q 41.65625 56 45.828125 52.96875  Q 50 49.953125 52 44.1875  z " id="DejaVuSans-109" />
      <path d="M 56.203125 29.59375  L 56.203125 25.203125  L 14.890625 25.203125  Q 15.484375 15.921875 20.484375 11.0625  Q 25.484375 6.203125 34.421875 6.203125  Q 39.59375 6.203125 44.453125 7.46875  Q 49.3125 8.734375 54.109375 11.28125  L 54.109375 2.78125  Q 49.265625 0.734375 44.1875 -0.34375  Q 39.109375 -1.421875 33.890625 -1.421875  Q 20.796875 -1.421875 13.15625 6.1875  Q 5.515625 13.8125 5.515625 26.8125  Q 5.515625 40.234375 12.765625 48.109375  Q 20.015625 56 32.328125 56  Q 43.359375 56 49.78125 48.890625  Q 56.203125 41.796875 56.203125 29.59375  z M 47.21875 32.234375  Q 47.125 39.59375 43.09375 43.984375  Q 39.0625 48.390625 32.421875 48.390625  Q 24.90625 48.390625 20.390625 44.140625  Q 15.875 39.890625 15.1875 32.171875  z " id="DejaVuSans-101" />
      <path d="M 34.28125 27.484375  Q 23.390625 27.484375 19.1875 25  Q 14.984375 22.515625 14.984375 16.5  Q 14.984375 11.71875 18.140625 8.90625  Q 21.296875 6.109375 26.703125 6.109375  Q 34.1875 6.109375 38.703125 11.40625  Q 43.21875 16.703125 43.21875 25.484375  L 43.21875 27.484375  z M 52.203125 31.203125  L 52.203125 0  L 43.21875 0  L 43.21875 8.296875  Q 40.140625 3.328125 35.546875 0.953125  Q 30.953125 -1.421875 24.3125 -1.421875  Q 15.921875 -1.421875 10.953125 3.296875  Q 6 8.015625 6 15.921875  Q 6 25.140625 12.171875 29.828125  Q 18.359375 34.515625 30.609375 34.515625  L 43.21875 34.515625  L 43.21875 35.40625  Q 43.21875 41.609375 39.140625 45  Q 35.0625 48.390625 27.6875 48.390625  Q 23 48.390625 18.546875 47.265625  Q 14.109375 46.140625 10.015625 43.890625  L 10.015625 52.203125  Q 14.9375 54.109375 19.578125 55.046875  Q 24.21875 56 28.609375 56  Q 40.484375 56 46.34375 49.84375  Q 52.203125 43.703125 52.203125 31.203125  z " id="DejaVuSans-97" />
      <path d="M 54.890625 33.015625  L 54.890625 0  L 45.90625 0  L 45.90625 32.71875  Q 45.90625 40.484375 42.875 44.328125  Q 39.84375 48.1875 33.796875 48.1875  Q 26.515625 48.1875 22.3125 43.546875  Q 18.109375 38.921875 18.109375 30.90625  L 18.109375 0  L 9.078125 0  L 9.078125 54.6875  L 18.109375 54.6875  L 18.109375 46.1875  Q 21.34375 51.125 25.703125 53.5625  Q 30.078125 56 35.796875 56  Q 45.21875 56 50.046875 50.171875  Q 54.890625 44.34375 54.890625 33.015625  z " id="DejaVuSans-110" />
      <path d="M 50.984375 -16.609375  L 50.984375 -23.578125  L -0.984375 -23.578125  L -0.984375 -16.609375  z " id="DejaVuSans-95" />
      <path d="M 4.203125 54.6875  L 13.1875 54.6875  L 24.421875 12.015625  L 35.59375 54.6875  L 46.1875 54.6875  L 57.421875 12.015625  L 68.609375 54.6875  L 77.59375 54.6875  L 63.28125 0  L 52.6875 0  L 40.921875 44.828125  L 29.109375 0  L 18.5 0  z " id="DejaVuSans-119" />
      <path d="M 30.609375 48.390625  Q 23.390625 48.390625 19.1875 42.75  Q 14.984375 37.109375 14.984375 27.296875  Q 14.984375 17.484375 19.15625 11.84375  Q 23.34375 6.203125 30.609375 6.203125  Q 37.796875 6.203125 41.984375 11.859375  Q 46.1875 17.53125 46.1875 27.296875  Q 46.1875 37.015625 41.984375 42.703125  Q 37.796875 48.390625 30.609375 48.390625  z M 30.609375 56  Q 42.328125 56 49.015625 48.375  Q 55.71875 40.765625 55.71875 27.296875  Q 55.71875 13.875 49.015625 6.21875  Q 42.328125 -1.421875 30.609375 -1.421875  Q 18.84375 -1.421875 12.171875 6.21875  Q 5.515625 13.875 5.515625 27.296875  Q 5.515625 40.765625 12.171875 48.375  Q 18.84375 56 30.609375 56  z " id="DejaVuSans-111" />
      <path d="M 41.109375 46.296875  Q 39.59375 47.171875 37.8125 47.578125  Q 36.03125 48 33.890625 48  Q 26.265625 48 22.1875 43.046875  Q 18.109375 38.09375 18.109375 28.8125  L 18.109375 0  L 9.078125 0  L 9.078125 54.6875  L 18.109375 54.6875  L 18.109375 46.1875  Q 20.953125 51.171875 25.484375 53.578125  Q 30.03125 56 36.53125 56  Q 37.453125 56 38.578125 55.875  Q 39.703125 55.765625 41.0625 55.515625  z " id="DejaVuSans-114" />
      <path d="M 45.40625 46.390625  L 45.40625 75.984375  L 54.390625 75.984375  L 54.390625 0  L 45.40625 0  L 45.40625 8.203125  Q 42.578125 3.328125 38.25 0.953125  Q 33.9375 -1.421875 27.875 -1.421875  Q 17.96875 -1.421875 11.734375 6.484375  Q 5.515625 14.40625 5.515625 27.296875  Q 5.515625 40.1875 11.734375 48.09375  Q 17.96875 56 27.875 56  Q 33.9375 56 38.25 53.625  Q 42.578125 51.265625 45.40625 46.390625  z M 14.796875 27.296875  Q 14.796875 17.390625 18.875 11.75  Q 22.953125 6.109375 30.078125 6.109375  Q 37.203125 6.109375 41.296875 11.75  Q 45.40625 17.390625 45.40625 27.296875  Q 45.40625 37.203125 41.296875 42.84375  Q 37.203125 48.484375 30.078125 48.484375  Q 22.953125 48.484375 18.875 42.84375  Q 14.796875 37.203125 14.796875 27.296875  z " id="DejaVuSans-100" />
      <path d="M 9.078125 75.984375  L 18.109375 75.984375  L 18.109375 31.109375  L 44.921875 54.6875  L 56.390625 54.6875  L 27.390625 29.109375  L 57.625 0  L 45.90625 0  L 18.109375 26.703125  L 18.109375 0  L 9.078125 0  z " id="DejaVuSans-107" />
     </defs>
     <g style="fill:#444443;" transform="translate(52.975313 69.524211)scale(0.12 -0.12)">
      <use xlink:href="#DejaVuSans-109" />
      <use x="97.412109" xlink:href="#DejaVuSans-101" />
      <use x="158.935547" xlink:href="#DejaVuSans-97" />
      <use x="220.214844" xlink:href="#DejaVuSans-110" />
      <use x="283.59375" xlink:href="#DejaVuSans-95" />
      <use x="333.59375" xlink:href="#DejaVuSans-119" />
      <use x="415.380859" xlink:href="#DejaVuSans-111" />
      <use x="476.5625" xlink:href="#DejaVuSans-114" />
      <use x="515.925781" xlink:href="#DejaVuSans-100" />
      <use x="579.402344" xlink:href="#DejaVuSans-95" />
      <use x="629.402344" xlink:href="#DejaVuSans-114" />
      <use x="670.515625" xlink:href="#DejaVuSans-97" />
      <use x="731.794922" xlink:href="#DejaVuSans-110" />
      <use x="795.173828" xlink:href="#DejaVuSans-107" />
     </g>
    </g>
   </g>
   <g id="matplotlib.axis_2">
    <g id="ytick_1">
     <g id="line2d_3">
      <defs>
       <path d="M 0 0  L -3.5 0  " id="m792d6bc2ac" style="stroke:#000000;stroke-width:0.3;" />
      </defs>
      <g>
       <use style="stroke:#000000;stroke-width:0.3;" x="12.09" y="41.663586" xlink:href="#m792d6bc2ac" />
      </g>
     </g>
     <g id="text_4">

      <defs>
       <path d="M 31.78125 66.40625  Q 24.171875 66.40625 20.328125 58.90625  Q 16.5 51.421875 16.5 36.375  Q 16.5 21.390625 20.328125 13.890625  Q 24.171875 6.390625 31.78125 6.390625  Q 39.453125 6.390625 43.28125 13.890625  Q 47.125 21.390625 47.125 36.375  Q 47.125 51.421875 43.28125 58.90625  Q 39.453125 66.40625 31.78125 66.40625  z M 31.78125 74.21875  Q 44.046875 74.21875 50.515625 64.515625  Q 56.984375 54.828125 56.984375 36.375  Q 56.984375 17.96875 50.515625 8.265625  Q 44.046875 -1.421875 31.78125 -1.421875  Q 19.53125 -1.421875 13.0625 8.265625  Q 6.59375 17.96875 6.59375 36.375  Q 6.59375 54.828125 13.0625 64.515625  Q 19.53125 74.21875 31.78125 74.21875  z " id="DejaVuSans-48" />
      </defs>
      <g style="fill:#444443;" transform="translate(0 44.702961)scale(0.08 -0.08)">
       <use xlink:href="#DejaVuSans-48" />
      </g>
     </g>
    </g>
    <g id="ytick_2">
     <g id="line2d_4">
      <g>
       <use style="stroke:#000000;stroke-width:0.3;" x="12.09" y="3.039375" xlink:href="#m792d6bc2ac" />
      </g>
     </g>
     <g id="text_5">

      <defs>
       <path d="M 19.1875 8.296875  L 53.609375 8.296875  L 53.609375 0  L 7.328125 0  L 7.328125 8.296875  Q 12.9375 14.109375 22.625 23.890625  Q 32.328125 33.6875 34.8125 36.53125  Q 39.546875 41.84375 41.421875 45.53125  Q 43.3125 49.21875 43.3125 52.78125  Q 43.3125 58.59375 39.234375 62.25  Q 35.15625 65.921875 28.609375 65.921875  Q 23.96875 65.921875 18.8125 64.3125  Q 13.671875 62.703125 7.8125 59.421875  L 7.8125 69.390625  Q 13.765625 71.78125 18.9375 73  Q 24.125 74.21875 28.421875 74.21875  Q 39.75 74.21875 46.484375 68.546875  Q 53.21875 62.890625 53.21875 53.421875  Q 53.21875 48.921875 51.53125 44.890625  Q 49.859375 40.875 45.40625 35.40625  Q 44.1875 33.984375 37.640625 27.21875  Q 31.109375 20.453125 19.1875 8.296875  z " id="DejaVuSans-50" />
      </defs>
      <g style="fill:#444443;" transform="translate(0 6.07875)scale(0.08 -0.08)">
       <use xlink:href="#DejaVuSans-50" />
      </g>
     </g>
    </g>
   </g>
   <g id="patch_43">
    <path d="M 12.09 41.663586  L 12.09 3.039375  " style="fill:none;stroke:#000000;stroke-linecap:square;stroke-linejoin:miter;stroke-width:0.3;" />
   </g>
   <g id="patch_44">
    <path d="M 12.09 41.663586  L 196.23 41.663586  " style="fill:none;stroke:#000000;stroke-linecap:square;stroke-linejoin:miter;stroke-width:0.3;" />
   </g>
   <g id="text_6">

    <defs>
     <path d="M 10.796875 72.90625  L 49.515625 72.90625  L 49.515625 64.59375  L 19.828125 64.59375  L 19.828125 46.734375  Q 21.96875 47.46875 24.109375 47.828125  Q 26.265625 48.1875 28.421875 48.1875  Q 40.625 48.1875 47.75 41.5  Q 54.890625 34.8125 54.890625 23.390625  Q 54.890625 11.625 47.5625 5.09375  Q 40.234375 -1.421875 26.90625 -1.421875  Q 22.3125 -1.421875 17.546875 -0.640625  Q 12.796875 0.140625 7.71875 1.703125  L 7.71875 11.625  Q 12.109375 9.234375 16.796875 8.0625  Q 21.484375 6.890625 26.703125 6.890625  Q 35.15625 6.890625 40.078125 11.328125  Q 45.015625 15.765625 45.015625 23.390625  Q 45.015625 31 40.078125 35.4375  Q 35.15625 39.890625 26.703125 39.890625  Q 22.75 39.890625 18.8125 39.015625  Q 14.890625 38.140625 10.796875 36.28125  z " id="DejaVuSans-53" />
     <path d="M 37.796875 64.3125  L 12.890625 25.390625  L 37.796875 25.390625  z M 35.203125 72.90625  L 47.609375 72.90625  L 47.609375 25.390625  L 58.015625 25.390625  L 58.015625 17.1875  L 47.609375 17.1875  L 47.609375 0  L 37.796875 0  L 37.796875 17.1875  L 4.890625 17.1875  L 4.890625 26.703125  z " id="DejaVuSans-52" />
     <path d="M 10.6875 12.40625  L 21 12.40625  L 21 0  L 10.6875 0  z " id="DejaVuSans-46" />
    </defs>
    <g style="fill:#444443;" transform="translate(155.785059 57.971586)scale(0.08 -0.08)">
     <use xlink:href="#DejaVuSans-54" />
     <use x="63.623047" xlink:href="#DejaVuSans-53" />
     <use x="127.246094" xlink:href="#DejaVuSans-54" />
     <use x="190.869141" xlink:href="#DejaVuSans-52" />
     <use x="254.492188" xlink:href="#DejaVuSans-46" />
     <use x="286.279297" xlink:href="#DejaVuSans-56" />
     <use x="349.902344" xlink:href="#DejaVuSans-50" />
    </g>
   </g>
   <g id="text_7">

    <g style="fill:#444443;" transform="translate(155.785059 57.971586)scale(0.08 -0.08)">
     <use xlink:href="#DejaVuSans-54" />
     <use x="63.623047" xlink:href="#DejaVuSans-53" />
     <use x="127.246094" xlink:href="#DejaVuSans-54" />
     <use x="190.869141" xlink:href="#DejaVuSans-52" />
     <use x="254.492188" xlink:href="#DejaVuSans-46" />
     <use x="286.279297" xlink:href="#DejaVuSans-56" />
     <use x="349.902344" xlink:href="#DejaVuSans-50" />
    </g>
   </g>
  </g>
 </g>
 <defs>
  <clipPath id="pa59956793d">
   <rect height="38.624211" width="184.14" x="12.09" y="3.039375" />
  </clipPath>
 </defs>
</svg></g>

<g class="node" id="node4">
<title>leaf297</title>
<polygon fill="none" points="291.5,-179 266.5,-179 266.5,-148 291.5,-148 291.5,-179" stroke="#d67c03" stroke-dasharray="5,2" stroke-width=".5" />
<svg height="23px" preserveAspectRatio="xMinYMin meet" version="1.1" viewBox="0 0 22.369219 30.781554" width="17px" x="271" y="-174.5">
 <defs>
  <style type="text/css">
*{stroke-linecap:butt;stroke-linejoin:round;}
  </style>
 </defs>
 <g id="figure_1">
  <g id="patch_1">
   <path d="M 0 30.781554  L 22.369219 30.781554  L 22.369219 0  L 0 0  z " style="fill:#ffffff;" />
  </g>
  <g id="axes_1">
   <g id="patch_2">
    <path d="M 16.922609 5.79617  C 16.922609 4.976539 16.746992 4.166343 16.407613 3.420275  C 16.068234 2.674208 15.572906 2.009445 14.955068 1.470863  C 14.33723 0.932281 13.611104 0.532278 12.825711 0.297859  C 12.040318 0.06344 11.213738 0 10.401771 0.111823  L 11.184609 5.79617  L 16.922609 5.79617  z " style="fill:#fefebb;stroke:#444443;stroke-linejoin:miter;stroke-width:0.5;" />
   </g>
   <g id="patch_3">
    <path d="M 10.401771 0.111823  C 9.310736 0.262078 8.285687 0.723318 7.449617 1.4402  C 6.613546 2.157083 6.001286 3.09974 5.686298 4.155068  C 5.37131 5.210396 5.366718 6.334427 5.673073 7.392293  C 5.979427 8.450159 6.583965 9.397788 7.41415 10.121478  C 8.244336 10.845167 9.265581 11.314767 10.355352 11.473932  C 11.445123 11.633097 12.558017 11.475196 13.560504 11.019174  C 14.56299 10.563153 15.413302 9.82801 16.009416 8.901953  C 16.60553 7.975895 16.922609 6.897504 16.922609 5.796171  L 11.184609 5.79617  L 10.401771 0.111823  z " style="fill:#a1dab4;stroke:#444443;stroke-linejoin:miter;stroke-width:0.5;" />
   </g>
   <g id="text_1">

    <defs>
     <path d="M 54.890625 33.015625  L 54.890625 0  L 45.90625 0  L 45.90625 32.71875  Q 45.90625 40.484375 42.875 44.328125  Q 39.84375 48.1875 33.796875 48.1875  Q 26.515625 48.1875 22.3125 43.546875  Q 18.109375 38.921875 18.109375 30.90625  L 18.109375 0  L 9.078125 0  L 9.078125 54.6875  L 18.109375 54.6875  L 18.109375 46.1875  Q 21.34375 51.125 25.703125 53.5625  Q 30.078125 56 35.796875 56  Q 45.21875 56 50.046875 50.171875  Q 54.890625 44.34375 54.890625 33.015625  z " id="DejaVuSans-110" />
     <path d="M 10.59375 45.40625  L 73.1875 45.40625  L 73.1875 37.203125  L 10.59375 37.203125  z M 10.59375 25.484375  L 73.1875 25.484375  L 73.1875 17.1875  L 10.59375 17.1875  z " id="DejaVuSans-61" />
     <path d="M 19.1875 8.296875  L 53.609375 8.296875  L 53.609375 0  L 7.328125 0  L 7.328125 8.296875  Q 12.9375 14.109375 22.625 23.890625  Q 32.328125 33.6875 34.8125 36.53125  Q 39.546875 41.84375 41.421875 45.53125  Q 43.3125 49.21875 43.3125 52.78125  Q 43.3125 58.59375 39.234375 62.25  Q 35.15625 65.921875 28.609375 65.921875  Q 23.96875 65.921875 18.8125 64.3125  Q 13.671875 62.703125 7.8125 59.421875  L 7.8125 69.390625  Q 13.765625 71.78125 18.9375 73  Q 24.125 74.21875 28.421875 74.21875  Q 39.75 74.21875 46.484375 68.546875  Q 53.21875 62.890625 53.21875 53.421875  Q 53.21875 48.921875 51.53125 44.890625  Q 49.859375 40.875 45.40625 35.40625  Q 44.1875 33.984375 37.640625 27.21875  Q 31.109375 20.453125 19.1875 8.296875  z " id="DejaVuSans-50" />
    </defs>
    <g style="fill:#444443;" transform="translate(1.69875 18.831804)scale(0.09 -0.09)">
     <use xlink:href="#DejaVuSans-110" />
     <use x="63.378906" xlink:href="#DejaVuSans-61" />
     <use x="147.167969" xlink:href="#DejaVuSans-50" />
    </g>

    <defs>
     <path d="M 2.984375 54.6875  L 12.5 54.6875  L 29.59375 8.796875  L 46.6875 54.6875  L 56.203125 54.6875  L 35.6875 0  L 23.484375 0  z " id="DejaVuSans-118" />
     <path d="M 9.421875 54.6875  L 18.40625 54.6875  L 18.40625 0  L 9.421875 0  z M 9.421875 75.984375  L 18.40625 75.984375  L 18.40625 64.59375  L 9.421875 64.59375  z " id="DejaVuSans-105" />
     <path d="M 54.890625 54.6875  L 35.109375 28.078125  L 55.90625 0  L 45.3125 0  L 29.390625 21.484375  L 13.484375 0  L 2.875 0  L 24.125 28.609375  L 4.6875 54.6875  L 15.28125 54.6875  L 29.78125 35.203125  L 44.28125 54.6875  z " id="DejaVuSans-120" />
     <path d="M 41.109375 46.296875  Q 39.59375 47.171875 37.8125 47.578125  Q 36.03125 48 33.890625 48  Q 26.265625 48 22.1875 43.046875  Q 18.109375 38.09375 18.109375 28.8125  L 18.109375 0  L 9.078125 0  L 9.078125 54.6875  L 18.109375 54.6875  L 18.109375 46.1875  Q 20.953125 51.171875 25.484375 53.578125  Q 30.03125 56 36.53125 56  Q 37.453125 56 38.578125 55.875  Q 39.703125 55.765625 41.0625 55.515625  z " id="DejaVuSans-114" />
     <path d="M 34.28125 27.484375  Q 23.390625 27.484375 19.1875 25  Q 14.984375 22.515625 14.984375 16.5  Q 14.984375 11.71875 18.140625 8.90625  Q 21.296875 6.109375 26.703125 6.109375  Q 34.1875 6.109375 38.703125 11.40625  Q 43.21875 16.703125 43.21875 25.484375  L 43.21875 27.484375  z M 52.203125 31.203125  L 52.203125 0  L 43.21875 0  L 43.21875 8.296875  Q 40.140625 3.328125 35.546875 0.953125  Q 30.953125 -1.421875 24.3125 -1.421875  Q 15.921875 -1.421875 10.953125 3.296875  Q 6 8.015625 6 15.921875  Q 6 25.140625 12.171875 29.828125  Q 18.359375 34.515625 30.609375 34.515625  L 43.21875 34.515625  L 43.21875 35.40625  Q 43.21875 41.609375 39.140625 45  Q 35.0625 48.390625 27.6875 48.390625  Q 23 48.390625 18.546875 47.265625  Q 14.109375 46.140625 10.015625 43.890625  L 10.015625 52.203125  Q 14.9375 54.109375 19.578125 55.046875  Q 24.21875 56 28.609375 56  Q 40.484375 56 46.34375 49.84375  Q 52.203125 43.703125 52.203125 31.203125  z " id="DejaVuSans-97" />
    </defs>
    <g style="fill:#444443;" transform="translate(0 28.909835)scale(0.09 -0.09)">
     <use xlink:href="#DejaVuSans-118" />
     <use x="59.179688" xlink:href="#DejaVuSans-105" />
     <use x="86.962891" xlink:href="#DejaVuSans-120" />
     <use x="146.142578" xlink:href="#DejaVuSans-114" />
     <use x="187.255859" xlink:href="#DejaVuSans-97" />
    </g>
   </g>
  </g>
 </g>
</svg></g>

<g class="edge" id="edge1">
<title>node59-&gt;leaf297</title>
<path d="M279,-195.9941C279,-191.74 279,-187.4681 279,-183.4841" fill="none" stroke="#d67c03" stroke-width="1.2" />
<polygon fill="#d67c03" points="280.4001,-183.2884 279,-179.2884 277.6001,-183.2885 280.4001,-183.2884" stroke="#d67c03" stroke-width="1.2" />
</g>

<g class="node" id="node2">
<title>node58</title>
<polygon fill="none" points="358.5,-370 199.5,-370 199.5,-275 358.5,-275 358.5,-370" stroke="#d67c03" stroke-dasharray="5,2" stroke-width=".5" />
<svg height="87px" preserveAspectRatio="xMinYMin meet" version="1.1" viewBox="0 0 201.32 115.269375" width="151px" x="204" y="-365.5">
 <defs>
  <style type="text/css">
*{stroke-linecap:butt;stroke-linejoin:round;}
  </style>
 </defs>
 <g id="figure_1">
  <g id="patch_1">
   <path d="M 0 115.269375  L 201.32 115.269375  L 201.32 0  L 0 0  z " style="fill:#ffffff;" />
  </g>
  <g id="axes_1">
   <g id="patch_2">
    <path d="M 17.18 84.579375  L 201.32 84.579375  L 201.32 3.039375  L 17.18 3.039375  z " style="fill:#ffffff;" />
   </g>
   <g id="patch_3">
    <path clip-path="url(#p18f56b1fdf)" d="M 109.25 84.579375  L 109.25 84.579375  L 109.25 84.579375  L 109.25 84.579375  z " style="fill:#fefebb;stroke:#444443;stroke-linejoin:miter;stroke-width:0.5;" />
   </g>
   <g id="patch_4">
    <path clip-path="url(#p18f56b1fdf)" d="M 109.25 84.579375  L 109.25 84.579375  L 109.25 84.579375  L 109.25 84.579375  z " style="fill:#fefebb;stroke:#444443;stroke-linejoin:miter;stroke-width:0.5;" />
   </g>
   <g id="patch_5">
    <path clip-path="url(#p18f56b1fdf)" d="M 109.25 84.579375  L 109.25 84.579375  L 109.25 84.579375  L 109.25 84.579375  z " style="fill:#fefebb;stroke:#444443;stroke-linejoin:miter;stroke-width:0.5;" />
   </g>
   <g id="patch_6">
    <path clip-path="url(#p18f56b1fdf)" d="M 109.25 84.579375  L 109.25 84.579375  L 109.25 84.579375  L 109.25 84.579375  z " style="fill:#fefebb;stroke:#444443;stroke-linejoin:miter;stroke-width:0.5;" />
   </g>
   <g id="patch_7">
    <path clip-path="url(#p18f56b1fdf)" d="M 109.25 84.579375  L 109.25 84.579375  L 109.25 84.579375  L 109.25 84.579375  z " style="fill:#fefebb;stroke:#444443;stroke-linejoin:miter;stroke-width:0.5;" />
   </g>
   <g id="patch_8">
    <path clip-path="url(#p18f56b1fdf)" d="M 109.25 84.579375  L 109.25 84.579375  L 109.25 84.579375  L 109.25 84.579375  z " style="fill:#fefebb;stroke:#444443;stroke-linejoin:miter;stroke-width:0.5;" />
   </g>
   <g id="patch_9">
    <path clip-path="url(#p18f56b1fdf)" d="M 109.25 84.579375  L 109.25 84.579375  L 109.25 84.579375  L 109.25 84.579375  z " style="fill:#fefebb;stroke:#444443;stroke-linejoin:miter;stroke-width:0.5;" />
   </g>
   <g id="patch_10">
    <path clip-path="url(#p18f56b1fdf)" d="M 109.25 84.579375  L 109.25 84.579375  L 109.25 84.579375  L 109.25 84.579375  z " style="fill:#fefebb;stroke:#444443;stroke-linejoin:miter;stroke-width:0.5;" />
   </g>
   <g id="patch_11">
    <path clip-path="url(#p18f56b1fdf)" d="M 109.25 84.579375  L 109.25 84.579375  L 109.25 84.579375  L 109.25 84.579375  z " style="fill:#fefebb;stroke:#444443;stroke-linejoin:miter;stroke-width:0.5;" />
   </g>
   <g id="patch_12">
    <path clip-path="url(#p18f56b1fdf)" d="M 109.25 84.579375  L 109.25 84.579375  L 109.25 84.579375  L 109.25 84.579375  z " style="fill:#fefebb;stroke:#444443;stroke-linejoin:miter;stroke-width:0.5;" />
   </g>
   <g id="patch_13">
    <path clip-path="url(#p18f56b1fdf)" d="M 109.25 84.579375  L 109.25 84.579375  L 109.25 84.579375  L 109.25 84.579375  z " style="fill:#fefebb;stroke:#444443;stroke-linejoin:miter;stroke-width:0.5;" />
   </g>
   <g id="patch_14">
    <path clip-path="url(#p18f56b1fdf)" d="M 109.25 84.579375  L 109.25 84.579375  L 109.25 84.579375  L 109.25 84.579375  z " style="fill:#fefebb;stroke:#444443;stroke-linejoin:miter;stroke-width:0.5;" />
   </g>
   <g id="patch_15">
    <path clip-path="url(#p18f56b1fdf)" d="M 109.25 84.579375  L 109.25 84.579375  L 109.25 84.579375  L 109.25 84.579375  z " style="fill:#fefebb;stroke:#444443;stroke-linejoin:miter;stroke-width:0.5;" />
   </g>
   <g id="patch_16">
    <path clip-path="url(#p18f56b1fdf)" d="M 109.25 84.579375  L 109.25 84.579375  L 109.25 84.579375  L 109.25 84.579375  z " style="fill:#fefebb;stroke:#444443;stroke-linejoin:miter;stroke-width:0.5;" />
   </g>
   <g id="patch_17">
    <path clip-path="url(#p18f56b1fdf)" d="M 109.25 84.579375  L 109.25 84.579375  L 109.25 84.579375  L 109.25 84.579375  z " style="fill:#fefebb;stroke:#444443;stroke-linejoin:miter;stroke-width:0.5;" />
   </g>
   <g id="patch_18">
    <path clip-path="url(#p18f56b1fdf)" d="M 109.25 84.579375  L 109.25 84.579375  L 109.25 84.579375  L 109.25 84.579375  z " style="fill:#fefebb;stroke:#444443;stroke-linejoin:miter;stroke-width:0.5;" />
   </g>
   <g id="patch_19">
    <path clip-path="url(#p18f56b1fdf)" d="M 109.25 84.579375  L 109.25 84.579375  L 109.25 84.579375  L 109.25 84.579375  z " style="fill:#fefebb;stroke:#444443;stroke-linejoin:miter;stroke-width:0.5;" />
   </g>
   <g id="patch_20">
    <path clip-path="url(#p18f56b1fdf)" d="M 109.25 84.579375  L 109.25 84.579375  L 109.25 84.579375  L 109.25 84.579375  z " style="fill:#fefebb;stroke:#444443;stroke-linejoin:miter;stroke-width:0.5;" />
   </g>
   <g id="patch_21">
    <path clip-path="url(#p18f56b1fdf)" d="M 109.25 84.579375  L 109.25 84.579375  L 109.25 3.039375  L 109.25 3.039375  z " style="fill:#fefebb;stroke:#444443;stroke-linejoin:miter;stroke-width:0.5;" />
   </g>
   <g id="patch_22">
    <path clip-path="url(#p18f56b1fdf)" d="M 109.25 84.579375  L 109.25 84.579375  L 109.25 84.579375  L 109.25 84.579375  z " style="fill:#a1dab4;stroke:#444443;stroke-linejoin:miter;stroke-width:0.5;" />
   </g>
   <g id="patch_23">
    <path clip-path="url(#p18f56b1fdf)" d="M 109.25 84.579375  L 109.25 84.579375  L 109.25 84.579375  L 109.25 84.579375  z " style="fill:#a1dab4;stroke:#444443;stroke-linejoin:miter;stroke-width:0.5;" />
   </g>
   <g id="patch_24">
    <path clip-path="url(#p18f56b1fdf)" d="M 109.25 84.579375  L 109.25 84.579375  L 109.25 84.579375  L 109.25 84.579375  z " style="fill:#a1dab4;stroke:#444443;stroke-linejoin:miter;stroke-width:0.5;" />
   </g>
   <g id="patch_25">
    <path clip-path="url(#p18f56b1fdf)" d="M 109.25 84.579375  L 109.25 84.579375  L 109.25 84.579375  L 109.25 84.579375  z " style="fill:#a1dab4;stroke:#444443;stroke-linejoin:miter;stroke-width:0.5;" />
   </g>
   <g id="patch_26">
    <path clip-path="url(#p18f56b1fdf)" d="M 109.25 84.579375  L 109.25 84.579375  L 109.25 84.579375  L 109.25 84.579375  z " style="fill:#a1dab4;stroke:#444443;stroke-linejoin:miter;stroke-width:0.5;" />
   </g>
   <g id="patch_27">
    <path clip-path="url(#p18f56b1fdf)" d="M 109.25 84.579375  L 109.25 84.579375  L 109.25 84.579375  L 109.25 84.579375  z " style="fill:#a1dab4;stroke:#444443;stroke-linejoin:miter;stroke-width:0.5;" />
   </g>
   <g id="patch_28">
    <path clip-path="url(#p18f56b1fdf)" d="M 109.25 84.579375  L 109.25 84.579375  L 109.25 84.579375  L 109.25 84.579375  z " style="fill:#a1dab4;stroke:#444443;stroke-linejoin:miter;stroke-width:0.5;" />
   </g>
   <g id="patch_29">
    <path clip-path="url(#p18f56b1fdf)" d="M 109.25 84.579375  L 109.25 84.579375  L 109.25 84.579375  L 109.25 84.579375  z " style="fill:#a1dab4;stroke:#444443;stroke-linejoin:miter;stroke-width:0.5;" />
   </g>
   <g id="patch_30">
    <path clip-path="url(#p18f56b1fdf)" d="M 109.25 84.579375  L 109.25 84.579375  L 109.25 84.579375  L 109.25 84.579375  z " style="fill:#a1dab4;stroke:#444443;stroke-linejoin:miter;stroke-width:0.5;" />
   </g>
   <g id="patch_31">
    <path clip-path="url(#p18f56b1fdf)" d="M 109.25 84.579375  L 109.25 84.579375  L 109.25 84.579375  L 109.25 84.579375  z " style="fill:#a1dab4;stroke:#444443;stroke-linejoin:miter;stroke-width:0.5;" />
   </g>
   <g id="patch_32">
    <path clip-path="url(#p18f56b1fdf)" d="M 109.25 84.579375  L 109.25 84.579375  L 109.25 84.579375  L 109.25 84.579375  z " style="fill:#a1dab4;stroke:#444443;stroke-linejoin:miter;stroke-width:0.5;" />
   </g>
   <g id="patch_33">
    <path clip-path="url(#p18f56b1fdf)" d="M 109.25 84.579375  L 109.25 84.579375  L 109.25 84.579375  L 109.25 84.579375  z " style="fill:#a1dab4;stroke:#444443;stroke-linejoin:miter;stroke-width:0.5;" />
   </g>
   <g id="patch_34">
    <path clip-path="url(#p18f56b1fdf)" d="M 109.25 84.579375  L 109.25 84.579375  L 109.25 84.579375  L 109.25 84.579375  z " style="fill:#a1dab4;stroke:#444443;stroke-linejoin:miter;stroke-width:0.5;" />
   </g>
   <g id="patch_35">
    <path clip-path="url(#p18f56b1fdf)" d="M 109.25 84.579375  L 109.25 84.579375  L 109.25 84.579375  L 109.25 84.579375  z " style="fill:#a1dab4;stroke:#444443;stroke-linejoin:miter;stroke-width:0.5;" />
   </g>
   <g id="patch_36">
    <path clip-path="url(#p18f56b1fdf)" d="M 109.25 84.579375  L 109.25 84.579375  L 109.25 84.579375  L 109.25 84.579375  z " style="fill:#a1dab4;stroke:#444443;stroke-linejoin:miter;stroke-width:0.5;" />
   </g>
   <g id="patch_37">
    <path clip-path="url(#p18f56b1fdf)" d="M 109.25 84.579375  L 109.25 84.579375  L 109.25 84.579375  L 109.25 84.579375  z " style="fill:#a1dab4;stroke:#444443;stroke-linejoin:miter;stroke-width:0.5;" />
   </g>
   <g id="patch_38">
    <path clip-path="url(#p18f56b1fdf)" d="M 109.25 84.579375  L 109.25 84.579375  L 109.25 84.579375  L 109.25 84.579375  z " style="fill:#a1dab4;stroke:#444443;stroke-linejoin:miter;stroke-width:0.5;" />
   </g>
   <g id="patch_39">
    <path clip-path="url(#p18f56b1fdf)" d="M 109.25 84.579375  L 109.25 84.579375  L 109.25 84.579375  L 109.25 84.579375  z " style="fill:#a1dab4;stroke:#444443;stroke-linejoin:miter;stroke-width:0.5;" />
   </g>
   <g id="patch_40">
    <path clip-path="url(#p18f56b1fdf)" d="M 109.25 3.039375  L 109.25 3.039375  L 109.25 3.039375  L 109.25 3.039375  z " style="fill:#a1dab4;stroke:#444443;stroke-linejoin:miter;stroke-width:0.5;" />
   </g>
   <g id="patch_41">
    <path d="M 120.081765 85.394775  L 116.767245 92.733375  L 123.396285 92.733375  z " style="fill:#444443;" />
   </g>
   <g id="patch_42">
    <path d="M 109.25 85.394775  L 105.93548 92.733375  L 112.56452 92.733375  z " style="fill:#d67c03;" />
   </g>
   <g id="matplotlib.axis_1">
    <g id="xtick_1">
     <g id="line2d_1">
      <defs>
       <path d="M 0 0  L 0 3.5  " id="mba65cc770d" style="stroke:#000000;stroke-width:0.3;" />
      </defs>
      <g>
       <use style="stroke:#000000;stroke-width:0.3;" x="109.25" y="84.579375" xlink:href="#mba65cc770d" />
      </g>
     </g>
     <g id="text_1">

      <defs>
       <path d="M 31.78125 66.40625  Q 24.171875 66.40625 20.328125 58.90625  Q 16.5 51.421875 16.5 36.375  Q 16.5 21.390625 20.328125 13.890625  Q 24.171875 6.390625 31.78125 6.390625  Q 39.453125 6.390625 43.28125 13.890625  Q 47.125 21.390625 47.125 36.375  Q 47.125 51.421875 43.28125 58.90625  Q 39.453125 66.40625 31.78125 66.40625  z M 31.78125 74.21875  Q 44.046875 74.21875 50.515625 64.515625  Q 56.984375 54.828125 56.984375 36.375  Q 56.984375 17.96875 50.515625 8.265625  Q 44.046875 -1.421875 31.78125 -1.421875  Q 19.53125 -1.421875 13.0625 8.265625  Q 6.59375 17.96875 6.59375 36.375  Q 6.59375 54.828125 13.0625 64.515625  Q 19.53125 74.21875 31.78125 74.21875  z " id="DejaVuSans-48" />
      </defs>
      <g style="fill:#444443;" transform="translate(106.705 97.658125)scale(0.08 -0.08)">
       <use xlink:href="#DejaVuSans-48" />
      </g>
     </g>
    </g>
    <g id="xtick_2">
     <g id="line2d_2">
      <g>
       <use style="stroke:#000000;stroke-width:0.3;" x="109.25" y="84.579375" xlink:href="#mba65cc770d" />
      </g>
     </g>
     <g id="text_2">

      <g style="fill:#444443;" transform="translate(106.705 97.658125)scale(0.08 -0.08)">
       <use xlink:href="#DejaVuSans-48" />
      </g>
     </g>
    </g>
    <g id="text_3">

     <defs>
      <path d="M 33.796875 -14.703125  L 28.90625 -14.703125  L 28.859375 0  Q 23.734375 0.09375 18.609375 1.1875  Q 13.484375 2.296875 8.296875 4.5  L 8.296875 13.28125  Q 13.28125 10.15625 18.375 8.5625  Q 23.484375 6.984375 28.90625 6.9375  L 28.90625 29.203125  Q 18.109375 30.953125 13.203125 35.15625  Q 8.296875 39.359375 8.296875 46.6875  Q 8.296875 54.640625 13.625 59.21875  Q 18.953125 63.8125 28.90625 64.5  L 28.90625 75.984375  L 33.796875 75.984375  L 33.796875 64.65625  Q 38.328125 64.453125 42.578125 63.6875  Q 46.828125 62.9375 50.875 61.625  L 50.875 53.078125  Q 46.828125 55.125 42.546875 56.25  Q 38.28125 57.375 33.796875 57.5625  L 33.796875 36.71875  Q 44.875 35.015625 50.09375 30.609375  Q 55.328125 26.21875 55.328125 18.609375  Q 55.328125 10.359375 49.78125 5.59375  Q 44.234375 0.828125 33.796875 0.09375  z M 28.90625 37.59375  L 28.90625 57.625  Q 23.25 56.984375 20.265625 54.390625  Q 17.28125 51.8125 17.28125 47.515625  Q 17.28125 43.3125 20.03125 40.96875  Q 22.796875 38.625 28.90625 37.59375  z M 33.796875 28.21875  L 33.796875 7.078125  Q 39.984375 7.90625 43.140625 10.59375  Q 46.296875 13.28125 46.296875 17.671875  Q 46.296875 21.96875 43.28125 24.5  Q 40.28125 27.046875 33.796875 28.21875  z " id="DejaVuSans-36" />
      <path d="M 50.984375 -16.609375  L 50.984375 -23.578125  L -0.984375 -23.578125  L -0.984375 -16.609375  z " id="DejaVuSans-95" />
      <path d="M 18.109375 8.203125  L 18.109375 -20.796875  L 9.078125 -20.796875  L 9.078125 54.6875  L 18.109375 54.6875  L 18.109375 46.390625  Q 20.953125 51.265625 25.265625 53.625  Q 29.59375 56 35.59375 56  Q 45.5625 56 51.78125 48.09375  Q 58.015625 40.1875 58.015625 27.296875  Q 58.015625 14.40625 51.78125 6.484375  Q 45.5625 -1.421875 35.59375 -1.421875  Q 29.59375 -1.421875 25.265625 0.953125  Q 20.953125 3.328125 18.109375 8.203125  z M 48.6875 27.296875  Q 48.6875 37.203125 44.609375 42.84375  Q 40.53125 48.484375 33.40625 48.484375  Q 26.265625 48.484375 22.1875 42.84375  Q 18.109375 37.203125 18.109375 27.296875  Q 18.109375 17.390625 22.1875 11.75  Q 26.265625 6.109375 33.40625 6.109375  Q 40.53125 6.109375 44.609375 11.75  Q 48.6875 17.390625 48.6875 27.296875  z " id="DejaVuSans-112" />
      <path d="M 56.203125 29.59375  L 56.203125 25.203125  L 14.890625 25.203125  Q 15.484375 15.921875 20.484375 11.0625  Q 25.484375 6.203125 34.421875 6.203125  Q 39.59375 6.203125 44.453125 7.46875  Q 49.3125 8.734375 54.109375 11.28125  L 54.109375 2.78125  Q 49.265625 0.734375 44.1875 -0.34375  Q 39.109375 -1.421875 33.890625 -1.421875  Q 20.796875 -1.421875 13.15625 6.1875  Q 5.515625 13.8125 5.515625 26.8125  Q 5.515625 40.234375 12.765625 48.109375  Q 20.015625 56 32.328125 56  Q 43.359375 56 49.78125 48.890625  Q 56.203125 41.796875 56.203125 29.59375  z M 47.21875 32.234375  Q 47.125 39.59375 43.09375 43.984375  Q 39.0625 48.390625 32.421875 48.390625  Q 24.90625 48.390625 20.390625 44.140625  Q 15.875 39.890625 15.1875 32.171875  z " id="DejaVuSans-101" />
      <path d="M 41.109375 46.296875  Q 39.59375 47.171875 37.8125 47.578125  Q 36.03125 48 33.890625 48  Q 26.265625 48 22.1875 43.046875  Q 18.109375 38.09375 18.109375 28.8125  L 18.109375 0  L 9.078125 0  L 9.078125 54.6875  L 18.109375 54.6875  L 18.109375 46.1875  Q 20.953125 51.171875 25.484375 53.578125  Q 30.03125 56 36.53125 56  Q 37.453125 56 38.578125 55.875  Q 39.703125 55.765625 41.0625 55.515625  z " id="DejaVuSans-114" />
      <path d="M 48.78125 52.59375  L 48.78125 44.1875  Q 44.96875 46.296875 41.140625 47.34375  Q 37.3125 48.390625 33.40625 48.390625  Q 24.65625 48.390625 19.8125 42.84375  Q 14.984375 37.3125 14.984375 27.296875  Q 14.984375 17.28125 19.8125 11.734375  Q 24.65625 6.203125 33.40625 6.203125  Q 37.3125 6.203125 41.140625 7.25  Q 44.96875 8.296875 48.78125 10.40625  L 48.78125 2.09375  Q 45.015625 0.34375 40.984375 -0.53125  Q 36.96875 -1.421875 32.421875 -1.421875  Q 20.0625 -1.421875 12.78125 6.34375  Q 5.515625 14.109375 5.515625 27.296875  Q 5.515625 40.671875 12.859375 48.328125  Q 20.21875 56 33.015625 56  Q 37.15625 56 41.109375 55.140625  Q 45.0625 54.296875 48.78125 52.59375  z " id="DejaVuSans-99" />
      <path d="M 54.890625 33.015625  L 54.890625 0  L 45.90625 0  L 45.90625 32.71875  Q 45.90625 40.484375 42.875 44.328125  Q 39.84375 48.1875 33.796875 48.1875  Q 26.515625 48.1875 22.3125 43.546875  Q 18.109375 38.921875 18.109375 30.90625  L 18.109375 0  L 9.078125 0  L 9.078125 54.6875  L 18.109375 54.6875  L 18.109375 46.1875  Q 21.34375 51.125 25.703125 53.5625  Q 30.078125 56 35.796875 56  Q 45.21875 56 50.046875 50.171875  Q 54.890625 44.34375 54.890625 33.015625  z " id="DejaVuSans-110" />
      <path d="M 18.3125 70.21875  L 18.3125 54.6875  L 36.8125 54.6875  L 36.8125 47.703125  L 18.3125 47.703125  L 18.3125 18.015625  Q 18.3125 11.328125 20.140625 9.421875  Q 21.96875 7.515625 27.59375 7.515625  L 36.8125 7.515625  L 36.8125 0  L 27.59375 0  Q 17.1875 0 13.234375 3.875  Q 9.28125 7.765625 9.28125 18.015625  L 9.28125 47.703125  L 2.6875 47.703125  L 2.6875 54.6875  L 9.28125 54.6875  L 9.28125 70.21875  z " id="DejaVuSans-116" />
     </defs>
     <g style="fill:#444443;" transform="translate(79.454375 112.44)scale(0.12 -0.12)">
      <use xlink:href="#DejaVuSans-36" />
      <use x="63.623047" xlink:href="#DejaVuSans-95" />
      <use x="113.623047" xlink:href="#DejaVuSans-112" />
      <use x="177.099609" xlink:href="#DejaVuSans-101" />
      <use x="238.623047" xlink:href="#DejaVuSans-114" />
      <use x="277.486328" xlink:href="#DejaVuSans-99" />
      <use x="332.466797" xlink:href="#DejaVuSans-101" />
      <use x="393.990234" xlink:href="#DejaVuSans-110" />
      <use x="457.369141" xlink:href="#DejaVuSans-116" />
     </g>
    </g>
   </g>
   <g id="matplotlib.axis_2">
    <g id="ytick_1">
     <g id="line2d_3">
      <defs>
       <path d="M 0 0  L -3.5 0  " id="ma78be01a36" style="stroke:#000000;stroke-width:0.3;" />
      </defs>
      <g>
       <use style="stroke:#000000;stroke-width:0.3;" x="17.18" y="84.579375" xlink:href="#ma78be01a36" />
      </g>
     </g>
     <g id="text_4">

      <g style="fill:#444443;" transform="translate(5.09 87.61875)scale(0.08 -0.08)">
       <use xlink:href="#DejaVuSans-48" />
      </g>
     </g>
    </g>
    <g id="ytick_2">
     <g id="line2d_4">
      <g>
       <use style="stroke:#000000;stroke-width:0.3;" x="17.18" y="3.039375" xlink:href="#ma78be01a36" />
      </g>
     </g>
     <g id="text_5">

      <defs>
       <path d="M 12.40625 8.296875  L 28.515625 8.296875  L 28.515625 63.921875  L 10.984375 60.40625  L 10.984375 69.390625  L 28.421875 72.90625  L 38.28125 72.90625  L 38.28125 8.296875  L 54.390625 8.296875  L 54.390625 0  L 12.40625 0  z " id="DejaVuSans-49" />
       <path d="M 10.984375 1.515625  L 10.984375 10.5  Q 14.703125 8.734375 18.5 7.8125  Q 22.3125 6.890625 25.984375 6.890625  Q 35.75 6.890625 40.890625 13.453125  Q 46.046875 20.015625 46.78125 33.40625  Q 43.953125 29.203125 39.59375 26.953125  Q 35.25 24.703125 29.984375 24.703125  Q 19.046875 24.703125 12.671875 31.3125  Q 6.296875 37.9375 6.296875 49.421875  Q 6.296875 60.640625 12.9375 67.421875  Q 19.578125 74.21875 30.609375 74.21875  Q 43.265625 74.21875 49.921875 64.515625  Q 56.59375 54.828125 56.59375 36.375  Q 56.59375 19.140625 48.40625 8.859375  Q 40.234375 -1.421875 26.421875 -1.421875  Q 22.703125 -1.421875 18.890625 -0.6875  Q 15.09375 0.046875 10.984375 1.515625  z M 30.609375 32.421875  Q 37.25 32.421875 41.125 36.953125  Q 45.015625 41.5 45.015625 49.421875  Q 45.015625 57.28125 41.125 61.84375  Q 37.25 66.40625 30.609375 66.40625  Q 23.96875 66.40625 20.09375 61.84375  Q 16.21875 57.28125 16.21875 49.421875  Q 16.21875 41.5 20.09375 36.953125  Q 23.96875 32.421875 30.609375 32.421875  z " id="DejaVuSans-57" />
      </defs>
      <g style="fill:#444443;" transform="translate(0 6.07875)scale(0.08 -0.08)">
       <use xlink:href="#DejaVuSans-49" />
       <use x="63.623047" xlink:href="#DejaVuSans-57" />
      </g>
     </g>
    </g>
   </g>
   <g id="patch_43">
    <path d="M 17.18 84.579375  L 17.18 3.039375  " style="fill:none;stroke:#000000;stroke-linecap:square;stroke-linejoin:miter;stroke-width:0.3;" />
   </g>
   <g id="patch_44">
    <path d="M 17.18 84.579375  L 201.32 84.579375  " style="fill:none;stroke:#000000;stroke-linecap:square;stroke-linejoin:miter;stroke-width:0.3;" />
   </g>
   <g id="text_6">

    <defs>
     <path d="M 10.6875 12.40625  L 21 12.40625  L 21 0  L 10.6875 0  z " id="DejaVuSans-46" />
    </defs>
    <g style="fill:#444443;" transform="translate(111.175515 100.887375)scale(0.08 -0.08)">
     <use xlink:href="#DejaVuSans-48" />
     <use x="63.623047" xlink:href="#DejaVuSans-46" />
     <use x="95.410156" xlink:href="#DejaVuSans-48" />
     <use x="159.033203" xlink:href="#DejaVuSans-49" />
    </g>
   </g>
   <g id="text_7">

    <g style="fill:#444443;" transform="translate(111.175515 100.887375)scale(0.08 -0.08)">
     <use xlink:href="#DejaVuSans-48" />
     <use x="63.623047" xlink:href="#DejaVuSans-46" />
     <use x="95.410156" xlink:href="#DejaVuSans-48" />
     <use x="159.033203" xlink:href="#DejaVuSans-49" />
    </g>
   </g>
  </g>
 </g>
 <defs>
  <clipPath id="p18f56b1fdf">
   <rect height="81.54" width="184.14" x="17.18" y="3.039375" />
  </clipPath>
 </defs>
</svg></g>

<g class="edge" id="edge2">
<title>node58-&gt;node59</title>
<path d="M279,-274.75C279,-270.4833 279,-266.2166 279,-262.0861" fill="none" stroke="#d67c03" stroke-width="1.2" />
<polygon fill="#d67c03" points="280.4001,-262.0061 279,-258.0061 277.6001,-262.0061 280.4001,-262.0061" stroke="#d67c03" stroke-width="1.2" />
</g>

<g class="node" id="node3">
<title>node0</title>
<polygon fill="none" points="357,-449 201,-449 201,-387 357,-387 357,-449" stroke="#d67c03" stroke-dasharray="5,2" stroke-width=".5" />
<svg height="54px" preserveAspectRatio="xMinYMin meet" version="1.1" viewBox="0 0 197.498451 72.353586" width="148px" x="205" y="-445">
 <defs>
  <style type="text/css">
*{stroke-linecap:butt;stroke-linejoin:round;}
  </style>
 </defs>
 <g id="figure_1">
  <g id="patch_1">
   <path d="M 0 72.353586  L 197.498451 72.353586  L 197.498451 0  L 0 0  z " style="fill:#ffffff;" />
  </g>
  <g id="axes_1">
   <g id="patch_2">
    <path d="M 12.09 41.663586  L 196.23 41.663586  L 196.23 3.039375  L 12.09 3.039375  z " style="fill:#ffffff;" />
   </g>
   <g id="patch_3">
    <path clip-path="url(#p0e6e986cb4)" d="M 12.35109 41.663586  L 21.559898 41.663586  L 21.559898 3.039375  L 12.35109 3.039375  z " style="fill:#fefebb;stroke:#444443;stroke-linejoin:miter;stroke-width:0.5;" />
   </g>
   <g id="patch_4">
    <path clip-path="url(#p0e6e986cb4)" d="M 21.559898 41.663586  L 30.768707 41.663586  L 30.768707 15.914112  L 21.559898 15.914112  z " style="fill:#fefebb;stroke:#444443;stroke-linejoin:miter;stroke-width:0.5;" />
   </g>
   <g id="patch_5">
    <path clip-path="url(#p0e6e986cb4)" d="M 30.768707 41.663586  L 39.977515 41.663586  L 39.977515 15.914112  L 30.768707 15.914112  z " style="fill:#fefebb;stroke:#444443;stroke-linejoin:miter;stroke-width:0.5;" />
   </g>
   <g id="patch_6">
    <path clip-path="url(#p0e6e986cb4)" d="M 39.977515 41.663586  L 49.186324 41.663586  L 49.186324 28.788849  L 39.977515 28.788849  z " style="fill:#fefebb;stroke:#444443;stroke-linejoin:miter;stroke-width:0.5;" />
   </g>
   <g id="patch_7">
    <path clip-path="url(#p0e6e986cb4)" d="M 49.186324 41.663586  L 58.395132 41.663586  L 58.395132 28.788849  L 49.186324 28.788849  z " style="fill:#fefebb;stroke:#444443;stroke-linejoin:miter;stroke-width:0.5;" />
   </g>
   <g id="patch_8">
    <path clip-path="url(#p0e6e986cb4)" d="M 58.395132 41.663586  L 67.603941 41.663586  L 67.603941 15.914112  L 58.395132 15.914112  z " style="fill:#fefebb;stroke:#444443;stroke-linejoin:miter;stroke-width:0.5;" />
   </g>
   <g id="patch_9">
    <path clip-path="url(#p0e6e986cb4)" d="M 67.603941 41.663586  L 76.812749 41.663586  L 76.812749 41.663586  L 67.603941 41.663586  z " style="fill:#fefebb;stroke:#444443;stroke-linejoin:miter;stroke-width:0.5;" />
   </g>
   <g id="patch_10">
    <path clip-path="url(#p0e6e986cb4)" d="M 76.812749 41.663586  L 86.021558 41.663586  L 86.021558 15.914112  L 76.812749 15.914112  z " style="fill:#fefebb;stroke:#444443;stroke-linejoin:miter;stroke-width:0.5;" />
   </g>
   <g id="patch_11">
    <path clip-path="url(#p0e6e986cb4)" d="M 86.021558 41.663586  L 95.230366 41.663586  L 95.230366 15.914112  L 86.021558 15.914112  z " style="fill:#fefebb;stroke:#444443;stroke-linejoin:miter;stroke-width:0.5;" />
   </g>
   <g id="patch_12">
    <path clip-path="url(#p0e6e986cb4)" d="M 95.230366 41.663586  L 104.439175 41.663586  L 104.439175 28.788849  L 95.230366 28.788849  z " style="fill:#fefebb;stroke:#444443;stroke-linejoin:miter;stroke-width:0.5;" />
   </g>
   <g id="patch_13">
    <path clip-path="url(#p0e6e986cb4)" d="M 104.439175 41.663586  L 113.647983 41.663586  L 113.647983 41.663586  L 104.439175 41.663586  z " style="fill:#fefebb;stroke:#444443;stroke-linejoin:miter;stroke-width:0.5;" />
   </g>
   <g id="patch_14">
    <path clip-path="url(#p0e6e986cb4)" d="M 113.647983 41.663586  L 122.856791 41.663586  L 122.856791 28.788849  L 113.647983 28.788849  z " style="fill:#fefebb;stroke:#444443;stroke-linejoin:miter;stroke-width:0.5;" />
   </g>
   <g id="patch_15">
    <path clip-path="url(#p0e6e986cb4)" d="M 122.856791 41.663586  L 132.0656 41.663586  L 132.0656 41.663586  L 122.856791 41.663586  z " style="fill:#fefebb;stroke:#444443;stroke-linejoin:miter;stroke-width:0.5;" />
   </g>
   <g id="patch_16">
    <path clip-path="url(#p0e6e986cb4)" d="M 132.0656 41.663586  L 141.274408 41.663586  L 141.274408 41.663586  L 132.0656 41.663586  z " style="fill:#fefebb;stroke:#444443;stroke-linejoin:miter;stroke-width:0.5;" />
   </g>
   <g id="patch_17">
    <path clip-path="url(#p0e6e986cb4)" d="M 141.274408 41.663586  L 150.483217 41.663586  L 150.483217 28.788849  L 141.274408 28.788849  z " style="fill:#fefebb;stroke:#444443;stroke-linejoin:miter;stroke-width:0.5;" />
   </g>
   <g id="patch_18">
    <path clip-path="url(#p0e6e986cb4)" d="M 150.483217 41.663586  L 159.692025 41.663586  L 159.692025 41.663586  L 150.483217 41.663586  z " style="fill:#fefebb;stroke:#444443;stroke-linejoin:miter;stroke-width:0.5;" />
   </g>
   <g id="patch_19">
    <path clip-path="url(#p0e6e986cb4)" d="M 159.692025 41.663586  L 168.900834 41.663586  L 168.900834 41.663586  L 159.692025 41.663586  z " style="fill:#fefebb;stroke:#444443;stroke-linejoin:miter;stroke-width:0.5;" />
   </g>
   <g id="patch_20">
    <path clip-path="url(#p0e6e986cb4)" d="M 168.900834 41.663586  L 178.109642 41.663586  L 178.109642 41.663586  L 168.900834 41.663586  z " style="fill:#fefebb;stroke:#444443;stroke-linejoin:miter;stroke-width:0.5;" />
   </g>
   <g id="patch_21">
    <path clip-path="url(#p0e6e986cb4)" d="M 178.109642 41.663586  L 187.318451 41.663586  L 187.318451 15.914112  L 178.109642 15.914112  z " style="fill:#fefebb;stroke:#444443;stroke-linejoin:miter;stroke-width:0.5;" />
   </g>
   <g id="patch_22">
    <path clip-path="url(#p0e6e986cb4)" d="M 12.35109 3.039375  L 21.559898 3.039375  L 21.559898 3.039375  L 12.35109 3.039375  z " style="fill:#a1dab4;stroke:#444443;stroke-linejoin:miter;stroke-width:0.5;" />
   </g>
   <g id="patch_23">
    <path clip-path="url(#p0e6e986cb4)" d="M 21.559898 15.914112  L 30.768707 15.914112  L 30.768707 15.914112  L 21.559898 15.914112  z " style="fill:#a1dab4;stroke:#444443;stroke-linejoin:miter;stroke-width:0.5;" />
   </g>
   <g id="patch_24">
    <path clip-path="url(#p0e6e986cb4)" d="M 30.768707 15.914112  L 39.977515 15.914112  L 39.977515 15.914112  L 30.768707 15.914112  z " style="fill:#a1dab4;stroke:#444443;stroke-linejoin:miter;stroke-width:0.5;" />
   </g>
   <g id="patch_25">
    <path clip-path="url(#p0e6e986cb4)" d="M 39.977515 28.788849  L 49.186324 28.788849  L 49.186324 28.788849  L 39.977515 28.788849  z " style="fill:#a1dab4;stroke:#444443;stroke-linejoin:miter;stroke-width:0.5;" />
   </g>
   <g id="patch_26">
    <path clip-path="url(#p0e6e986cb4)" d="M 49.186324 28.788849  L 58.395132 28.788849  L 58.395132 28.788849  L 49.186324 28.788849  z " style="fill:#a1dab4;stroke:#444443;stroke-linejoin:miter;stroke-width:0.5;" />
   </g>
   <g id="patch_27">
    <path clip-path="url(#p0e6e986cb4)" d="M 58.395132 15.914112  L 67.603941 15.914112  L 67.603941 15.914112  L 58.395132 15.914112  z " style="fill:#a1dab4;stroke:#444443;stroke-linejoin:miter;stroke-width:0.5;" />
   </g>
   <g id="patch_28">
    <path clip-path="url(#p0e6e986cb4)" d="M 67.603941 41.663586  L 76.812749 41.663586  L 76.812749 41.663586  L 67.603941 41.663586  z " style="fill:#a1dab4;stroke:#444443;stroke-linejoin:miter;stroke-width:0.5;" />
   </g>
   <g id="patch_29">
    <path clip-path="url(#p0e6e986cb4)" d="M 76.812749 15.914112  L 86.021558 15.914112  L 86.021558 15.914112  L 76.812749 15.914112  z " style="fill:#a1dab4;stroke:#444443;stroke-linejoin:miter;stroke-width:0.5;" />
   </g>
   <g id="patch_30">
    <path clip-path="url(#p0e6e986cb4)" d="M 86.021558 15.914112  L 95.230366 15.914112  L 95.230366 15.914112  L 86.021558 15.914112  z " style="fill:#a1dab4;stroke:#444443;stroke-linejoin:miter;stroke-width:0.5;" />
   </g>
   <g id="patch_31">
    <path clip-path="url(#p0e6e986cb4)" d="M 95.230366 28.788849  L 104.439175 28.788849  L 104.439175 28.788849  L 95.230366 28.788849  z " style="fill:#a1dab4;stroke:#444443;stroke-linejoin:miter;stroke-width:0.5;" />
   </g>
   <g id="patch_32">
    <path clip-path="url(#p0e6e986cb4)" d="M 104.439175 41.663586  L 113.647983 41.663586  L 113.647983 41.663586  L 104.439175 41.663586  z " style="fill:#a1dab4;stroke:#444443;stroke-linejoin:miter;stroke-width:0.5;" />
   </g>
   <g id="patch_33">
    <path clip-path="url(#p0e6e986cb4)" d="M 113.647983 28.788849  L 122.856791 28.788849  L 122.856791 28.788849  L 113.647983 28.788849  z " style="fill:#a1dab4;stroke:#444443;stroke-linejoin:miter;stroke-width:0.5;" />
   </g>
   <g id="patch_34">
    <path clip-path="url(#p0e6e986cb4)" d="M 122.856791 41.663586  L 132.0656 41.663586  L 132.0656 41.663586  L 122.856791 41.663586  z " style="fill:#a1dab4;stroke:#444443;stroke-linejoin:miter;stroke-width:0.5;" />
   </g>
   <g id="patch_35">
    <path clip-path="url(#p0e6e986cb4)" d="M 132.0656 41.663586  L 141.274408 41.663586  L 141.274408 41.663586  L 132.0656 41.663586  z " style="fill:#a1dab4;stroke:#444443;stroke-linejoin:miter;stroke-width:0.5;" />
   </g>
   <g id="patch_36">
    <path clip-path="url(#p0e6e986cb4)" d="M 141.274408 28.788849  L 150.483217 28.788849  L 150.483217 28.788849  L 141.274408 28.788849  z " style="fill:#a1dab4;stroke:#444443;stroke-linejoin:miter;stroke-width:0.5;" />
   </g>
   <g id="patch_37">
    <path clip-path="url(#p0e6e986cb4)" d="M 150.483217 41.663586  L 159.692025 41.663586  L 159.692025 41.663586  L 150.483217 41.663586  z " style="fill:#a1dab4;stroke:#444443;stroke-linejoin:miter;stroke-width:0.5;" />
   </g>
   <g id="patch_38">
    <path clip-path="url(#p0e6e986cb4)" d="M 159.692025 41.663586  L 168.900834 41.663586  L 168.900834 41.663586  L 159.692025 41.663586  z " style="fill:#a1dab4;stroke:#444443;stroke-linejoin:miter;stroke-width:0.5;" />
   </g>
   <g id="patch_39">
    <path clip-path="url(#p0e6e986cb4)" d="M 168.900834 41.663586  L 178.109642 41.663586  L 178.109642 41.663586  L 168.900834 41.663586  z " style="fill:#a1dab4;stroke:#444443;stroke-linejoin:miter;stroke-width:0.5;" />
   </g>
   <g id="patch_40">
    <path clip-path="url(#p0e6e986cb4)" d="M 178.109642 15.914112  L 187.318451 15.914112  L 187.318451 15.914112  L 178.109642 15.914112  z " style="fill:#a1dab4;stroke:#444443;stroke-linejoin:miter;stroke-width:0.5;" />
   </g>
   <g id="patch_41">
    <path d="M 18.83378 42.478986  L 15.51926 49.817586  L 22.1483 49.817586  z " style="fill:#444443;" />
   </g>
   <g id="patch_42">
    <path d="M 179.274403 42.478986  L 175.959883 49.817586  L 182.588923 49.817586  z " style="fill:#d67c03;" />
   </g>
   <g id="matplotlib.axis_1">
    <g id="xtick_1">
     <g id="line2d_1">
      <defs>
       <path d="M 0 0  L 0 3.5  " id="m34fd88ffaf" style="stroke:#000000;stroke-width:0.3;" />
      </defs>
      <g>
       <use style="stroke:#000000;stroke-width:0.3;" x="12.35109" y="41.663586" xlink:href="#m34fd88ffaf" />
      </g>
     </g>
     <g id="text_1">

      <defs>
       <path d="M 12.40625 8.296875  L 28.515625 8.296875  L 28.515625 63.921875  L 10.984375 60.40625  L 10.984375 69.390625  L 28.421875 72.90625  L 38.28125 72.90625  L 38.28125 8.296875  L 54.390625 8.296875  L 54.390625 0  L 12.40625 0  z " id="DejaVuSans-49" />
       <path d="M 40.578125 39.3125  Q 47.65625 37.796875 51.625 33  Q 55.609375 28.21875 55.609375 21.1875  Q 55.609375 10.40625 48.1875 4.484375  Q 40.765625 -1.421875 27.09375 -1.421875  Q 22.515625 -1.421875 17.65625 -0.515625  Q 12.796875 0.390625 7.625 2.203125  L 7.625 11.71875  Q 11.71875 9.328125 16.59375 8.109375  Q 21.484375 6.890625 26.8125 6.890625  Q 36.078125 6.890625 40.9375 10.546875  Q 45.796875 14.203125 45.796875 21.1875  Q 45.796875 27.640625 41.28125 31.265625  Q 36.765625 34.90625 28.71875 34.90625  L 20.21875 34.90625  L 20.21875 43.015625  L 29.109375 43.015625  Q 36.375 43.015625 40.234375 45.921875  Q 44.09375 48.828125 44.09375 54.296875  Q 44.09375 59.90625 40.109375 62.90625  Q 36.140625 65.921875 28.71875 65.921875  Q 24.65625 65.921875 20.015625 65.03125  Q 15.375 64.15625 9.8125 62.3125  L 9.8125 71.09375  Q 15.4375 72.65625 20.34375 73.4375  Q 25.25 74.21875 29.59375 74.21875  Q 40.828125 74.21875 47.359375 69.109375  Q 53.90625 64.015625 53.90625 55.328125  Q 53.90625 49.265625 50.4375 45.09375  Q 46.96875 40.921875 40.578125 39.3125  z " id="DejaVuSans-51" />
      </defs>
      <g style="fill:#444443;" transform="translate(4.71609 54.742336)scale(0.08 -0.08)">
       <use xlink:href="#DejaVuSans-49" />
       <use x="63.623047" xlink:href="#DejaVuSans-51" />
       <use x="127.246094" xlink:href="#DejaVuSans-49" />
      </g>
     </g>
    </g>
    <g id="xtick_2">
     <g id="line2d_2">
      <g>
       <use style="stroke:#000000;stroke-width:0.3;" x="187.318451" y="41.663586" xlink:href="#m34fd88ffaf" />
      </g>
     </g>
     <g id="text_2">

      <defs>
       <path d="M 8.203125 72.90625  L 55.078125 72.90625  L 55.078125 68.703125  L 28.609375 0  L 18.3125 0  L 43.21875 64.59375  L 8.203125 64.59375  z " id="DejaVuSans-55" />
       <path d="M 33.015625 40.375  Q 26.375 40.375 22.484375 35.828125  Q 18.609375 31.296875 18.609375 23.390625  Q 18.609375 15.53125 22.484375 10.953125  Q 26.375 6.390625 33.015625 6.390625  Q 39.65625 6.390625 43.53125 10.953125  Q 47.40625 15.53125 47.40625 23.390625  Q 47.40625 31.296875 43.53125 35.828125  Q 39.65625 40.375 33.015625 40.375  z M 52.59375 71.296875  L 52.59375 62.3125  Q 48.875 64.0625 45.09375 64.984375  Q 41.3125 65.921875 37.59375 65.921875  Q 27.828125 65.921875 22.671875 59.328125  Q 17.53125 52.734375 16.796875 39.40625  Q 19.671875 43.65625 24.015625 45.921875  Q 28.375 48.1875 33.59375 48.1875  Q 44.578125 48.1875 50.953125 41.515625  Q 57.328125 34.859375 57.328125 23.390625  Q 57.328125 12.15625 50.6875 5.359375  Q 44.046875 -1.421875 33.015625 -1.421875  Q 20.359375 -1.421875 13.671875 8.265625  Q 6.984375 17.96875 6.984375 36.375  Q 6.984375 53.65625 15.1875 63.9375  Q 23.390625 74.21875 37.203125 74.21875  Q 40.921875 74.21875 44.703125 73.484375  Q 48.484375 72.75 52.59375 71.296875  z " id="DejaVuSans-54" />
       <path d="M 31.78125 34.625  Q 24.75 34.625 20.71875 30.859375  Q 16.703125 27.09375 16.703125 20.515625  Q 16.703125 13.921875 20.71875 10.15625  Q 24.75 6.390625 31.78125 6.390625  Q 38.8125 6.390625 42.859375 10.171875  Q 46.921875 13.96875 46.921875 20.515625  Q 46.921875 27.09375 42.890625 30.859375  Q 38.875 34.625 31.78125 34.625  z M 21.921875 38.8125  Q 15.578125 40.375 12.03125 44.71875  Q 8.5 49.078125 8.5 55.328125  Q 8.5 64.0625 14.71875 69.140625  Q 20.953125 74.21875 31.78125 74.21875  Q 42.671875 74.21875 48.875 69.140625  Q 55.078125 64.0625 55.078125 55.328125  Q 55.078125 49.078125 51.53125 44.71875  Q 48 40.375 41.703125 38.8125  Q 48.828125 37.15625 52.796875 32.3125  Q 56.78125 27.484375 56.78125 20.515625  Q 56.78125 9.90625 50.3125 4.234375  Q 43.84375 -1.421875 31.78125 -1.421875  Q 19.734375 -1.421875 13.25 4.234375  Q 6.78125 9.90625 6.78125 20.515625  Q 6.78125 27.484375 10.78125 32.3125  Q 14.796875 37.15625 21.921875 38.8125  z M 18.3125 54.390625  Q 18.3125 48.734375 21.84375 45.5625  Q 25.390625 42.390625 31.78125 42.390625  Q 38.140625 42.390625 41.71875 45.5625  Q 45.3125 48.734375 45.3125 54.390625  Q 45.3125 60.0625 41.71875 63.234375  Q 38.140625 66.40625 31.78125 66.40625  Q 25.390625 66.40625 21.84375 63.234375  Q 18.3125 60.0625 18.3125 54.390625  z " id="DejaVuSans-56" />
      </defs>
      <g style="fill:#444443;" transform="translate(177.138451 54.742336)scale(0.08 -0.08)">
       <use xlink:href="#DejaVuSans-55" />
       <use x="63.623047" xlink:href="#DejaVuSans-49" />
       <use x="127.246094" xlink:href="#DejaVuSans-54" />
       <use x="190.869141" xlink:href="#DejaVuSans-56" />
      </g>
     </g>
    </g>
    <g id="text_3">

     <defs>
      <path d="M 52 44.1875  Q 55.375 50.25 60.0625 53.125  Q 64.75 56 71.09375 56  Q 79.640625 56 84.28125 50.015625  Q 88.921875 44.046875 88.921875 33.015625  L 88.921875 0  L 79.890625 0  L 79.890625 32.71875  Q 79.890625 40.578125 77.09375 44.375  Q 74.3125 48.1875 68.609375 48.1875  Q 61.625 48.1875 57.5625 43.546875  Q 53.515625 38.921875 53.515625 30.90625  L 53.515625 0  L 44.484375 0  L 44.484375 32.71875  Q 44.484375 40.625 41.703125 44.40625  Q 38.921875 48.1875 33.109375 48.1875  Q 26.21875 48.1875 22.15625 43.53125  Q 18.109375 38.875 18.109375 30.90625  L 18.109375 0  L 9.078125 0  L 9.078125 54.6875  L 18.109375 54.6875  L 18.109375 46.1875  Q 21.1875 51.21875 25.484375 53.609375  Q 29.78125 56 35.6875 56  Q 41.65625 56 45.828125 52.96875  Q 50 49.953125 52 44.1875  z " id="DejaVuSans-109" />
      <path d="M 56.203125 29.59375  L 56.203125 25.203125  L 14.890625 25.203125  Q 15.484375 15.921875 20.484375 11.0625  Q 25.484375 6.203125 34.421875 6.203125  Q 39.59375 6.203125 44.453125 7.46875  Q 49.3125 8.734375 54.109375 11.28125  L 54.109375 2.78125  Q 49.265625 0.734375 44.1875 -0.34375  Q 39.109375 -1.421875 33.890625 -1.421875  Q 20.796875 -1.421875 13.15625 6.1875  Q 5.515625 13.8125 5.515625 26.8125  Q 5.515625 40.234375 12.765625 48.109375  Q 20.015625 56 32.328125 56  Q 43.359375 56 49.78125 48.890625  Q 56.203125 41.796875 56.203125 29.59375  z M 47.21875 32.234375  Q 47.125 39.59375 43.09375 43.984375  Q 39.0625 48.390625 32.421875 48.390625  Q 24.90625 48.390625 20.390625 44.140625  Q 15.875 39.890625 15.1875 32.171875  z " id="DejaVuSans-101" />
      <path d="M 34.28125 27.484375  Q 23.390625 27.484375 19.1875 25  Q 14.984375 22.515625 14.984375 16.5  Q 14.984375 11.71875 18.140625 8.90625  Q 21.296875 6.109375 26.703125 6.109375  Q 34.1875 6.109375 38.703125 11.40625  Q 43.21875 16.703125 43.21875 25.484375  L 43.21875 27.484375  z M 52.203125 31.203125  L 52.203125 0  L 43.21875 0  L 43.21875 8.296875  Q 40.140625 3.328125 35.546875 0.953125  Q 30.953125 -1.421875 24.3125 -1.421875  Q 15.921875 -1.421875 10.953125 3.296875  Q 6 8.015625 6 15.921875  Q 6 25.140625 12.171875 29.828125  Q 18.359375 34.515625 30.609375 34.515625  L 43.21875 34.515625  L 43.21875 35.40625  Q 43.21875 41.609375 39.140625 45  Q 35.0625 48.390625 27.6875 48.390625  Q 23 48.390625 18.546875 47.265625  Q 14.109375 46.140625 10.015625 43.890625  L 10.015625 52.203125  Q 14.9375 54.109375 19.578125 55.046875  Q 24.21875 56 28.609375 56  Q 40.484375 56 46.34375 49.84375  Q 52.203125 43.703125 52.203125 31.203125  z " id="DejaVuSans-97" />
      <path d="M 54.890625 33.015625  L 54.890625 0  L 45.90625 0  L 45.90625 32.71875  Q 45.90625 40.484375 42.875 44.328125  Q 39.84375 48.1875 33.796875 48.1875  Q 26.515625 48.1875 22.3125 43.546875  Q 18.109375 38.921875 18.109375 30.90625  L 18.109375 0  L 9.078125 0  L 9.078125 54.6875  L 18.109375 54.6875  L 18.109375 46.1875  Q 21.34375 51.125 25.703125 53.5625  Q 30.078125 56 35.796875 56  Q 45.21875 56 50.046875 50.171875  Q 54.890625 44.34375 54.890625 33.015625  z " id="DejaVuSans-110" />
      <path d="M 50.984375 -16.609375  L 50.984375 -23.578125  L -0.984375 -23.578125  L -0.984375 -16.609375  z " id="DejaVuSans-95" />
      <path d="M 4.203125 54.6875  L 13.1875 54.6875  L 24.421875 12.015625  L 35.59375 54.6875  L 46.1875 54.6875  L 57.421875 12.015625  L 68.609375 54.6875  L 77.59375 54.6875  L 63.28125 0  L 52.6875 0  L 40.921875 44.828125  L 29.109375 0  L 18.5 0  z " id="DejaVuSans-119" />
      <path d="M 30.609375 48.390625  Q 23.390625 48.390625 19.1875 42.75  Q 14.984375 37.109375 14.984375 27.296875  Q 14.984375 17.484375 19.15625 11.84375  Q 23.34375 6.203125 30.609375 6.203125  Q 37.796875 6.203125 41.984375 11.859375  Q 46.1875 17.53125 46.1875 27.296875  Q 46.1875 37.015625 41.984375 42.703125  Q 37.796875 48.390625 30.609375 48.390625  z M 30.609375 56  Q 42.328125 56 49.015625 48.375  Q 55.71875 40.765625 55.71875 27.296875  Q 55.71875 13.875 49.015625 6.21875  Q 42.328125 -1.421875 30.609375 -1.421875  Q 18.84375 -1.421875 12.171875 6.21875  Q 5.515625 13.875 5.515625 27.296875  Q 5.515625 40.765625 12.171875 48.375  Q 18.84375 56 30.609375 56  z " id="DejaVuSans-111" />
      <path d="M 41.109375 46.296875  Q 39.59375 47.171875 37.8125 47.578125  Q 36.03125 48 33.890625 48  Q 26.265625 48 22.1875 43.046875  Q 18.109375 38.09375 18.109375 28.8125  L 18.109375 0  L 9.078125 0  L 9.078125 54.6875  L 18.109375 54.6875  L 18.109375 46.1875  Q 20.953125 51.171875 25.484375 53.578125  Q 30.03125 56 36.53125 56  Q 37.453125 56 38.578125 55.875  Q 39.703125 55.765625 41.0625 55.515625  z " id="DejaVuSans-114" />
      <path d="M 45.40625 46.390625  L 45.40625 75.984375  L 54.390625 75.984375  L 54.390625 0  L 45.40625 0  L 45.40625 8.203125  Q 42.578125 3.328125 38.25 0.953125  Q 33.9375 -1.421875 27.875 -1.421875  Q 17.96875 -1.421875 11.734375 6.484375  Q 5.515625 14.40625 5.515625 27.296875  Q 5.515625 40.1875 11.734375 48.09375  Q 17.96875 56 27.875 56  Q 33.9375 56 38.25 53.625  Q 42.578125 51.265625 45.40625 46.390625  z M 14.796875 27.296875  Q 14.796875 17.390625 18.875 11.75  Q 22.953125 6.109375 30.078125 6.109375  Q 37.203125 6.109375 41.296875 11.75  Q 45.40625 17.390625 45.40625 27.296875  Q 45.40625 37.203125 41.296875 42.84375  Q 37.203125 48.484375 30.078125 48.484375  Q 22.953125 48.484375 18.875 42.84375  Q 14.796875 37.203125 14.796875 27.296875  z " id="DejaVuSans-100" />
      <path d="M 9.078125 75.984375  L 18.109375 75.984375  L 18.109375 31.109375  L 44.921875 54.6875  L 56.390625 54.6875  L 27.390625 29.109375  L 57.625 0  L 45.90625 0  L 18.109375 26.703125  L 18.109375 0  L 9.078125 0  z " id="DejaVuSans-107" />
     </defs>
     <g style="fill:#444443;" transform="translate(52.975313 69.524211)scale(0.12 -0.12)">
      <use xlink:href="#DejaVuSans-109" />
      <use x="97.412109" xlink:href="#DejaVuSans-101" />
      <use x="158.935547" xlink:href="#DejaVuSans-97" />
      <use x="220.214844" xlink:href="#DejaVuSans-110" />
      <use x="283.59375" xlink:href="#DejaVuSans-95" />
      <use x="333.59375" xlink:href="#DejaVuSans-119" />
      <use x="415.380859" xlink:href="#DejaVuSans-111" />
      <use x="476.5625" xlink:href="#DejaVuSans-114" />
      <use x="515.925781" xlink:href="#DejaVuSans-100" />
      <use x="579.402344" xlink:href="#DejaVuSans-95" />
      <use x="629.402344" xlink:href="#DejaVuSans-114" />
      <use x="670.515625" xlink:href="#DejaVuSans-97" />
      <use x="731.794922" xlink:href="#DejaVuSans-110" />
      <use x="795.173828" xlink:href="#DejaVuSans-107" />
     </g>
    </g>
   </g>
   <g id="matplotlib.axis_2">
    <g id="ytick_1">
     <g id="line2d_3">
      <defs>
       <path d="M 0 0  L -3.5 0  " id="m09362515e0" style="stroke:#000000;stroke-width:0.3;" />
      </defs>
      <g>
       <use style="stroke:#000000;stroke-width:0.3;" x="12.09" y="41.663586" xlink:href="#m09362515e0" />
      </g>
     </g>
     <g id="text_4">

      <defs>
       <path d="M 31.78125 66.40625  Q 24.171875 66.40625 20.328125 58.90625  Q 16.5 51.421875 16.5 36.375  Q 16.5 21.390625 20.328125 13.890625  Q 24.171875 6.390625 31.78125 6.390625  Q 39.453125 6.390625 43.28125 13.890625  Q 47.125 21.390625 47.125 36.375  Q 47.125 51.421875 43.28125 58.90625  Q 39.453125 66.40625 31.78125 66.40625  z M 31.78125 74.21875  Q 44.046875 74.21875 50.515625 64.515625  Q 56.984375 54.828125 56.984375 36.375  Q 56.984375 17.96875 50.515625 8.265625  Q 44.046875 -1.421875 31.78125 -1.421875  Q 19.53125 -1.421875 13.0625 8.265625  Q 6.59375 17.96875 6.59375 36.375  Q 6.59375 54.828125 13.0625 64.515625  Q 19.53125 74.21875 31.78125 74.21875  z " id="DejaVuSans-48" />
      </defs>
      <g style="fill:#444443;" transform="translate(0 44.702961)scale(0.08 -0.08)">
       <use xlink:href="#DejaVuSans-48" />
      </g>
     </g>
    </g>
    <g id="ytick_2">
     <g id="line2d_4">
      <g>
       <use style="stroke:#000000;stroke-width:0.3;" x="12.09" y="3.039375" xlink:href="#m09362515e0" />
      </g>
     </g>
     <g id="text_5">

      <g style="fill:#444443;" transform="translate(0 6.07875)scale(0.08 -0.08)">
       <use xlink:href="#DejaVuSans-51" />
      </g>
     </g>
    </g>
   </g>
   <g id="patch_43">
    <path d="M 12.09 41.663586  L 12.09 3.039375  " style="fill:none;stroke:#000000;stroke-linecap:square;stroke-linejoin:miter;stroke-width:0.3;" />
   </g>
   <g id="patch_44">
    <path d="M 12.09 41.663586  L 196.23 41.663586  " style="fill:none;stroke:#000000;stroke-linecap:square;stroke-linejoin:miter;stroke-width:0.3;" />
   </g>
   <g id="text_6">

    <defs>
     <path d="M 10.984375 1.515625  L 10.984375 10.5  Q 14.703125 8.734375 18.5 7.8125  Q 22.3125 6.890625 25.984375 6.890625  Q 35.75 6.890625 40.890625 13.453125  Q 46.046875 20.015625 46.78125 33.40625  Q 43.953125 29.203125 39.59375 26.953125  Q 35.25 24.703125 29.984375 24.703125  Q 19.046875 24.703125 12.671875 31.3125  Q 6.296875 37.9375 6.296875 49.421875  Q 6.296875 60.640625 12.9375 67.421875  Q 19.578125 74.21875 30.609375 74.21875  Q 43.265625 74.21875 49.921875 64.515625  Q 56.59375 54.828125 56.59375 36.375  Q 56.59375 19.140625 48.40625 8.859375  Q 40.234375 -1.421875 26.421875 -1.421875  Q 22.703125 -1.421875 18.890625 -0.6875  Q 15.09375 0.046875 10.984375 1.515625  z M 30.609375 32.421875  Q 37.25 32.421875 41.125 36.953125  Q 45.015625 41.5 45.015625 49.421875  Q 45.015625 57.28125 41.125 61.84375  Q 37.25 66.40625 30.609375 66.40625  Q 23.96875 66.40625 20.09375 61.84375  Q 16.21875 57.28125 16.21875 49.421875  Q 16.21875 41.5 20.09375 36.953125  Q 23.96875 32.421875 30.609375 32.421875  z " id="DejaVuSans-57" />
     <path d="M 10.6875 12.40625  L 21 12.40625  L 21 0  L 10.6875 0  z " id="DejaVuSans-46" />
    </defs>
    <g style="fill:#444443;" transform="translate(4.83753 57.971586)scale(0.08 -0.08)">
     <use xlink:href="#DejaVuSans-51" />
     <use x="63.623047" xlink:href="#DejaVuSans-57" />
     <use x="127.246094" xlink:href="#DejaVuSans-49" />
     <use x="190.869141" xlink:href="#DejaVuSans-46" />
     <use x="222.65625" xlink:href="#DejaVuSans-57" />
     <use x="286.279297" xlink:href="#DejaVuSans-54" />
    </g>
   </g>
   <g id="text_7">

    <g style="fill:#444443;" transform="translate(4.83753 57.971586)scale(0.08 -0.08)">
     <use xlink:href="#DejaVuSans-51" />
     <use x="63.623047" xlink:href="#DejaVuSans-57" />
     <use x="127.246094" xlink:href="#DejaVuSans-49" />
     <use x="190.869141" xlink:href="#DejaVuSans-46" />
     <use x="222.65625" xlink:href="#DejaVuSans-57" />
     <use x="286.279297" xlink:href="#DejaVuSans-54" />
    </g>
   </g>
  </g>
 </g>
 <defs>
  <clipPath id="p0e6e986cb4">
   <rect height="38.624211" width="184.14" x="12.09" y="3.039375" />
  </clipPath>
 </defs>
</svg></g>

<g class="edge" id="edge3">
<title>node0-&gt;node58</title>
<path d="M279,-386.9939C279,-382.9908 279,-378.808 279,-374.5795" fill="none" stroke="#d67c03" stroke-width="1.2" />
<polygon fill="#d67c03" points="280.4001,-374.3407 279,-370.3407 277.6001,-374.3407 280.4001,-374.3407" stroke="#d67c03" stroke-width="1.2" />
</g>

<g class="node" id="node6">
<title>X_y</title>
<polygon fill="none" points="550,-40 8,-40 8,-8 550,-8 550,-40" stroke="#000000" stroke-width=".3" />
<polygon fill="#ffffff" points="10,-24 10,-38 55,-38 55,-24 10,-24" stroke="transparent" />
<text fill="#444443" font-family="Helvetica,sans-Serif" font-size="11.00" text-anchor="start" x="11" y="-28.2">char_len</text>
<polygon fill="#ffffff" points="55,-24 55,-38 143,-38 143,-24 55,-24" stroke="transparent" />
<text fill="#d67c03" font-family="Helvetica,sans-Serif" font-size="11.00" text-anchor="start" x="56" y="-28.2">mean_word_rank</text>
<polygon fill="#ffffff" points="143,-24 143,-38 191,-38 191,-24 143,-24" stroke="transparent" />
<text fill="#444443" font-family="Helvetica,sans-Serif" font-size="11.00" text-anchor="start" x="144" y="-28.2">._percent</text>
<polygon fill="#ffffff" points="191,-24 191,-38 240,-38 240,-24 191,-24" stroke="transparent" />
<text fill="#444443" font-family="Helvetica,sans-Serif" font-size="11.00" text-anchor="start" x="192" y="-28.2">-_percent</text>
<polygon fill="#ffffff" points="240,-24 240,-38 288,-38 288,-24 240,-24" stroke="transparent" />
<text fill="#444443" font-family="Helvetica,sans-Serif" font-size="11.00" text-anchor="start" x="241" y="-28.2">'_percent</text>
<polygon fill="#ffffff" points="288,-24 288,-38 339,-38 339,-24 288,-24" stroke="transparent" />
<text fill="#d67c03" font-family="Helvetica,sans-Serif" font-size="11.00" text-anchor="start" x="289" y="-28.2">$_percent</text>
<polygon fill="#ffffff" points="339,-24 339,-38 401,-38 401,-24 339,-24" stroke="transparent" />
<text fill="#444443" font-family="Helvetica,sans-Serif" font-size="11.00" text-anchor="start" x="340" y="-28.2">ends_with_)</text>
<polygon fill="#ffffff" points="401,-24 401,-38 449,-38 449,-24 401,-24" stroke="transparent" />
<text fill="#444443" font-family="Helvetica,sans-Serif" font-size="11.00" text-anchor="start" x="402" y="-28.2">,_percent</text>
<polygon fill="#ffffff" points="449,-24 449,-38 497,-38 497,-24 449,-24" stroke="transparent" />
<text fill="#444443" font-family="Helvetica,sans-Serif" font-size="11.00" text-anchor="start" x="450" y="-28.2">\_percent</text>
<polygon fill="#ffffff" points="497,-24 497,-38 548,-38 548,-24 497,-24" stroke="transparent" />
<text fill="#444443" font-family="Helvetica,sans-Serif" font-size="11.00" text-anchor="start" x="498" y="-28.2">?_percent</text>
<polygon fill="#ffffff" points="10,-10 10,-24 55,-24 55,-10 10,-10" stroke="transparent" />
<text fill="#444443" font-family="Helvetica,sans-Serif" font-size="11.00" text-anchor="start" x="26" y="-14.2">37.00</text>
<polygon fill="#ffffff" points="55,-10 55,-24 143,-24 143,-10 55,-10" stroke="transparent" />
<text fill="#d67c03" font-family="Helvetica,sans-Serif" font-size="11.00" text-anchor="start" x="102" y="-14.2">6844.25</text>
<polygon fill="#ffffff" points="143,-10 143,-24 191,-24 191,-10 143,-10" stroke="transparent" />
<text fill="#444443" font-family="Helvetica,sans-Serif" font-size="11.00" text-anchor="start" x="168" y="-14.2">0.00</text>
<polygon fill="#ffffff" points="191,-10 191,-24 240,-24 240,-10 191,-10" stroke="transparent" />
<text fill="#444443" font-family="Helvetica,sans-Serif" font-size="11.00" text-anchor="start" x="217" y="-14.2">0.00</text>
<polygon fill="#ffffff" points="240,-10 240,-24 288,-24 288,-10 240,-10" stroke="transparent" />
<text fill="#444443" font-family="Helvetica,sans-Serif" font-size="11.00" text-anchor="start" x="265" y="-14.2">0.00</text>
<polygon fill="#ffffff" points="288,-10 288,-24 339,-24 339,-10 288,-10" stroke="transparent" />
<text fill="#d67c03" font-family="Helvetica,sans-Serif" font-size="11.00" text-anchor="start" x="316" y="-14.2">0.00</text>
<polygon fill="#ffffff" points="339,-10 339,-24 401,-24 401,-10 339,-10" stroke="transparent" />
<text fill="#444443" font-family="Helvetica,sans-Serif" font-size="11.00" text-anchor="start" x="378" y="-14.2">0.00</text>
<polygon fill="#ffffff" points="401,-10 401,-24 449,-24 449,-10 401,-10" stroke="transparent" />
<text fill="#444443" font-family="Helvetica,sans-Serif" font-size="11.00" text-anchor="start" x="426" y="-14.2">0.00</text>
<polygon fill="#ffffff" points="449,-10 449,-24 497,-24 497,-10 449,-10" stroke="transparent" />
<text fill="#444443" font-family="Helvetica,sans-Serif" font-size="11.00" text-anchor="start" x="474" y="-14.2">0.00</text>
<polygon fill="#ffffff" points="497,-10 497,-24 548,-24 548,-10 497,-10" stroke="transparent" />
<text fill="#444443" font-family="Helvetica,sans-Serif" font-size="11.00" text-anchor="start" x="525" y="-14.2">0.00</text>
</g>

<g class="edge" id="edge4">
<title>leaf297-&gt;X_y</title>
<path d="M279,-143.5062C279,-115.7284 279,-65.9886 279,-40.3193" fill="none" stroke="#d67c03" stroke-width="1.2" />
<polygon fill="#d67c03" points="277.6001,-143.7687 279,-147.7687 280.4001,-143.7688 277.6001,-143.7687" stroke="#d67c03" stroke-width="1.2" />
<text fill="#444443" font-family="Helvetica,sans-Serif" font-size="11.00" text-anchor="start" x="279" y="-131.2"> &#160;Prediction</text>
<text fill="#444443" font-family="Helvetica,sans-Serif" font-size="11.00" text-anchor="start" x="292.5" y="-119.2"> vixra</text>
</g>

<g class="node" id="node5">
<title>legend</title>
<polygon fill="none" points="540,-440.5 488,-440.5 488,-395.5 540,-395.5 540,-440.5" stroke="#000000" stroke-width="0" />
<svg height="41px" preserveAspectRatio="xMinYMin meet" version="1.1" viewBox="0 0 64.354687 54.36" width="48px" x="490" y="-438">
 <defs>
  <style type="text/css">
*{stroke-linecap:butt;stroke-linejoin:round;}
  </style>
 </defs>
 <g id="figure_1">
  <g id="patch_1">
   <path d="M 0 54.36  L 64.354687 54.36  L 64.354687 0  L 0 0  z " style="fill:#ffffff;" />
  </g>
  <g id="axes_1">
   <g id="legend_1">
    <g id="patch_2">
     <path d="M 2 47.358125  L 62.354687 47.358125  Q 64.354687 47.358125 64.354687 45.358125  L 64.354687 9.001875  Q 64.354687 7.001875 62.354687 7.001875  L 2 7.001875  Q 0 7.001875 0 9.001875  L 0 45.358125  Q 0 47.358125 2 47.358125  z " style="fill:#ffffff;opacity:0.8;stroke:#444443;stroke-linejoin:miter;stroke-width:0.5;" />
    </g>
    <g id="patch_3">
     <path d="M 8 22.600312  L 28 22.600312  L 28 15.600312  L 8 15.600312  z " style="fill:#fefebb;stroke:#444443;stroke-linejoin:miter;stroke-width:0.4;" />
    </g>
    <g id="text_1">

     <defs>
      <path d="M 34.28125 27.484375  Q 23.390625 27.484375 19.1875 25  Q 14.984375 22.515625 14.984375 16.5  Q 14.984375 11.71875 18.140625 8.90625  Q 21.296875 6.109375 26.703125 6.109375  Q 34.1875 6.109375 38.703125 11.40625  Q 43.21875 16.703125 43.21875 25.484375  L 43.21875 27.484375  z M 52.203125 31.203125  L 52.203125 0  L 43.21875 0  L 43.21875 8.296875  Q 40.140625 3.328125 35.546875 0.953125  Q 30.953125 -1.421875 24.3125 -1.421875  Q 15.921875 -1.421875 10.953125 3.296875  Q 6 8.015625 6 15.921875  Q 6 25.140625 12.171875 29.828125  Q 18.359375 34.515625 30.609375 34.515625  L 43.21875 34.515625  L 43.21875 35.40625  Q 43.21875 41.609375 39.140625 45  Q 35.0625 48.390625 27.6875 48.390625  Q 23 48.390625 18.546875 47.265625  Q 14.109375 46.140625 10.015625 43.890625  L 10.015625 52.203125  Q 14.9375 54.109375 19.578125 55.046875  Q 24.21875 56 28.609375 56  Q 40.484375 56 46.34375 49.84375  Q 52.203125 43.703125 52.203125 31.203125  z " id="DejaVuSans-97" />
      <path d="M 41.109375 46.296875  Q 39.59375 47.171875 37.8125 47.578125  Q 36.03125 48 33.890625 48  Q 26.265625 48 22.1875 43.046875  Q 18.109375 38.09375 18.109375 28.8125  L 18.109375 0  L 9.078125 0  L 9.078125 54.6875  L 18.109375 54.6875  L 18.109375 46.1875  Q 20.953125 51.171875 25.484375 53.578125  Q 30.03125 56 36.53125 56  Q 37.453125 56 38.578125 55.875  Q 39.703125 55.765625 41.0625 55.515625  z " id="DejaVuSans-114" />
      <path d="M 54.890625 54.6875  L 35.109375 28.078125  L 55.90625 0  L 45.3125 0  L 29.390625 21.484375  L 13.484375 0  L 2.875 0  L 24.125 28.609375  L 4.6875 54.6875  L 15.28125 54.6875  L 29.78125 35.203125  L 44.28125 54.6875  z " id="DejaVuSans-120" />
      <path d="M 9.421875 54.6875  L 18.40625 54.6875  L 18.40625 0  L 9.421875 0  z M 9.421875 75.984375  L 18.40625 75.984375  L 18.40625 64.59375  L 9.421875 64.59375  z " id="DejaVuSans-105" />
      <path d="M 2.984375 54.6875  L 12.5 54.6875  L 29.59375 8.796875  L 46.6875 54.6875  L 56.203125 54.6875  L 35.6875 0  L 23.484375 0  z " id="DejaVuSans-118" />
     </defs>
     <g style="fill:#444443;" transform="translate(31.5 22.600312)scale(0.1 -0.1)">
      <use xlink:href="#DejaVuSans-97" />
      <use x="61.279297" xlink:href="#DejaVuSans-114" />
      <use x="99.767578" xlink:href="#DejaVuSans-120" />
      <use x="158.947266" xlink:href="#DejaVuSans-105" />
      <use x="186.730469" xlink:href="#DejaVuSans-118" />
     </g>
    </g>
    <g id="patch_4">
     <path d="M 8 37.278437  L 28 37.278437  L 28 30.278437  L 8 30.278437  z " style="fill:#a1dab4;stroke:#444443;stroke-linejoin:miter;stroke-width:0.4;" />
    </g>
    <g id="text_2">

     <g style="fill:#444443;" transform="translate(31.5 37.278437)scale(0.1 -0.1)">
      <use xlink:href="#DejaVuSans-118" />
      <use x="59.179688" xlink:href="#DejaVuSans-105" />
      <use x="86.962891" xlink:href="#DejaVuSans-120" />
      <use x="146.142578" xlink:href="#DejaVuSans-114" />
      <use x="187.255859" xlink:href="#DejaVuSans-97" />
     </g>
    </g>
   </g>
  </g>
 </g>
</svg></g>
</g>
</svg>
